<?xml version="1.0" encoding="UTF-8" standalone="no"?>
<!-- Created with Inkscape (http://www.inkscape.org/) -->

<svg
   width="29.212336mm"
   height="101.8471mm"
   viewBox="0 0 29.212336 101.8471"
   version="1.1"
   id="svg4629"
   inkscape:version="1.2 (dc2aeda, 2022-05-15)"
   sodipodi:docname="artemis.svg"
   xmlns:inkscape="http://www.inkscape.org/namespaces/inkscape"
   xmlns:sodipodi="http://sodipodi.sourceforge.net/DTD/sodipodi-0.dtd"
   xmlns="http://www.w3.org/2000/svg"
   xmlns:svg="http://www.w3.org/2000/svg">
  <sodipodi:namedview
     id="namedview4631"
     pagecolor="#ffffff"
     bordercolor="#666666"
     borderopacity="1.0"
     inkscape:showpageshadow="2"
     inkscape:pageopacity="0.0"
     inkscape:pagecheckerboard="0"
     inkscape:deskcolor="#d1d1d1"
     inkscape:document-units="mm"
     showgrid="false"
     inkscape:zoom="0.914906"
     inkscape:cx="203.29957"
     inkscape:cy="231.17129"
     inkscape:window-width="1390"
     inkscape:window-height="1205"
     inkscape:window-x="2240"
     inkscape:window-y="25"
     inkscape:window-maximized="0"
     inkscape:current-layer="layer1" />
  <defs
     id="defs4626" />
  <g
     inkscape:label="Layer 1"
     inkscape:groupmode="layer"
     id="layer1"
     transform="translate(-51.329567,-87.310146)">
    <path
       d="m 55.314765,117.22429 23.346127,21.71382 c 0,0 -21.902913,-18.89301 -23.346127,-21.71382"
       style="fill:#b7aa80;fill-opacity:1;fill-rule:nonzero;stroke:none;stroke-width:0.0352778"
       id="path418" />
    <path
       d="m 79.578467,139.65496 c -1.1176,-1.33879 -3.298119,-1.28376 -4.871155,-1.29293 -2.606322,-0.0152 -5.269089,0.34501 -7.832372,-0.29563 -2.557639,-0.63959 -4.29507,-2.35021 -5.775678,-4.44429 -1.392766,-1.96992 -2.7686,-4.08517 -3.498144,-6.40257 -0.718608,-2.28353 -0.424745,-4.69653 -0.945445,-7.01075 -0.319969,-1.42134 -1.117247,-3.43958 -2.669469,-3.92077 -1.043869,-0.32315 -2.039761,0.37712 -1.82245,1.46614 0.07796,0.39017 0.636764,0.34079 0.741539,0 0.338314,-0.80645 0.963436,-0.45931 1.395589,-0.0847 0.27305,0.25011 0.500591,0.5334 0.682625,0.85054 0.235303,0.38241 0.418747,0.79763 0.56903,1.21991 0.306211,0.85972 0.406048,1.76847 0.485775,2.67158 0.133703,1.52012 0.153106,3.03036 0.540103,4.51662 0.788458,3.02754 2.490611,5.85893 4.398433,8.31074 1.78047,2.28811 3.997678,3.69922 6.887633,4.10633 1.548342,0.21837 3.104092,0.19226 4.66337,0.15275 0.933097,-0.0236 1.867958,-0.0589 2.801408,-0.0296 0.413103,0.0134 0.830439,0.0272 1.241778,0.0716 0.341136,0.0205 0.674511,0.0787 1.000125,0.17498 0.567266,0.10689 0.96273,0.49142 1.186391,1.15288 -0.703438,0.0476 -0.708377,1.1497 0,1.10137 1.279878,-0.0868 1.611842,-1.36666 0.820914,-2.31422"
       style="fill:#2a2120;fill-opacity:1;fill-rule:nonzero;stroke:none;stroke-width:0.0352778"
       id="path420" />
    <path
       d="m 60.728846,118.2604 c 0.09349,-0.17921 -0.03951,-0.32667 -0.203906,-0.35137 -0.120297,-0.16439 -0.26035,-0.31503 -0.404636,-0.46602 -0.274814,-0.28751 -0.559153,-0.56585 -0.850195,-0.83749 -0.22613,-0.21096 -0.568325,0.13017 -0.340077,0.34043 0.277989,0.25611 0.54998,0.51858 0.813858,0.78916 0.124531,0.12806 0.244122,0.26212 0.371828,0.38629 -0.0063,0.005 -0.0127,0.0106 -0.01905,0.0166 -0.161925,-0.17392 -0.378178,-0.31467 -0.555978,-0.45402 -0.297392,-0.23248 -0.600075,-0.48225 -0.926042,-0.6731 -0.204258,-0.11995 -0.512233,0.13723 -0.349602,0.3496 0.238125,0.31009 0.535163,0.57574 0.843844,0.81457 0.161925,0.12523 0.350308,0.28222 0.551039,0.39264 -0.102306,0.11218 -0.201789,0.22683 -0.299508,0.34325 -0.1778,-0.20144 -0.433564,-0.35877 -0.638528,-0.5147 -0.300214,-0.22896 -0.604661,-0.44803 -0.916164,-0.66111 -0.25647,-0.17603 -0.566561,0.22437 -0.333375,0.43251 0.282222,0.25118 0.567619,0.49389 0.861836,0.73095 0.19685,0.15875 0.402167,0.36195 0.632531,0.48648 -0.04163,0.0536 -0.08643,0.10337 -0.131939,0.15346 -0.171098,-0.25506 -0.499534,-0.41769 -0.73272,-0.60854 -0.276225,-0.22648 -0.547158,-0.46214 -0.805039,-0.70979 -0.252588,-0.24236 -0.597958,0.11818 -0.378883,0.37924 0.256117,0.30444 0.526697,0.58526 0.832908,0.84031 0.168275,0.14006 0.341489,0.29457 0.533048,0.40464 -0.05503,0.0275 -0.112537,0.0624 -0.165806,0.0942 -0.366183,-0.29563 -0.785636,-0.54927 -1.154994,-0.81844 -0.174625,-0.12736 -0.3937,0.15769 -0.231423,0.29986 0.336198,0.29492 0.668514,0.63676 1.027289,0.92463 0.0053,0.24835 0.321734,0.47343 0.593725,0.32773 0.05609,-0.0145 0.10407,-0.0508 0.137936,-0.0984 0.08608,-0.0755 0.166511,-0.15345 0.234598,-0.24835 0.07303,-0.1016 0.07479,-0.20285 0.132644,-0.28998 l -0.01094,-0.0825 c 0.07479,-0.012 0.137936,-0.0473 0.189794,-0.10654 0.155928,-0.0974 0.306211,-0.21696 0.45332,-0.32773 0.413808,-0.31151 0.799747,-0.65194 1.105605,-1.06716 0.08925,-0.003 0.179917,-0.079 0.141111,-0.17568 -0.0025,-0.005 -0.006,-0.01 -0.0081,-0.0155"
       style="fill:#ab9358;fill-opacity:1;fill-rule:nonzero;stroke:none;stroke-width:0.0352778"
       id="path422" />
    <path
       d="m 57.020446,120.71573 c 0.05186,0.0903 13.731874,16.93157 15.874999,16.45532 2.143125,-0.47625 -1.309511,-7.20125 -3.730625,-10.7248 -2.421113,-3.52319 -8.473369,-9.09919 -8.909755,-9.21808 -0.436739,-0.11924 -3.671005,2.72909 -3.234619,3.48756"
       style="fill:#572e28;fill-opacity:1;fill-rule:nonzero;stroke:none;stroke-width:0.0352778"
       id="path424" />
    <path
       d="m 58.793154,155.73175 c 0,0 -2.116667,6.98464 -2.645833,12.75256 -0.529167,5.76827 -1.137709,16.93333 -1.296459,17.51542 -0.15875,0.58208 -1.534583,2.11666 -1.11125,2.51354 0.423334,0.39687 3.96875,0.34396 3.995209,-0.13229 0.02646,-0.47625 -1.031875,-2.03729 -1.243542,-2.8575 -0.211667,-0.81986 4.101042,-20.6375 7.328958,-28.46882 2.38125,-3.11009 3.915833,-2.0641 3.915833,-2.0641 0,0 -1.164166,4.07458 0.47625,7.99042 -4.021666,10.05416 0.47625,22.56896 0.211667,23.46854 -0.264583,0.89993 -1.164167,2.14383 -0.687917,2.32868 0.47625,0.18486 6.297084,0.31821 6.270625,0 -0.02646,-0.31785 -3.995208,-2.30222 -4.101041,-2.6991 -0.105834,-0.39687 1.131005,-22.15903 2.179461,-27.51666 1.048455,-5.35799 -6.756753,-9.70986 -13.291961,-2.83069"
       style="fill:#fbc772;fill-opacity:1;fill-rule:nonzero;stroke:none;stroke-width:0.0352778"
       id="path426" />
    <path
       d="m 65.970418,135.04944 c 0,0 -5.338586,5.57425 -7.084484,11.36862 -1.746602,5.79438 -2.341738,10.87438 -2.004483,11.31111 0.337256,0.43639 2.738614,-1.01247 3.135489,-0.69461 0.396875,0.3175 0.376767,1.6076 1.091142,1.82562 0.714375,0.21837 2.401005,-1.36913 2.480733,-1.11125 0.07938,0.25788 1.27,2.14277 1.904647,2.08386 0.635353,-0.0596 2.064103,-1.5875 2.242608,-1.48837 0.178506,0.0991 0.912636,1.46826 1.408995,1.38889 0.496005,-0.0794 1.567391,-1.62737 1.785761,-1.42911 0.218369,0.19862 0.754239,1.17122 1.21038,1.0915 0.456495,-0.079 1.210734,-1.76601 1.408995,-1.80552 0.198614,-0.0395 1.131005,0.67451 1.349375,0.0991 0.218369,-0.57573 -0.138642,-19.08633 -3.512256,-22.63987 -1.388886,-0.97401 -5.416902,0 -5.416902,0"
       style="fill:#ae571f;fill-opacity:1;fill-rule:nonzero;stroke:none;stroke-width:0.0352778"
       id="path428" />
    <path
       d="m 77.995201,119.2323 c 0,0 -7.877881,-0.39687 -8.790517,-0.635 -0.912989,-0.23812 0,4.24639 0,4.24639 0,0 10.370256,-0.29916 10.552642,-0.70521 0.182739,-0.40604 -1.762125,-2.90618 -1.762125,-2.90618"
       style="fill:#cfa762;fill-opacity:1;fill-rule:nonzero;stroke:none;stroke-width:0.0352778"
       id="path430" />
    <path
       d="m 74.234237,94.400979 c 0.381,0.3175 4.402666,94.297501 5.037666,94.615001 0.635,0.31785 1.27,0 1.27,0 0,0 -5.397499,-94.879584 -5.556249,-94.932501 -0.15875,-0.05292 -0.751417,0.3175 -0.751417,0.3175"
       style="fill:#2a2120;fill-opacity:1;fill-rule:nonzero;stroke:none;stroke-width:0.0352778"
       id="path432" />
    <path
       d="m 61.376193,114.63843 c 0,0 0.73413,2.16288 0.347133,2.84727 -0.386997,0.68474 -3.009547,3.3207 -5.099755,6.8132 -2.090209,3.49249 -3.942292,8.67833 -3.280834,9.84249 0.661459,1.16417 7.355417,5.97959 7.249584,6.85271 -0.105834,0.87313 -1.666875,-0.13229 -2.090209,0.43639 -0.423333,0.56903 0.423334,0.95285 0.423334,0.95285 0,0 -0.489303,0.10548 -0.423334,0.67451 0.06632,0.56903 0.899584,0.42334 0.899584,0.42334 0,0 -0.225073,0.41028 0.396875,0.68791 0.621947,0.27799 3.637844,-1.50812 3.254374,-2.96333 -0.383469,-1.45521 -6.693958,-7.58049 -6.932083,-8.45326 -0.238125,-0.87313 3.413125,-6.90563 3.545417,-6.90563 0.132292,0 3.611386,3.96875 3.611386,3.96875 0,0 3.589161,-3.87632 4.09328,-5.44371 0.503767,-1.56774 -0.98425,-6.42973 -0.98425,-6.42973 0,0 -1.74625,-0.496 -2.024238,-0.89288 -0.277637,-0.39687 -0.54222,-2.02388 -0.54222,-2.02388 l -2.444044,-0.387"
       style="fill:#fbc772;fill-opacity:1;fill-rule:nonzero;stroke:none;stroke-width:0.0352778"
       id="path434" />
    <path
       d="m 60.255065,113.3388 c 0,0 -1.42875,3.78989 -4.326114,3.9885 -1.5875,0 -1.84538,-1.30986 -1.84538,-1.48837 -0.416631,0.29775 -2.54,0.55563 -2.738261,-1.30951 -0.198614,-1.86549 1.547636,-1.92511 1.547636,-1.92511 0,0 -0.912989,-0.45614 -0.277636,-2.02388 0.634647,-1.56775 2.361141,-1.0915 2.361141,-1.0915 0,0 -2.678994,-0.38276 -2.500136,-3.22756 0.178506,-2.84445 2.401006,-2.98344 2.401006,-2.98344 0,0 -0.869245,-2.044 0.914752,-3.849868 1.783998,-1.805869 4.264378,-0.912636 4.264378,-0.912636 0,0 0.238125,-1.607608 2.301875,-1.5875 2.06375,0.01976 2.404181,1.726495 2.353028,2.500136 -0.05115,0.773998 -4.456289,13.910738 -4.456289,13.910738"
       style="fill:#87362d;fill-opacity:1;fill-rule:nonzero;stroke:none;stroke-width:0.0352778"
       id="path436" />
    <path
       d="m 58.094301,108.80137 c 0,0 -1.523647,0.0988 -1.285522,1.85843 0.238125,1.7593 2.606322,1.70639 2.606322,1.70639 0,0 1.952978,4.24674 6.148917,3.61174 4.195938,-0.635 8.842374,-7.58049 3.721452,-14.36723 -2.66065,-3.690763 -11.152716,3.8742 -11.191169,7.19067"
       style="fill:#fbc772;fill-opacity:1;fill-rule:nonzero;stroke:none;stroke-width:0.0352778"
       id="path438" />
    <path
       d="m 65.381279,99.084104 c 0,0 -7.646458,1.904996 -7.514167,9.551456 -0.846666,-1.00541 -0.926041,-4.445 1.236839,-7.26263 2.163233,-2.817993 5.767917,-3.049415 6.277328,-2.288826"
       style="fill:#2a2120;fill-opacity:1;fill-rule:nonzero;stroke:none;stroke-width:0.0352778"
       id="path440" />
    <path
       d="m 65.381279,99.084104 c 0,0 0.833261,-1.071386 1.732844,-0.753886 0.899936,0.3175 1.032228,0.926041 1.032228,0.926041 0,0 1.322917,-0.3175 1.627011,1.190621 0.304447,1.50813 -1.719792,2.34139 -2.804583,1.78577 0.145344,0.97895 -2.235906,0.83326 -2.235906,0.83326 0,0 0.648406,2.14347 -0.502708,2.83139 -1.150761,0.68792 -2.566106,0.22472 -2.566106,0.22472 0,0 0.674511,1.93146 -0.648405,2.93688 -1.322917,1.00541 -2.077156,-0.6216 -2.077156,-0.6216 0,0 -0.343958,0.85972 -1.071386,0.19826 -0.553508,-1.13771 0,-5.45041 2.328334,-7.31555 2.328333,-1.865489 4.431594,-2.513542 5.185833,-2.235906"
       style="fill:#87362d;fill-opacity:1;fill-rule:nonzero;stroke:none;stroke-width:0.0352778"
       id="path442" />
    <path
       d="m 66.138693,106.49385 c -0.484364,-0.4438 -1.357136,-0.17322 -1.848556,0.15557 -0.456847,0.30621 -1.009297,0.91158 -1.090789,1.47179 -0.01799,0.12383 0.14217,0.2727 0.244475,0.14252 0.367242,-0.46707 0.572911,-0.85372 1.176867,-1.05586 0.479778,-0.16051 1.018822,-0.025 1.45803,-0.24659 0.167217,-0.0843 0.195439,-0.3429 0.05997,-0.46743"
       style="fill:#87362d;fill-opacity:1;fill-rule:nonzero;stroke:none;stroke-width:0.0352778"
       id="path444" />
    <path
       d="m 71.007731,105.14165 c -0.206727,-0.52458 -0.86748,-0.63253 -1.368425,-0.56832 -0.563738,0.0723 -1.041752,0.46743 -1.132416,1.03681 -0.0254,0.16157 0.143933,0.27093 0.273755,0.15946 0.292806,-0.25154 0.639234,-0.51083 1.027995,-0.57503 0.362655,-0.06 0.677686,0.1404 1.029405,0.17004 0.106539,0.009 0.209903,-0.12101 0.169686,-0.22296"
       style="fill:#87362d;fill-opacity:1;fill-rule:nonzero;stroke:none;stroke-width:0.0352778"
       id="path446" />
    <path
       d="m 65.499459,108.81971 c -0.116769,-0.0483 -0.309739,0.005 -0.388408,0.10266 -0.22225,0.27728 -0.195792,0.54116 -0.150636,0.87771 0.03916,0.2914 0.06209,0.58385 0.07655,0.87771 0.03634,0.74366 1.197327,0.74789 1.160639,0 -0.02963,-0.60536 -0.05151,-1.59103 -0.698148,-1.85808"
       style="fill:#040606;fill-opacity:1;fill-rule:nonzero;stroke:none;stroke-width:0.0352778"
       id="path448" />
    <path
       d="m 69.884134,107.62697 c -0.182739,-0.21026 -0.53093,-0.0871 -0.601133,0.1584 -0.148872,0.51929 -0.03845,1.16028 0.03775,1.68628 0.0247,0.17074 0.204964,0.32208 0.362656,0.36265 0.09525,0.0247 0.18168,0.0303 0.276225,0 0.229658,-0.0734 0.367947,-0.26352 0.381352,-0.50059 0.03246,-0.5708 -0.07303,-1.26577 -0.456847,-1.70674"
       style="fill:#040606;fill-opacity:1;fill-rule:nonzero;stroke:none;stroke-width:0.0352778"
       id="path450" />
    <path
       d="m 65.020387,109.41979 c -0.160161,0.10124 -0.325261,0.16474 -0.379942,0.35524 -0.01411,0.0483 0,0.10795 0.0374,0.14253 0.148167,0.13476 0.313619,0.10512 0.506589,0.10795 0.548922,0.007 0.292453,-0.8943 -0.164042,-0.60572"
       style="fill:#ffffff;fill-opacity:1;fill-rule:nonzero;stroke:none;stroke-width:0.0352778"
       id="path452" />
    <path
       d="m 69.240315,108.19494 c -0.160161,0.10125 -0.325261,0.16475 -0.379942,0.35525 -0.01376,0.0483 0,0.1083 0.03775,0.14252 0.148167,0.13476 0.31362,0.10513 0.506236,0.1076 0.548923,0.007 0.292806,-0.89394 -0.164041,-0.60537"
       style="fill:#ffffff;fill-opacity:1;fill-rule:nonzero;stroke:none;stroke-width:0.0352778"
       id="path454" />
    <path
       d="m 67.309209,112.60431 c 0,0 -2.827514,0.21837 -2.619022,0.774 0.208139,0.55562 0.933097,1.131 1.508478,0.87312 0.575028,-0.25788 1.656291,-1.64712 1.110544,-1.64712"
       style="fill:#ffffff;fill-opacity:1;fill-rule:nonzero;stroke:none;stroke-width:0.0352778"
       id="path456" />
    <path
       d="m 58.162387,109.6946 c -0.02081,-0.008 -0.635,-0.22401 -0.769408,0.70238 -0.134408,0.92604 1.456619,1.48661 1.561394,0.9712 0.104423,-0.51576 -0.403577,-1.51659 -0.791986,-1.67358"
       style="fill:#cfa762;fill-opacity:1;fill-rule:nonzero;stroke:none;stroke-width:0.0352778"
       id="path458" />
    <path
       d="m 70.891668,134.49558 c -0.595842,0.39758 -1.480256,0.26917 -2.161117,0.25788 -0.682272,-0.0113 -1.5621,0.0748 -2.156178,-0.30832 -0.364419,-0.23531 -0.848078,0.23742 -0.603955,0.6043 0.559505,0.83926 1.667933,0.75601 2.57563,0.79446 0.965553,0.0406 2.247195,0.25294 2.995083,-0.50659 0.414514,-0.42157 -0.129469,-1.18851 -0.649463,-0.84173"
       style="fill:#2a2120;fill-opacity:1;fill-rule:nonzero;stroke:none;stroke-width:0.0352778"
       id="path460" />
    <path
       d="m 66.201487,117.76369 c 0,0 -0.502708,11.09909 -3.677708,11.60215 -0.357364,0.23813 0.595489,0.71438 0.595489,0.71438 0,0 -0.198614,0.38347 0.06597,0.68791 0.264583,0.3041 0.635,0.29105 0.635,0.29105 0,0 2.487083,2.15617 2.354792,3.57187 0.582083,0.85972 4.907844,0.99201 5.503333,-0.37042 0.595136,-1.36278 -0.498828,-5.52873 -0.498828,-5.52873 l -0.136172,-0.42439 c 0,0 1.653469,-1.30987 1.164167,-3.29424 -0.489303,-1.98437 -1.389239,-2.3943 -1.389239,-2.3943 0,0 -0.965553,-4.15396 -1.613606,-4.45841 -0.648405,-0.30409 -0.926041,0.0663 -0.926041,0.0663 0,0 -0.635353,-0.54257 -1.071739,-0.29104 -0.06632,-0.22507 -0.595489,-0.50271 -1.005417,-0.17215"
       style="fill:#ae571f;fill-opacity:1;fill-rule:nonzero;stroke:none;stroke-width:0.0352778"
       id="path462" />
    <path
       d="m 59.362184,120.06556 c 0,0 9.703153,5.73476 11.806767,8.75136 0.367594,-1.4224 -6.230761,-8.23524 -11.390136,-9.26712 -0.258233,0 -0.416631,0.51576 -0.416631,0.51576"
       style="fill:#2a2120;fill-opacity:1;fill-rule:nonzero;stroke:none;stroke-width:0.0352778"
       id="path464" />
    <path
       d="m 68.274409,126.87805 c -0.04904,-0.18838 -0.284691,-0.19085 -0.385233,-0.0501 -0.365831,0.51153 -0.513997,1.11689 -0.951794,1.59597 -0.522112,0.57114 -1.283759,0.96908 -2.058459,1.02799 -0.16898,0.013 -0.169333,0.25047 0,0.26317 0.919339,0.0684 1.776236,-0.10795 2.488495,-0.72778 0.5588,-0.48648 1.107016,-1.34479 0.906991,-2.10926"
       style="fill:#8b451a;fill-opacity:1;fill-rule:nonzero;stroke:none;stroke-width:0.0352778"
       id="path466" />
    <path
       d="m 67.989012,119.03369 c -0.0053,-0.32562 -0.500592,-0.32597 -0.505883,0 -0.01658,1.01564 -0.137231,2.10643 0.06632,3.10726 0.03775,0.18486 0.335492,0.18486 0.373239,0 0.2032,-1.00118 0.0829,-2.09162 0.06632,-3.10726"
       style="fill:#8b451a;fill-opacity:1;fill-rule:nonzero;stroke:none;stroke-width:0.0352778"
       id="path468" />
    <path
       d="m 69.035704,119.60589 c -0.08925,-0.28892 -0.54222,-0.16651 -0.454731,0.12524 0.117828,0.3937 0.215547,0.79163 0.2794,1.19803 0.06456,0.40922 0.06773,0.80504 0.211314,1.19662 0.04516,0.12383 0.221897,0.13512 0.263172,0 0.239536,-0.78528 -0.06456,-1.76036 -0.299155,-2.51989"
       style="fill:#8b451a;fill-opacity:1;fill-rule:nonzero;stroke:none;stroke-width:0.0352778"
       id="path470" />
    <path
       d="m 69.460448,130.24391 c -0.348192,0.51223 -0.508,1.15005 -0.820208,1.69227 -0.34537,0.59937 -0.762,1.14582 -1.232959,1.65206 -0.151694,0.16334 0.09137,0.40816 0.245887,0.24553 0.496358,-0.52352 0.938036,-1.08973 1.304572,-1.71203 0.314325,-0.5334 0.704144,-1.18286 0.738364,-1.81433 0.0074,-0.13371 -0.170039,-0.16017 -0.235656,-0.0635"
       style="fill:#8b451a;fill-opacity:1;fill-rule:nonzero;stroke:none;stroke-width:0.0352778"
       id="path472" />
    <path
       d="m 70.223859,131.91995 c -0.246944,0.26071 -0.391936,0.61666 -0.586669,0.91723 -0.227542,0.35207 -0.46602,0.69461 -0.728839,1.02129 -0.200025,0.248 0.148872,0.60466 0.354189,0.35419 0.263172,-0.32033 0.517172,-0.65088 0.736247,-1.00295 0.206022,-0.33091 0.474839,-0.71932 0.536222,-1.10913 0.02646,-0.16899 -0.17145,-0.32844 -0.31115,-0.18063"
       style="fill:#8b451a;fill-opacity:1;fill-rule:nonzero;stroke:none;stroke-width:0.0352778"
       id="path474" />
    <path
       d="m 75.990365,106.52489 c 0,0 -2.153003,-0.30762 -2.291998,0.42651 -0.138994,0.73448 1.146175,0.88618 1.146175,0.88618 0,0 -1.046691,0.20532 -0.888294,0.75106 0.15875,0.54575 1.012119,0.53587 1.012119,0.53587 0,0 -1.21038,0.59514 -0.555625,0.98214 0.654756,0.38699 1.240367,0.20849 1.210381,0.22824 -0.02963,0.0198 -1.160639,0.53587 -0.555625,0.87313 0.605367,0.33725 1.597378,0.35701 1.627364,0.35701 0.02963,0 0.760589,11.26137 3.062464,10.57345 2.301875,-0.68791 -0.919339,-15.32572 -3.766961,-15.61359"
       style="fill:#fbc772;fill-opacity:1;fill-rule:nonzero;stroke:none;stroke-width:0.0352778"
       id="path476" />
    <path
       d="m 74.15204,93.937782 c 0,0 0.0321,2.262364 0.0822,2.275769 0.05009,0.01305 1.148292,-0.172155 1.148292,-0.172155 l -0.291042,-2.103614 0.9525,-1.865136 -1.891947,-4.7625 -1.058334,5.040136 1.058334,1.5875"
       style="fill:#6996a7;fill-opacity:1;fill-rule:nonzero;stroke:none;stroke-width:0.0352778"
       id="path478" />
    <path
       d="m 73.093706,92.350282 c 0,0 1.322917,-1.283053 1.230489,-2.817636 0.0046,-0.06597 0.529167,2.196041 1.719792,2.54 l -1.891947,-4.7625 -1.058334,5.040136"
       style="fill:#80bacd;fill-opacity:1;fill-rule:nonzero;stroke:none;stroke-width:0.0352778"
       id="path480" />
    <path
       d="m 70.157184,138.91518 c -1.681691,2.31528 -2.945694,5.01933 -4.452408,7.45702 -1.521883,2.46345 -3.100211,4.88386 -4.763205,7.25452 -0.164748,0.2346 0.215194,0.44768 0.381352,0.2226 1.778706,-2.41158 3.509081,-4.86445 5.125156,-7.38928 1.491897,-2.33045 3.198283,-4.75262 4.216752,-7.33072 0.124178,-0.31468 -0.337255,-0.44838 -0.507647,-0.21414"
       style="fill:#8b451a;fill-opacity:1;fill-rule:nonzero;stroke:none;stroke-width:0.0352778"
       id="path482" />
    <path
       d="m 69.557815,144.61607 c -0.932039,2.64795 -1.567392,5.40209 -2.482497,8.06097 -0.07832,0.22825 0.277283,0.32138 0.358775,0.0991 0.960261,-2.61055 2.018594,-5.30718 2.530122,-8.04791 0.04974,-0.26635 -0.315736,-0.37007 -0.4064,-0.11219"
       style="fill:#8b451a;fill-opacity:1;fill-rule:nonzero;stroke:none;stroke-width:0.0352778"
       id="path484" />
    <path
       d="m 71.945768,144.03681 c -0.02081,-0.17392 -0.309739,-0.25858 -0.341137,-0.0462 -0.385938,2.62819 -0.15875,5.45006 -0.160161,8.10295 -3.52e-4,0.28469 0.433917,0.28399 0.441325,0 0.06844,-2.63631 0.373945,-5.43701 0.05997,-8.05674"
       style="fill:#8b451a;fill-opacity:1;fill-rule:nonzero;stroke:none;stroke-width:0.0352778"
       id="path486" />
    <path
       d="m 53.728323,187.99151 c 0,0 0.960614,-0.85407 2.002367,-0.95321 1.041753,-0.0995 1.969911,1.12784 1.969911,1.12784 0,0 -0.59443,-1.58045 -1.192741,-2.58445 -0.01799,-0.28082 0.08819,-1.0915 0.08819,-1.0915 0,0 -0.8001,-0.41769 -1.601964,0.0384 0,0 -0.136525,1.18992 -0.255764,1.47779 -0.118886,0.28751 -0.945444,1.62454 -1.010003,1.98508"
       style="fill:#e1522f;fill-opacity:1;fill-rule:nonzero;stroke:none;stroke-width:0.0352778"
       id="path488" />
    <path
       d="m 68.108251,187.23022 0.843139,1.67252 c 0,0 1.576564,0.0557 1.628775,0.0568 0.05256,0.001 0.8763,-1.80975 0.8763,-1.80975 0,0 -1.47567,-0.90381 -1.483078,-1.10596 -0.0074,-0.20143 -0.01764,-1.73178 -0.01764,-1.73178 0,0 -1.369836,0.0649 -1.860197,0.21837 0,0 0.301625,1.36384 0.271639,1.7526 -0.02963,0.38876 -0.258939,0.94721 -0.258939,0.94721"
       style="fill:#e1522f;fill-opacity:1;fill-rule:nonzero;stroke:none;stroke-width:0.0352778"
       id="path490" />
    <path
       d="m 61.442515,104.50312 c -0.299861,0.15593 -0.542572,0.39653 -0.912989,0.30657 -0.341489,-0.0833 -0.655461,-0.50977 -0.593372,-0.86008 0.04022,-0.2293 -0.283986,-0.32702 -0.354189,-0.0974 -0.195086,0.63747 0.01129,1.32574 0.681919,1.56563 0.559153,0.20002 1.433689,-0.0557 1.495778,-0.73272 0.01517,-0.16898 -0.187678,-0.24906 -0.317147,-0.18204"
       style="fill:#712e26;fill-opacity:1;fill-rule:nonzero;stroke:none;stroke-width:0.0352778"
       id="path492" />
    <path
       d="m 64.106693,100.44547 c -0.582789,-0.38206 -1.346553,-0.44344 -1.85032,0.16651 -0.504119,0.61102 -0.304447,1.52506 0.484717,1.73708 0.270228,0.0727 0.391583,-0.28046 0.18168,-0.43039 -0.415572,-0.29704 -0.5461,-0.95955 0.134762,-1.19486 0.369005,-0.12735 0.768702,0.12348 0.998713,0.38136 0.126295,0.14217 0.430742,0.0836 0.458964,-0.12101 -3.52e-4,-0.41521 0.293511,-0.61101 0.881592,-0.58702 0.214136,0.17745 0.331258,0.39511 0.350661,0.65335 0.06174,0.33514 0.527756,0.21942 0.555625,-0.0751 0.131233,-1.399121 -1.679222,-1.588916 -2.196394,-0.52988"
       style="fill:#712e26;fill-opacity:1;fill-rule:nonzero;stroke:none;stroke-width:0.0352778"
       id="path494" />
    <path
       d="m 60.171104,107.51338 c -0.333022,-0.19192 -0.762353,0.0416 -0.899583,-0.46108 -0.113948,-0.4184 0.245886,-0.84844 0.596547,-1.03153 0.257175,-0.13405 0.06174,-0.46496 -0.181681,-0.43074 -0.823383,0.11677 -1.344789,0.94827 -1.072444,1.75825 0.116769,0.34713 0.408516,0.62935 0.758472,0.7373 0.327378,0.1016 0.804333,0.0917 0.906992,-0.30621 0.02611,-0.10054 -0.01693,-0.21343 -0.108303,-0.26599"
       style="fill:#712e26;fill-opacity:1;fill-rule:nonzero;stroke:none;stroke-width:0.0352778"
       id="path496" />
    <path
       d="m 55.855221,106.63249 c -0.19297,0.0444 -0.308328,0.19897 -0.496711,0.25647 -0.234598,0.072 -0.480837,0.0131 -0.670984,-0.13758 -0.474133,-0.37571 -0.441678,-1.02447 -0.191558,-1.51483 0.09419,-0.18415 -0.167922,-0.34008 -0.278342,-0.16263 -0.42298,0.67909 -0.484716,1.61678 0.184503,2.16499 0.454378,0.37219 1.738489,0.45403 1.751189,-0.37923 0.0025,-0.1584 -0.152047,-0.2607 -0.298097,-0.22719"
       style="fill:#712e26;fill-opacity:1;fill-rule:nonzero;stroke:none;stroke-width:0.0352778"
       id="path498" />
    <path
       d="m 60.153112,99.683473 c -0.274108,-0.554214 -1.029053,-0.635352 -1.553986,-0.391583 -0.504119,0.234244 -0.766586,0.71543 -0.841022,1.23296 -0.49777,-0.21625 -1.084792,-0.127 -1.469672,0.33584 -0.558447,0.67099 -0.333375,1.54341 0.239183,2.11385 0.145345,0.14464 0.364772,-0.0759 0.22472,-0.22437 -0.273756,-0.28963 -0.58032,-0.7934 -0.401462,-1.22096 0.236362,-0.5648 0.979664,-1.01212 1.430867,-0.34431 0.142875,0.21131 0.541514,0.15592 0.5207,-0.14112 -0.07373,-1.057271 0.625828,-1.523996 1.5113,-1.02093 0.225425,0.12805 0.446969,-0.122418 0.339372,-0.339377"
       style="fill:#712e26;fill-opacity:1;fill-rule:nonzero;stroke:none;stroke-width:0.0352778"
       id="path500" />
    <path
       d="m 58.684851,113.43263 c -0.160514,0.0741 -0.312561,0.18486 -0.491772,0.20603 -0.282575,0.0332 -0.560564,-0.1203 -0.638528,-0.38524 0.151695,-0.13017 0.189795,-0.35277 0.03387,-0.51999 -0.03316,-0.0356 -0.06632,-0.0709 -0.09948,-0.10654 -0.138641,-0.14887 -0.354188,-0.0797 -0.444852,0.0769 -0.568678,0.18026 -1.2446,0.32349 -1.550106,-0.35455 -0.267053,-0.59302 -0.02469,-1.23401 0.271992,-1.76318 0.156633,-0.2794 -0.245886,-0.50482 -0.424039,-0.24765 -0.542572,0.78246 -0.949678,1.74343 -0.339725,2.61549 0.481189,0.68722 1.230842,0.70521 1.950156,0.52459 0.05962,0.34219 0.255058,0.64593 0.617008,0.81068 0.54998,0.25047 1.335264,0.0571 1.457678,-0.59337 0.03951,-0.2085 -0.153459,-0.35066 -0.342195,-0.26318"
       style="fill:#712e26;fill-opacity:1;fill-rule:nonzero;stroke:none;stroke-width:0.0352778"
       id="path502" />
    <path
       d="m 55.245621,114.84445 c -0.199673,-0.22366 -0.546806,-0.23636 -0.775406,-0.43074 -0.29845,-0.2533 -0.339725,-0.64735 -0.212372,-0.9973 0.118886,-0.32597 -0.428272,-0.56268 -0.566561,-0.23883 -0.239184,0.5595 -0.194734,1.19133 0.223308,1.65805 0.306917,0.34325 1.009297,0.68298 1.359253,0.22825 0.05045,-0.0653 0.02046,-0.16475 -0.02822,-0.21943"
       style="fill:#712e26;fill-opacity:1;fill-rule:nonzero;stroke:none;stroke-width:0.0352778"
       id="path504" />
  </g>
</svg>
