<?xml version="1.0" encoding="UTF-8" standalone="no"?>
<!-- Created with Inkscape (http://www.inkscape.org/) -->

<svg
   width="52.397793mm"
   height="98.524979mm"
   viewBox="0 0 52.397793 98.524979"
   version="1.1"
   id="svg3818"
   inkscape:version="1.2 (dc2aeda, 2022-05-15)"
   sodipodi:docname="dionysus.svg"
   xmlns:inkscape="http://www.inkscape.org/namespaces/inkscape"
   xmlns:sodipodi="http://sodipodi.sourceforge.net/DTD/sodipodi-0.dtd"
   xmlns="http://www.w3.org/2000/svg"
   xmlns:svg="http://www.w3.org/2000/svg">
  <sodipodi:namedview
     id="namedview3820"
     pagecolor="#ffffff"
     bordercolor="#666666"
     borderopacity="1.0"
     inkscape:showpageshadow="2"
     inkscape:pageopacity="0.0"
     inkscape:pagecheckerboard="0"
     inkscape:deskcolor="#d1d1d1"
     inkscape:document-units="mm"
     showgrid="false"
     inkscape:zoom="0.914906"
     inkscape:cx="278.71716"
     inkscape:cy="297.8448"
     inkscape:window-width="1390"
     inkscape:window-height="1205"
     inkscape:window-x="2240"
     inkscape:window-y="25"
     inkscape:window-maximized="0"
     inkscape:current-layer="layer1" />
  <defs
     id="defs3815" />
  <g
     inkscape:label="Layer 1"
     inkscape:groupmode="layer"
     id="layer1"
     transform="translate(-31.350281,-69.595345)">
    <path
       d="m 35.017411,79.738764 c 0,0 -0.635353,3.294239 -1.375833,3.955697 -0.740834,0.661459 -2.368197,0.674511 -2.28847,0.939095 0.07902,0.264583 5.423959,2.38125 6.799439,1.138061 -0.33408,-0.423334 -2.116667,-0.410281 -2.341386,-1.984375 -0.224719,-1.574447 0.198614,-3.585281 0.198614,-3.585281 l -0.992364,-0.463197"
       style="fill:#f6842d;fill-opacity:1;fill-rule:nonzero;stroke:none;stroke-width:0.0352778"
       id="path1016" />
    <path
       d="m 52.982619,151.94355 c 0,0 9.472083,2.35797 13.335,-1.52012 3.704166,0.25012 8.67798,-3.03036 7.46125,-9.90952 -1.217084,-6.87917 -19.579167,7.19631 -20.79625,11.42964"
       style="fill:#6487bf;fill-opacity:1;fill-rule:nonzero;stroke:none;stroke-width:0.0352778"
       id="path1018" />
    <path
       d="m 54.550716,147.15036 c 0,0 -10.696222,17.7316 -11.119555,17.96973 -0.423333,0.23787 -2.619375,1.50787 -2.487083,1.82537 0.132291,0.31775 5.34423,0.71463 5.318124,0.21167 -0.02646,-0.50271 -0.343958,-1.61371 -0.343958,-1.61371 0,0 13.255625,-17.1795 13.414375,-17.95597 0.15875,-0.77681 -4.781903,-0.43709 -4.781903,-0.43709"
       style="fill:#fbc772;fill-opacity:1;fill-rule:nonzero;stroke:none;stroke-width:0.0352778"
       id="path1020" />
    <path
       d="m 69.945233,133.37016 c 0,0 3.799416,9.13553 1.841147,15.0622 -1.957917,5.92663 -7.532511,18.97736 -7.109531,19.2804 0.423686,0.30328 5.989108,0.74108 6.090356,0 0.101247,-0.74059 -2.280003,-1.85209 -2.280003,-1.85209 0,0 6.681258,-12.43968 7.633758,-18.47218 0.952147,-6.0325 -2.064455,-20.73169 -2.064455,-20.73169 l -4.111272,6.71336"
       style="fill:#fbc772;fill-opacity:1;fill-rule:nonzero;stroke:none;stroke-width:0.0352778"
       id="path1022" />
    <path
       d="m 58.326849,124.50662 c 0,0 -2.301522,2.35443 -2.38125,4.07423 -0.07902,1.71979 1.4097,1.00541 1.419225,1.90535 0.0099,0.89958 -4.065058,13.0436 -6.551788,16.27187 -2.487084,3.22757 -5.609167,4.23334 -4.445,6.29677 1.164166,2.06375 12.594166,-0.3701 18.626666,-7.77843 0,3.59833 4.868333,-1.21744 8.625417,-7.46161 3.75673,-6.24416 2.257777,-15.56667 -0.9525,-15.92756 0.687916,-1.00577 0.273755,-2.98803 -1.900414,-2.3936 -2.17417,0.59408 -12.440356,5.01298 -12.440356,5.01298"
       style="fill:#78a2db;fill-opacity:1;fill-rule:nonzero;stroke:none;stroke-width:0.0352778"
       id="path1024" />
    <path
       d="m 76.080743,96.500294 c 0,0 -3.055761,5.957716 -7.183613,4.268256 -4.1275,-1.688745 -5.186539,-4.268256 -5.186539,-4.268256 l 0.472017,4.958296 c 0,0 4.198408,3.77013 7.532511,2.75978 3.33375,-1.01071 5.754511,-4.582587 5.754511,-4.582587 l -1.388887,-3.135489"
       style="fill:#cfa762;fill-opacity:1;fill-rule:nonzero;stroke:none;stroke-width:0.0352778"
       id="path1026" />
    <path
       d="m 34.329494,72.807034 c 0.02646,0.03951 1.455209,-0.251531 1.997428,-0.84702 0.542572,-0.595136 0.842081,-1.710619 1.825625,-1.666522 0.886531,0.03951 0.701322,1.209322 0.701322,1.209322 0,0 1.044928,-0.720372 1.362781,0.444147 0.317147,1.164167 -0.701322,1.786114 -1.759656,1.97097 -1.058333,0.185561 -4.1275,-1.110897 -4.1275,-1.110897"
       style="fill:#981a23;fill-opacity:1;fill-rule:nonzero;stroke:none;stroke-width:0.0352778"
       id="path1028" />
    <path
       d="m 40.0833,69.595345 c -0.679803,0 -0.681214,1.056922 0,1.056922 0.679803,0 0.680861,-1.056922 0,-1.056922"
       style="fill:#981a23;fill-opacity:1;fill-rule:nonzero;stroke:none;stroke-width:0.0352778"
       id="path1030" />
    <path
       d="m 41.16915,70.574656 c -0.472722,0 -0.473428,0.73413 0,0.73413 0.472369,0 0.473075,-0.73413 0,-0.73413"
       style="fill:#981a23;fill-opacity:1;fill-rule:nonzero;stroke:none;stroke-width:0.0352778"
       id="path1032" />
    <path
       d="m 31.511858,72.8663 c 0,0 -0.674864,5.476875 4.028017,6.052256 4.703233,0.575733 4.960761,-4.782256 4.782255,-5.377392 -0.178152,-0.595489 -5.02038,-1.845733 -8.810272,-0.674864"
       style="fill:#f6842d;fill-opacity:1;fill-rule:nonzero;stroke:none;stroke-width:0.0352778"
       id="path1034" />
    <path
       d="m 38.865511,73.748245 c -0.119944,-0.253647 -0.566208,-0.19932 -0.616656,0.08043 -0.120297,0.671336 -0.06773,1.284817 -0.439913,1.895828 -0.306917,0.504825 -0.853017,0.726016 -1.163462,1.199797 -0.142169,0.216606 0.04727,0.484011 0.282575,0.492478 0.710848,0.02575 1.372659,-0.761647 1.689453,-1.330325 0.381,-0.683331 0.594784,-1.607608 0.248003,-2.338211"
       style="fill:#f4f584;fill-opacity:1;fill-rule:nonzero;stroke:none;stroke-width:0.0352778"
       id="path1036" />
    <path
       d="m 50.521641,96.420919 c 0,0 -9.048397,1.771297 -12.024783,-0.702028 -2.976739,-2.472972 -1.270353,-15.195902 -1.270353,-15.195902 0,0 1.686631,-1.82245 1.468614,-2.437694 -0.218369,-0.615245 -1.964619,0.41663 -2.182636,0.377119 -0.218722,-0.03986 -2.064102,-1.766358 -2.520244,-1.607608 -0.456495,0.159103 0,1.071386 0,1.071386 0,0 -1.388886,-0.952147 -1.547989,-0.475897 -0.15875,0.475897 2.262011,3.01625 2.301875,3.551766 0.03986,0.536222 -2.482144,14.863233 1.606197,17.680869 4.089047,2.81799 11.431411,1.90535 11.431411,1.90535 0,0 0,5.83389 3.452636,12.02514 3.452636,6.1909 5.040136,9.04875 5.040136,9.04875 l 10.437989,-7.26299 -5.23875,-16.934391 -10.954103,-1.04387"
       style="fill:#fbc772;fill-opacity:1;fill-rule:nonzero;stroke:none;stroke-width:0.0352778"
       id="path1038" />
    <path
       d="m 71.25051,119.66086 c -0.982839,0.59408 -1.782233,1.44851 -2.763661,2.06375 -1.076678,0.67522 -2.242255,1.21003 -3.450166,1.6062 -1.214967,0.39793 -2.464506,0.62759 -3.739092,0.73448 -1.002594,0.084 -2.072922,-0.12982 -3.031772,0.15875 -0.2032,0.061 -0.236361,0.33267 -0.05786,0.44415 1.904295,1.19027 5.38092,0.36018 7.377642,-0.2794 2.200628,-0.7052 5.051777,-2.04717 6.326716,-4.06612 0.259998,-0.41134 -0.253647,-0.9084 -0.661811,-0.66181"
       style="fill:#6487bf;fill-opacity:1;fill-rule:nonzero;stroke:none;stroke-width:0.0352778"
       id="path1040" />
    <path
       d="m 70.755563,118.76198 c -0.02575,-0.27058 -0.429683,-0.45931 -0.572911,-0.15487 -2.020006,4.28802 -8.244064,5.93655 -12.60475,5.55449 -0.243064,-0.0215 -0.298803,0.38135 -0.05786,0.42862 2.796822,0.54928 5.564716,0.39088 8.206316,-0.76447 1.867253,-0.81738 5.263444,-2.62537 5.0292,-5.06377"
       style="fill:#3a1d20;fill-opacity:1;fill-rule:nonzero;stroke:none;stroke-width:0.0352778"
       id="path1042" />
    <path
       d="m 61.886377,97.544869 c 0,0 -2.553758,18.402301 -7.078133,22.450071 -1.508478,2.02459 1.42875,2.50049 1.42875,2.50049 0,0 -1.11125,0.91299 -0.159103,1.86514 0.952853,0.95285 2.584803,0.19861 2.584803,0.19861 0,0 13.012561,-1.66688 14.24305,-7.42139 1.230136,-5.75486 -6.151739,-8.33437 -6.19125,-8.92986 -0.03951,-0.59514 0,-8.267347 -1.825625,-11.217627 -1.825625,-2.950634 -3.002492,0.554566 -3.002492,0.554566"
       style="fill:#78a2db;fill-opacity:1;fill-rule:nonzero;stroke:none;stroke-width:0.0352778"
       id="path1044" />
    <path
       d="m 52.373725,84.726336 c 0,0 -1.726495,-0.621947 -1.498248,-1.600553 0.2286,-0.979311 1.194153,-1.09855 1.194153,-1.09855 0,0 -0.621947,-0.884766 0.07973,-1.361722 0.700969,-0.476603 2.526594,0.39617 2.526594,0.39617 L 65.682619,85.5663 c 0,0 1.21038,-0.525992 1.518002,0.456494 0.307623,0.982134 -0.327377,1.408995 -0.3175,1.438628 0.0099,0.02999 1.091495,1.438628 -0.228247,2.262364 -1.319389,0.823383 -14.281149,-4.99745 -14.281149,-4.99745"
       style="fill:#3a1d20;fill-opacity:1;fill-rule:nonzero;stroke:none;stroke-width:0.0352778"
       id="path1046" />
    <path
       d="m 52.7706,86.247514 c 0,0 -2.102909,0.185561 -1.65347,-1.666522 0.449792,-1.852084 2.262364,-1.043164 2.262364,-1.043164 0,0 -1.329267,-4.301772 1.944864,-6.048022 3.27413,-1.74625 10.239022,-1.349375 10.933641,4.147608 0.69462,5.49663 -0.496005,7.064022 -0.496005,7.064022 0,0 2.169583,-0.535517 1.984375,1.316567 -0.185209,1.852083 -1.746603,1.732844 -2.460625,1.177572 0,0 -0.899584,2.857147 -2.804584,3.175 -1.905352,0.317147 -8.572499,-2.75202 -9.366249,-4.1275 C 52.321161,88.866889 52.7706,86.247514 52.7706,86.247514"
       style="fill:#fbc772;fill-opacity:1;fill-rule:nonzero;stroke:none;stroke-width:0.0352778"
       id="path1048" />
    <path
       d="m 53.391488,84.198581 c 0,0 -1.030816,-0.560211 -1.538816,0.23883 -0.508,0.799395 -0.08961,1.576211 0.814564,1.494367 0.903816,-0.08255 0.724252,-1.733197 0.724252,-1.733197"
       style="fill:#cfa762;fill-opacity:1;fill-rule:nonzero;stroke:none;stroke-width:0.0352778"
       id="path1050" />
    <path
       d="m 65.760583,89.313506 c 0,0 1.334558,-0.189442 1.434041,0.542924 0.09948,0.732014 -0.811741,1.503892 -1.593497,1.016 -0.782108,-0.488244 -0.01588,-1.542697 0.159456,-1.558924"
       style="fill:#cfa762;fill-opacity:1;fill-rule:nonzero;stroke:none;stroke-width:0.0352778"
       id="path1052" />
    <path
       d="m 53.86915,83.429878 c 0,0 0.06597,4.828822 0.105833,4.85528 0.03951,0.02611 0.674511,-0.72778 1.150761,-0.833966 0.47625,-0.105481 1.137708,0.357364 1.137708,0.357364 0,0 0.595136,-0.502709 1.349375,-0.370417 0.754239,0.132292 1.402292,0.847372 1.402292,0.847372 0,0 1.957564,0.131939 2.963333,1.004711 1.005417,0.873125 1.322917,2.38125 1.322917,2.38125 0,0 0.09278,-0.409928 0.595489,-0.198261 0.277636,-0.661458 1.825272,-3.42653 1.957563,-3.10903 0.132292,0.317852 -0.119238,3.320344 -0.555625,4.008613 1.058334,1.49472 1.706739,5.992636 -1.388886,4.881739 0.211667,4.047777 -3.571875,4.206527 -4.286249,2.751317 -1.16452,2.40806 -5.159375,1.48202 -5.159375,-0.317503 -2.936875,1.322913 -4.841875,-0.422981 -4.736395,-2.962981 -2.989439,-0.185561 -3.439583,-5.186186 0.21202,-6.614583 -1.322917,-1.455208 -0.767292,-3.730977 2.526594,-3.552472 -0.73413,-0.753886 1.276703,-3.518605 1.402645,-3.128433"
       style="fill:#3a1d20;fill-opacity:1;fill-rule:nonzero;stroke:none;stroke-width:0.0352778"
       id="path1054" />
    <path
       d="m 59.501247,85.050539 c 0,0 -2.060223,3.75038 -1.954389,4.22663 0.10548,0.47625 2.936875,1.984375 3.425825,1.283053 0.489655,-0.700969 0.278341,-5.106458 0.119239,-5.423958 -0.15875,-0.317147 -1.419225,-0.401461 -1.590675,-0.08572"
       style="fill:#f57f4a;fill-opacity:1;fill-rule:nonzero;stroke:none;stroke-width:0.0352778"
       id="path1056" />
    <path
       d="m 58.557566,85.011381 c -0.60078,-0.732367 -2.285294,-1.012473 -2.778125,-0.0071 -0.07796,0.158044 0.04939,0.328083 0.224014,0.291394 0.364419,-0.07691 0.680861,-0.27058 1.066447,-0.239536 0.385939,0.03104 0.658989,0.256117 0.928511,0.51435 0.09666,0.09278 0.252589,0.148873 0.384881,0.1016 0.112183,-0.03986 0.170392,-0.08361 0.236361,-0.181327 0.104422,-0.155928 0.04516,-0.348192 -0.06209,-0.479425"
       style="fill:#040606;fill-opacity:1;fill-rule:nonzero;stroke:none;stroke-width:0.0352778"
       id="path1058" />
    <path
       d="m 63.413552,86.05525 c -0.42298,-0.145697 -1.263297,-0.183444 -1.511653,0.268111 -0.05891,0.106539 0,0.208492 0.101953,0.251531 0.304095,0.127 0.65405,-0.08784 0.978958,-0.0568 0.186973,0.01799 0.358423,0.08185 0.484012,0.226837 0.11183,0.129822 0.136525,0.299155 0.239536,0.433916 0.09772,0.127706 0.329847,0.182386 0.415219,0 0.236361,-0.503414 -0.258586,-0.968728 -0.708025,-1.123597"
       style="fill:#040606;fill-opacity:1;fill-rule:nonzero;stroke:none;stroke-width:0.0352778"
       id="path1060" />
    <path
       d="m 59.798638,80.684914 c -0.07232,0.02752 -3.492147,1.647119 -3.095272,2.2225 0.396875,0.575028 3.988506,0.188383 4.147256,-0.555978 0.15875,-0.744008 -0.585259,-1.84538 -1.051984,-1.666522"
       style="fill:#3a1d20;fill-opacity:1;fill-rule:nonzero;stroke:none;stroke-width:0.0352778"
       id="path1062" />
    <path
       d="m 64.835952,84.646961 c 0,0 -1.197328,-2.652536 -1.703211,-2.722386 -0.506236,-0.06914 -1.230489,0.823736 -1.031875,1.538464 0.198261,0.714022 3.247672,2.586214 2.735086,1.183922"
       style="fill:#3a1d20;fill-opacity:1;fill-rule:nonzero;stroke:none;stroke-width:0.0352778"
       id="path1064" />
    <path
       d="m 55.998869,89.95168 c 0.09878,0.231423 3.042708,2.049992 4.021667,2.473678 0,0 -0.85972,2.064103 -3.452989,1.442156 -2.592564,-0.621595 -0.648053,-4.101042 -0.568678,-3.915834"
       style="fill:#ffffff;fill-opacity:1;fill-rule:nonzero;stroke:none;stroke-width:0.0352778"
       id="path1066" />
    <path
       d="m 53.120202,93.326 c -0.437797,-0.197556 -1.10878,-0.02999 -1.46685,-0.414867 -0.183091,-0.197203 -0.122766,-0.521405 -0.110066,-0.772936 0.01199,-0.23883 -0.03034,-0.580672 0.0769,-0.802922 0.07514,-0.156281 0.0127,-0.32632 -0.155928,-0.382411 -0.470252,-0.156634 -0.591961,0.363361 -0.624063,0.709083 -0.0441,0.481895 -0.153106,1.068564 0.07232,1.521531 0.303742,0.609952 2.033764,1.319036 2.303286,0.377825 0.02328,-0.08079 -0.01376,-0.198261 -0.0956,-0.235303"
       style="fill:#2c1619;fill-opacity:1;fill-rule:nonzero;stroke:none;stroke-width:0.0352778"
       id="path1068" />
    <path
       d="m 55.261211,97.24395 c -0.51435,0.104422 -0.9398,0.384528 -1.486606,0.215194 -0.618067,-0.191205 -0.957439,-0.825147 -0.953205,-1.441803 0.0018,-0.235655 -0.330906,-0.222602 -0.357012,0 -0.09243,0.792339 0.305859,1.563512 1.027642,1.921934 0.61595,0.305505 1.656644,0.306211 2.007658,-0.385586 0.08573,-0.168981 -0.05503,-0.346781 -0.238477,-0.309739"
       style="fill:#2c1619;fill-opacity:1;fill-rule:nonzero;stroke:none;stroke-width:0.0352778"
       id="path1070" />
    <path
       d="m 60.176816,96.268872 c -0.04022,-0.183092 -0.279753,-0.183797 -0.371828,-0.04868 -0.275166,0.404989 -0.454377,0.702733 -1.022702,0.696383 -0.442384,-0.0046 -0.856545,-0.214136 -1.245306,-0.402872 -0.308328,-0.149578 -0.579967,0.307975 -0.270228,0.462491 0.618067,0.308681 1.308453,0.629356 2.014714,0.440973 0.504472,-0.134409 1.017764,-0.588081 0.89535,-1.148292"
       style="fill:#2c1619;fill-opacity:1;fill-rule:nonzero;stroke:none;stroke-width:0.0352778"
       id="path1072" />
    <path
       d="m 63.297841,93.370097 c -0.07549,-0.283986 -0.566914,-0.323497 -0.615244,0 -0.04692,0.314325 -0.0064,0.740128 -0.248356,0.985308 -0.301978,0.305859 -0.666397,-0.07338 -0.880533,-0.295275 -0.210961,-0.218369 -0.508,0.100189 -0.32632,0.32632 0.357717,0.444147 0.892175,0.917575 1.49472,0.612422 0.593019,-0.300919 0.734483,-1.03258 0.575733,-1.628775"
       style="fill:#2c1619;fill-opacity:1;fill-rule:nonzero;stroke:none;stroke-width:0.0352778"
       id="path1074" />
    <path
       d="m 61.886377,97.544869 c -0.183444,-0.178153 -0.331611,-0.02434 -0.454378,0.127706 -0.26035,0.323144 -0.664986,0.303389 -1.042105,0.272344 -0.357717,-0.02999 -0.352425,0.521759 0,0.555625 0.621947,0.05927 1.332089,-0.02928 1.564216,-0.701675 0.02928,-0.08537 -0.0039,-0.192616 -0.06773,-0.254"
       style="fill:#2c1619;fill-opacity:1;fill-rule:nonzero;stroke:none;stroke-width:0.0352778"
       id="path1076" />
    <path
       d="m 54.152783,89.905114 c 0.245886,-0.216606 -0.07267,-0.623358 -0.348545,-0.452261 -0.7747,0.481894 -0.605013,1.499658 -0.02857,2.0701 0.06103,0.06068 0.159103,0.09172 0.243064,0.06456 0.283634,-0.09349 0.14605,-0.373239 0.05786,-0.566561 -0.169333,-0.373592 -0.275167,-0.807156 0.0762,-1.115836"
       style="fill:#2c1619;fill-opacity:1;fill-rule:nonzero;stroke:none;stroke-width:0.0352778"
       id="path1078" />
    <path
       d="m 51.976497,87.360881 c -0.347839,0.04339 -0.669925,0.171802 -0.886884,0.457552 -0.21343,0.280811 -0.310091,0.73907 -0.08537,1.039636 0.09878,0.132292 0.323497,0.135114 0.371475,-0.04868 0.1143,-0.43568 0.135114,-0.882297 0.661106,-1.000125 0.245886,-0.05503 0.197555,-0.480483 -0.06032,-0.44838"
       style="fill:#2c1619;fill-opacity:1;fill-rule:nonzero;stroke:none;stroke-width:0.0352778"
       id="path1080" />
    <path
       d="m 50.144875,95.444078 c -0.162984,-0.227895 -0.445206,-0.282575 -0.591609,-0.541162 -0.18803,-0.331611 -0.155222,-0.749652 -0.140758,-1.116188 0.01129,-0.291748 -0.433211,-0.287867 -0.451556,0 -0.03104,0.487891 -0.04833,1.015294 0.226131,1.444625 0.17145,0.268463 0.578203,0.654755 0.906286,0.409575 0.05786,-0.04304 0.100894,-0.128059 0.05151,-0.19685"
       style="fill:#2c1619;fill-opacity:1;fill-rule:nonzero;stroke:none;stroke-width:0.0352778"
       id="path1082" />
    <path
       d="m 61.939294,79.586011 c -0.69462,-0.242005 -1.398411,-0.128058 -2.049639,0.185209 -0.202494,0.09737 -0.05891,0.44838 0.155222,0.367241 0.591961,-0.225425 1.206147,-0.239183 1.794581,0.01376 0.404989,0.173566 0.6604,0.551391 1.0668,0.687563 0.100541,0.03387 0.239536,-0.05891 0.22613,-0.172155 -0.06703,-0.555625 -0.703791,-0.911931 -1.193094,-1.081617"
       style="fill:#cfa762;fill-opacity:1;fill-rule:nonzero;stroke:none;stroke-width:0.0352778"
       id="path1084" />
    <path
       d="m 62.220458,78.72735 c -0.398639,-0.159103 -0.841375,-0.158044 -1.249539,-0.03528 -0.264231,0.08008 -0.151695,0.452262 0.11183,0.407106 0.357717,-0.06174 0.7112,0.01341 1.03117,0.179564 0.246944,0.128764 0.427919,0.380294 0.710141,0.415572 0.09631,0.01199 0.156281,-0.08678 0.165806,-0.166511 0.04727,-0.383822 -0.469547,-0.680508 -0.769408,-0.800453"
       style="fill:#cfa762;fill-opacity:1;fill-rule:nonzero;stroke:none;stroke-width:0.0352778"
       id="path1086" />
    <path
       d="m 78.964702,99.994558 c 0.249414,-0.610658 0.582789,-1.185333 1.269647,-1.392767 0.821972,-0.248355 1.716617,0.136525 2.205214,0.80257 0.942975,1.286229 0.382764,2.561169 -0.473428,3.607859 -0.897114,-1.68981 -1.8288,-1.57445 -3.001433,-3.017662 z m 3.637491,-1.735667 c -1.510241,-1.220258 -3.424766,-0.509411 -4.167363,0.989189 -0.02787,-0.04445 -0.05503,-0.0822 -0.08326,-0.128411 -1.595967,-2.619375 -1.159581,-7.305322 -1.278819,-7.52228 -0.118887,-0.216959 -2.023886,-0.734836 -3.01625,0.87383 0,0 3.01625,4.822825 1.468261,8.592961 -1.547284,3.77049 -1.706034,7.10424 2.262716,9.00889 -0.754239,1.30986 -0.436739,1.78611 -0.436739,1.78611 0,0 3.611739,1.27035 5.159375,-0.99236 0.635,-0.95215 -1.150761,-1.70604 -1.150761,-1.70604 0,0 2.018242,-2.00448 1.070328,-5.01897 0.155928,-0.0508 0.280106,-0.18909 0.297039,-0.37606 0.0014,-0.0173 0.0028,-0.0349 0.0046,-0.0526 0.0071,-0.0787 -0.01199,-0.14852 -0.04621,-0.2092 1.307395,-1.45873 1.552575,-3.924299 -0.0829,-5.245099"
       style="fill:#432b24;fill-opacity:1;fill-rule:nonzero;stroke:none;stroke-width:0.0352778"
       id="path1088" />
    <path
       d="m 81.172385,103.37346 c -0.568678,-1.22872 -1.767064,-2.45004 -3.195461,-2.46874 -0.226483,-0.003 -0.348897,0.29069 -0.186267,0.44909 0.844903,0.82233 1.756481,1.38254 2.238728,2.52307 0.258939,0.61242 0.376414,1.26541 0.345722,1.9311 -0.02611,0.56163 -0.15875,0.94368 -0.0014,1.47955 0.05398,0.18415 0.302331,0.32174 0.477308,0.19438 1.178278,-0.85936 0.857956,-2.95063 0.321381,-4.10845"
       style="fill:#6a4537;fill-opacity:1;fill-rule:nonzero;stroke:none;stroke-width:0.0352778"
       id="path1090" />
    <path
       d="m 80.525743,107.83116 c -0.587375,0 -0.588433,0.91264 0,0.91264 0.587375,0 0.588081,-0.91264 0,-0.91264"
       style="fill:#6a4537;fill-opacity:1;fill-rule:nonzero;stroke:none;stroke-width:0.0352778"
       id="path1092" />
    <path
       d="m 81.233768,110.08753 c -0.35313,0.1457 -0.557036,0.46284 -0.884766,0.65546 -0.425097,0.24977 -0.885825,0.28575 -1.352197,0.13476 -0.359128,-0.11712 -0.617714,0.46461 -0.261762,0.62054 0.584553,0.25682 1.224139,0.35278 1.839031,0.13158 0.500592,-0.18062 1.122539,-0.60571 1.117953,-1.19274 -0.0014,-0.21166 -0.234245,-0.44167 -0.458259,-0.3496"
       style="fill:#6a4537;fill-opacity:1;fill-rule:nonzero;stroke:none;stroke-width:0.0352778"
       id="path1094" />
    <path
       d="m 77.588868,93.642794 c 0,0 -2.394655,-0.112889 -2.725561,0.750359 -0.330552,0.863247 0.291395,1.141588 0.291395,1.141588 0,0 -0.577497,0.317148 -0.388056,0.846314 0.189442,0.529167 0.69215,0.701323 0.69215,0.701323 0,0 -0.463197,0.79375 0.357364,1.296458 0.820208,0.502708 2.06375,0.06632 2.645833,-1.468614 0.582084,-1.534583 -0.132291,-3.188053 -0.873125,-3.267428"
       style="fill:#fbc772;fill-opacity:1;fill-rule:nonzero;stroke:none;stroke-width:0.0352778"
       id="path1096" />
    <path
       d="m 55.548372,107.86256 c -0.468136,0.0857 -0.889706,0.32173 -1.34867,0.44838 -0.499533,0.13829 -1.017764,0.22931 -1.535289,0.25153 -0.292452,0.0127 -0.288572,0.42969 0,0.45156 1.008592,0.0762 2.353381,0.009 3.128081,-0.73307 0.193675,-0.18521 -0.01199,-0.46109 -0.244122,-0.4184"
       style="fill:#cfa762;fill-opacity:1;fill-rule:nonzero;stroke:none;stroke-width:0.0352778"
       id="path1098" />
    <path
       d="m 55.680311,109.77321 c -0.248356,0.0476 -0.467784,0.22542 -0.69462,0.33408 -0.259644,0.12453 -0.529872,0.2166 -0.807155,0.29174 -0.341842,0.0928 -0.196498,0.62583 0.146402,0.53093 0.51047,-0.14075 1.299281,-0.36724 1.606903,-0.82867 0.117122,-0.17568 -0.07479,-0.3623 -0.25153,-0.32808"
       style="fill:#cfa762;fill-opacity:1;fill-rule:nonzero;stroke:none;stroke-width:0.0352778"
       id="path1100" />
    <path
       d="m 54.704175,106.05422 c -0.189442,-0.32385 -0.587375,-0.26211 -0.788106,0 -0.02081,0.0272 -0.04198,0.0543 -0.06244,0.0815 -0.182386,0.23778 0.06244,0.64559 0.353484,0.6156 l 0.103011,-0.0102 c 0.333375,-0.0346 0.582436,-0.36442 0.394053,-0.68686"
       style="fill:#f57f4a;fill-opacity:1;fill-rule:nonzero;stroke:none;stroke-width:0.0352778"
       id="path1102" />
    <path
       d="m 58.537811,104.39476 c -0.4191,0.15839 -0.539045,0.67803 -0.223309,1.0033 0.05574,0.0575 0.155575,0.09 0.232481,0.0617 0.39758,-0.14675 -0.08572,-0.51647 0.171803,-0.75388 0.131233,-0.12136 -0.0049,-0.37783 -0.180975,-0.31115"
       style="fill:#b76934;fill-opacity:1;fill-rule:nonzero;stroke:none;stroke-width:0.0352778"
       id="path1104" />
    <path
       d="m 59.471613,102.62381 c -0.568677,0.21061 -0.80398,0.89853 -0.395464,1.37442 0.233892,0.2727 0.580673,-0.0755 0.458612,-0.35419 -0.08185,-0.18767 -0.02893,-0.41028 0.154516,-0.50341 0.28187,-0.14287 0.08502,-0.629 -0.217664,-0.51682"
       style="fill:#b76934;fill-opacity:1;fill-rule:nonzero;stroke:none;stroke-width:0.0352778"
       id="path1106" />
    <path
       d="m 57.570847,101.81666 c -0.212373,0.1852 -0.581731,0.74753 -0.219428,0.97684 0.351014,0.22189 0.441325,-0.46602 0.577144,-0.61913 0.216959,-0.24483 -0.112536,-0.57185 -0.357716,-0.35771"
       style="fill:#b76934;fill-opacity:1;fill-rule:nonzero;stroke:none;stroke-width:0.0352778"
       id="path1108" />
    <path
       d="m 54.622683,101.99057 c -0.264583,0.25965 -0.398992,0.81316 -0.0078,1.02729 0.133703,0.0734 0.294216,-0.0187 0.29845,-0.17109 0.0049,-0.1838 -0.09278,-0.35913 0.03916,-0.52635 0.180975,-0.22966 -0.109361,-0.5461 -0.329847,-0.32985"
       style="fill:#b76934;fill-opacity:1;fill-rule:nonzero;stroke:none;stroke-width:0.0352778"
       id="path1110" />
    <path
       d="m 56.027091,103.71425 c -0.05503,0.34113 0.381353,0.45684 0.511881,0.14111 0.06138,-0.0342 0.100189,-0.0166 0.117122,0.0529 0.190147,0.28928 0.579261,0.0945 0.531636,-0.22436 -0.09772,-0.66181 -1.059039,-0.59867 -1.160639,0.0303"
       style="fill:#b76934;fill-opacity:1;fill-rule:nonzero;stroke:none;stroke-width:0.0352778"
       id="path1112" />
    <path
       d="m 62.885444,105.61149 c -0.07126,-0.28505 -0.465667,-0.20144 -0.487186,0.066 -0.230364,2.85397 -0.161573,5.53931 -0.98425,8.33437 -0.856192,2.91006 -2.367139,5.39291 -4.208286,7.77557 -0.160514,0.20744 0.104069,0.49989 0.297744,0.2981 2.055989,-2.13854 3.52425,-4.85351 4.485217,-7.64751 0.915811,-2.66242 1.594202,-6.04273 0.896761,-8.8265"
       style="fill:#6487bf;fill-opacity:1;fill-rule:nonzero;stroke:none;stroke-width:0.0352778"
       id="path1114" />
    <path
       d="m 64.110288,99.52748 c -0.123825,-0.252589 -0.460728,-0.06103 -0.421569,0.1778 0.458611,2.81552 1.175455,5.43736 1.14688,8.33014 -0.02787,2.84339 -0.517525,5.59788 -1.462969,8.27758 -0.09701,0.27552 0.335492,0.38982 0.43568,0.11994 1.02482,-2.77671 1.649589,-5.715 1.695098,-8.68186 0.04057,-2.66171 -0.208492,-5.80213 -1.39312,-8.2236"
       style="fill:#6487bf;fill-opacity:1;fill-rule:nonzero;stroke:none;stroke-width:0.0352778"
       id="path1116" />
    <path
       d="m 66.38253,120.6116 c -1.293283,0.4385 -2.486378,1.13135 -3.782131,1.58397 -1.444625,0.50412 -2.937227,0.85478 -4.453113,1.05657 -0.4064,0.054 -0.427214,0.69321 0,0.65475 2.837744,-0.2547 6.272036,-0.9271 8.496299,-2.84727 0.201084,-0.17356 -0.01199,-0.53198 -0.261055,-0.44802"
       style="fill:#6487bf;fill-opacity:1;fill-rule:nonzero;stroke:none;stroke-width:0.0352778"
       id="path1118" />
    <path
       d="m 69.779427,114.668 c -0.424039,0.56056 -0.654756,1.9251 0.203906,2.2292 0.198613,0.0702 0.354188,-0.10936 0.373591,-0.28469 0.02928,-0.26247 -0.123472,-0.51717 -0.141111,-0.77999 -0.0194,-0.28187 0.06174,-0.54998 0.210608,-0.78635 0.263878,-0.41839 -0.364066,-0.75141 -0.646994,-0.37817"
       style="fill:#6487bf;fill-opacity:1;fill-rule:nonzero;stroke:none;stroke-width:0.0352778"
       id="path1120" />
    <path
       d="m 71.302721,122.52295 c -1.859138,1.10454 -3.453341,2.31245 -5.566833,2.96262 -2.031294,0.62477 -4.18218,0.79305 -6.289675,0.54893 -0.217664,-0.0258 -0.269169,0.34678 -0.05186,0.38452 4.035072,0.7045 9.475611,-0.0818 12.308064,-3.37784 0.234597,-0.2727 -0.06138,-0.71932 -0.399698,-0.51823"
       style="fill:#6487bf;fill-opacity:1;fill-rule:nonzero;stroke:none;stroke-width:0.0352778"
       id="path1122" />
    <path
       d="m 71.12986,128.65705 c -0.0088,-0.20461 -0.309386,-0.25824 -0.365478,-0.049 -0.61983,2.32163 -0.827263,4.73287 -1.463322,7.0612 -0.681919,2.49767 -1.550458,4.92866 -2.66453,7.26687 -0.09278,0.19438 0.192969,0.36548 0.291041,0.17039 1.134887,-2.25707 2.143125,-4.57764 2.867731,-7.00123 0.707672,-2.36572 1.442155,-4.96111 1.334558,-7.44819"
       style="fill:#6487bf;fill-opacity:1;fill-rule:nonzero;stroke:none;stroke-width:0.0352778"
       id="path1124" />
    <path
       d="m 65.04903,128.86765 c -0.02646,-0.25858 -0.420158,-0.36018 -0.487186,-0.066 -0.375356,1.64923 -0.462139,3.33904 -0.901347,4.98298 -0.472723,1.76742 -1.146881,3.47486 -2.000603,5.09305 -1.7272,3.27308 -4.105275,6.10588 -7.109178,8.27264 -0.236361,0.17039 -0.0071,0.56727 0.230364,0.39406 2.971094,-2.16606 5.526264,-4.90714 7.319433,-8.12871 1.669697,-3.00002 3.311172,-7.04921 2.948517,-10.54806"
       style="fill:#6487bf;fill-opacity:1;fill-rule:nonzero;stroke:none;stroke-width:0.0352778"
       id="path1126" />
    <path
       d="m 62.457877,128.11342 c -1.262944,0.65969 -2.386541,1.44815 -3.729214,1.97132 -0.323144,0.12594 -0.183797,0.65299 0.144992,0.52599 1.329972,-0.51188 2.809522,-1.1557 3.836811,-2.16994 0.172508,-0.17039 -0.04621,-0.43532 -0.252589,-0.32737"
       style="fill:#6487bf;fill-opacity:1;fill-rule:nonzero;stroke:none;stroke-width:0.0352778"
       id="path1128" />
    <path
       d="m 49.553619,100.33957 c -0.568678,-1.17404 -2.308578,-0.867829 -3.29953,-0.66357 -0.261056,0.05362 -0.196498,0.45755 0.06209,0.45791 0.563387,7e-4 1.181453,0.0205 1.733198,0.13793 0.431094,0.0921 0.778933,0.33161 1.18498,0.48295 0.251884,0.0942 0.416278,-0.21484 0.319264,-0.41522"
       style="fill:#cfa762;fill-opacity:1;fill-rule:nonzero;stroke:none;stroke-width:0.0352778"
       id="path1130" />
    <path
       d="m 48.082183,100.55336 c 0.0032,-0.0762 -0.0187,-0.1524 -0.09807,-0.19015 -0.426861,-0.20532 -0.864306,0.0402 -1.007534,0.47484 -0.06632,0.20002 0.140053,0.37712 0.329142,0.32949 0.0046,-0.001 0.0088,-0.001 0.01305,-0.002 -0.09313,0.17674 -0.127353,0.36971 -0.0127,0.54045 0.161572,0.24024 0.396169,0.23989 0.602192,0.13582 0.242711,0.12982 0.547511,0.012 0.697441,-0.20743 0.329142,-0.48331 -0.03528,-1.01459 -0.523522,-1.08091"
       style="fill:#b76934;fill-opacity:1;fill-rule:nonzero;stroke:none;stroke-width:0.0352778"
       id="path1132" />
  </g>
</svg>
