<?xml version="1.0" encoding="UTF-8" standalone="no"?>
<!-- Created with Inkscape (http://www.inkscape.org/) -->

<svg
   width="67.900253mm"
   height="99.928207mm"
   viewBox="0 0 67.900253 99.928207"
   version="1.1"
   id="svg7401"
   inkscape:version="1.2 (dc2aeda, 2022-05-15)"
   sodipodi:docname="hades.svg"
   xmlns:inkscape="http://www.inkscape.org/namespaces/inkscape"
   xmlns:sodipodi="http://sodipodi.sourceforge.net/DTD/sodipodi-0.dtd"
   xmlns="http://www.w3.org/2000/svg"
   xmlns:svg="http://www.w3.org/2000/svg">
  <sodipodi:namedview
     id="namedview7403"
     pagecolor="#ffffff"
     bordercolor="#666666"
     borderopacity="1.0"
     inkscape:showpageshadow="2"
     inkscape:pageopacity="0.0"
     inkscape:pagecheckerboard="0"
     inkscape:deskcolor="#d1d1d1"
     inkscape:document-units="mm"
     showgrid="false"
     inkscape:zoom="0.914906"
     inkscape:cx="53.557414"
     inkscape:cy="291.28675"
     inkscape:window-width="1390"
     inkscape:window-height="1205"
     inkscape:window-x="2240"
     inkscape:window-y="25"
     inkscape:window-maximized="0"
     inkscape:current-layer="layer1" />
  <defs
     id="defs7398" />
  <g
     inkscape:label="Layer 1"
     inkscape:groupmode="layer"
     id="layer1"
     transform="translate(-90.69155,-71.496395)">
    <path
       d="m 140.18869,129.2469 c 0.008,-0.0106 6.49605,0.63535 8.71855,1.50812 0,0 4.65455,-2.64583 4.81401,-2.32798 0.1598,0.3175 -0.73978,3.14854 -0.73978,3.14854 0,0 5.68854,5.30472 5.60952,5.93972 -0.0797,0.635 -1.01882,1.4732 -1.30986,1.4732 -0.29105,0 -5.0345,-1.60584 -8.31815,-1.55257 -0.84067,-0.58209 -1.33033,-1.27 -1.33033,-1.27 l -8.06555,3.39972 c 0,0 -0.82092,-8.54604 0.62159,-10.31875"
       style="fill:#302624;fill-opacity:1;fill-rule:nonzero;stroke:none;stroke-width:0.0352778"
       id="path128" />
    <path
       d="m 126.65543,131.78725 c 0,0 6.90598,-10.23937 14.10229,-10.53042 0,0 1.5434,-4.57164 1.89618,-4.3628 0.35278,0.20885 1.5434,3.43676 1.5434,3.43676 0,0 7.9375,0.54081 9.47244,2.67794 0.26458,0.41733 -0.55598,1.84644 -0.82056,2.08456 -0.26458,0.23777 -7.27604,0.381 -8.43986,0.83856 -1.16416,0.45755 -2.91041,8.44832 -3.70416,9.48019 -0.79375,1.03152 -14.04973,-3.62479 -14.04973,-3.62479"
       style="fill:#382c2b;fill-opacity:1;fill-rule:nonzero;stroke:none;stroke-width:0.0352778"
       id="path130" />
    <path
       d="m 109.97363,160.41516 c 0.0794,0.11889 2.33362,9.88202 3.27025,10.31875 0.93662,0.43639 3.19899,0.47625 3.27801,0 0.0794,-0.4766 -3.13514,-7.38187 -2.89701,-8.33437 0.23812,-0.95285 3.99379,-2.02424 3.52495,-5.2391 -0.46884,-3.21451 -4.55683,-6.43185 -4.55683,-6.43185 l -2.61937,9.68657"
       style="fill:#382c2b;fill-opacity:1;fill-rule:nonzero;stroke:none;stroke-width:0.0352778"
       id="path132" />
    <path
       d="m 144.99105,137.5019 c 0,0 -8.85542,-11.37709 -20.40854,-5.29167 -4.77944,3.12208 -8.31427,5.55625 -16.20414,6.72077 -7.88988,1.16381 -5.7203,9.6834 -5.08565,12.59381 0.63535,2.91042 3.81035,6.72077 3.175,7.40834 -0.63465,0.68827 -7.090478,2.04046 -7.143748,3.98356 -0.05292,1.94345 3.069518,7.6581 3.757438,7.76429 0.68756,0.10548 4.18006,0.52916 4.18006,-0.26459 0,-0.79375 -3.22792,-6.56166 -3.22792,-6.56166 0,0 8.29628,-1.78188 9.8732,-4.18077 1.57656,-2.39854 -0.61278,-6.81884 -0.61278,-6.81884 0,0 1.85385,-2.33539 4.44571,-1.70039 2.59256,0.63465 4.69018,3.38667 6.84283,2.16923 0,0 4.16313,6.1916 4.74556,7.51452 0.58173,1.32291 0.9525,10.00019 1.37548,10.15965 0.42334,0.1591 3.38702,0.88018 3.65161,-0.01 0.26458,-0.88971 -1.05834,-9.35637 -1.79952,-11.52631 -0.74084,-2.16958 -1.48132,-4.07423 -1.48132,-4.07423 0,0 1.5875,-3.4925 0.26459,-5.3975 2.53964,0.68757 4.55048,2.0253 4.60375,2.86456 0.0526,0.83961 -1.16417,2.69169 -1.64077,2.74461 -0.4759,0.0529 -1.26965,1.05833 -1.16417,2.06375 0.10583,1.00506 2.8575,1.69333 3.75744,1.26965 0.89958,-0.42298 3.59798,-5.55625 2.48708,-7.61965 -1.1116,-2.06375 -3.75744,-4.92125 -3.75744,-4.92125 l 5.92667,-3.28083 c 0,0 -0.0526,1.37583 0.42333,2.01048 0.47661,0.63535 5.29167,5.62433 5.55625,7.73324 1.42875,0.73342 2.59327,0.25717 2.59327,0.25717 0,0 -0.68791,-7.9375 -1.79952,-11.80006 -0.0526,-4.28625 -3.28083,-6.45619 -3.43958,-5.92702 -0.15875,0.52917 0.10583,2.11667 0.10583,2.11667"
       style="fill:#473736;fill-opacity:1;fill-rule:nonzero;stroke:none;stroke-width:0.0352778"
       id="path134" />
    <path
       d="m 149.88443,150.72859 c 0,0 -0.88723,1.21109 -0.54998,2.53154 0,0 0.66217,0.0727 0.78987,-0.14782 0.12736,-0.22013 -0.23989,-2.38372 -0.23989,-2.38372"
       style="fill:#201818;fill-opacity:1;fill-rule:nonzero;stroke:none;stroke-width:0.0352778"
       id="path136" />
    <path
       d="m 146.62512,143.30968 c 0,0 1.23014,2.18299 0.97226,2.30187 -0.25788,0.11924 -1.0915,-1.68663 -0.97226,-2.30187"
       style="fill:#ffffff;fill-opacity:1;fill-rule:nonzero;stroke:none;stroke-width:0.0352778"
       id="path138" />
    <path
       d="m 135.06036,146.28536 c -0.58067,0.86077 -1.38712,1.54552 -2.21721,2.15759 -0.61066,0.45049 -1.46226,0.81491 -1.8736,1.46226 -0.10619,0.16651 0.0681,0.34219 0.23812,0.30974 0.84879,-0.1644 1.76601,-1.03047 2.44228,-1.55857 0.762,-0.59479 1.40865,-1.25907 1.98438,-2.03553 0.25118,-0.33973 -0.33338,-0.69286 -0.57397,-0.33549"
       style="fill:#382c2b;fill-opacity:1;fill-rule:nonzero;stroke:none;stroke-width:0.0352778"
       id="path140" />
    <path
       d="m 120.81766,147.92754 c -1.11019,-2.07046 -1.41322,-3.94723 -1.75189,-6.22865 -0.0423,-0.2868 -0.43321,-0.17427 -0.46285,0.0628 -0.27163,2.17488 0.58844,4.62563 1.73073,6.44843 0.19156,0.3062 0.65476,0.036 0.48401,-0.28258"
       style="fill:#382c2b;fill-opacity:1;fill-rule:nonzero;stroke:none;stroke-width:0.0352778"
       id="path142" />
    <path
       d="m 117.10115,147.82206 c -0.35948,-0.48401 -0.6477,-1.00048 -0.83115,-1.57763 -0.16651,-0.52387 -0.17286,-1.07173 -0.32843,-1.59385 -0.0501,-0.16721 -0.3041,-0.17744 -0.34925,0 -0.28963,1.1423 0.4071,2.53542 1.07632,3.42442 0.19121,0.254 0.62583,0.007 0.43251,-0.25294"
       style="fill:#382c2b;fill-opacity:1;fill-rule:nonzero;stroke:none;stroke-width:0.0352778"
       id="path144" />
    <path
       d="m 114.59854,148.57947 c -0.29633,-0.42439 -0.50482,-0.87418 -0.62688,-1.37795 -0.10019,-0.41416 -0.0561,-0.86854 -0.24377,-1.2513 -0.067,-0.13653 -0.2667,-0.11818 -0.33832,0 -0.25823,0.42686 -0.12206,1.04528 0.0169,1.49895 0.16369,0.53375 0.44204,1.00789 0.7867,1.44286 0.18027,0.2279 0.57256,-0.0723 0.40534,-0.31256"
       style="fill:#382c2b;fill-opacity:1;fill-rule:nonzero;stroke:none;stroke-width:0.0352778"
       id="path146" />
    <path
       d="m 128.85288,139.30671 c -0.86148,-0.80151 -1.24636,-2.30964 -2.37454,-2.78906 -0.76553,-0.32526 -1.86937,-0.0949 -2.6543,-0.0462 -1.11408,0.0688 -2.2225,0.14887 -3.3334,0.25858 -0.19297,0.019 -0.20144,0.31186 0,0.30727 1.62207,-0.0356 4.85598,-0.8262 6.09106,0.30551 0.80821,0.74013 0.91263,1.98508 2.02283,2.39077 0.242,0.0886 0.42897,-0.25929 0.24835,-0.42686"
       style="fill:#382c2b;fill-opacity:1;fill-rule:nonzero;stroke:none;stroke-width:0.0352778"
       id="path148" />
    <path
       d="m 103.83424,143.32978 c 0,0 -5.99264,10.99362 -9.802993,6.54827 -3.809647,-4.445 1.151114,-9.44527 3.651603,-9.96139 2.50014,-0.51576 4.64326,-1.86513 2.8575,-4.96076 -1.786114,-3.09562 -4.008614,-2.16323 -4.008614,-1.80587 0,0.35701 1.984375,2.91712 1.289756,3.33375 -0.69462,0.41663 -2.301875,-1.29011 -2.559756,-0.93274 -0.25788,0.35701 -0.496358,1.92475 1.865136,2.401 0,0 -5.119511,1.60726 -6.230761,7.79886 -1.11125,6.19125 2.460625,8.67798 6.945489,7.75194 4.48451,-0.92604 6.31014,-4.22557 7.34201,-4.65914 1.03188,-0.43392 -1.34937,-5.51392 -1.34937,-5.51392"
       style="fill:#473736;fill-opacity:1;fill-rule:nonzero;stroke:none;stroke-width:0.0352778"
       id="path150" />
    <path
       d="m 98.385936,134.10359 c 0,0 0.941211,0.69215 0.791986,0.99624 -0.149578,0.30375 -0.672394,-0.46813 -0.791986,-0.99624"
       style="fill:#ffffff;fill-opacity:1;fill-rule:nonzero;stroke:none;stroke-width:0.0352778"
       id="path152" />
    <path
       d="m 145.40698,138.26072 c -0.59478,-0.68227 -1.57903,-1.83162 -2.59433,-1.61219 -0.12347,0.0268 -0.17498,0.15981 -0.15416,0.27128 0.20426,1.09608 0.4191,2.49555 1.07668,3.41877 0.0713,0.10019 0.20672,0.0363 0.1905,-0.0801 -0.0825,-0.58808 -0.34185,-1.13453 -0.50307,-1.70497 -0.13017,-0.46038 -0.21096,-0.9338 -0.28363,-1.40688 0.39829,0.1651 0.77364,0.63077 1.03717,0.88406 0.3182,0.30551 0.63465,0.62018 0.91757,0.9585 0.58209,0.69638 0.75071,1.45274 1.1109,2.25425 0.0815,0.18062 0.38171,0.12947 0.42192,-0.055 0.22719,-1.0474 -0.56585,-2.17805 -1.21955,-2.9277"
       style="fill:#382c2b;fill-opacity:1;fill-rule:nonzero;stroke:none;stroke-width:0.0352778"
       id="path154" />
    <path
       d="m 146.71437,121.75919 c 0,0 -2.42076,-0.21802 -2.56963,0.0497 -0.14887,0.26811 2.43064,0.30762 2.56963,-0.0497"
       style="fill:#ffffff;fill-opacity:1;fill-rule:nonzero;stroke:none;stroke-width:0.0352778"
       id="path156" />
    <path
       d="m 152.43925,132.73622 c 0,0 1.51236,1.42558 1.282,1.52471 -0.23002,0.0991 -1.282,-0.73413 -1.282,-1.52471"
       style="fill:#ffffff;fill-opacity:1;fill-rule:nonzero;stroke:none;stroke-width:0.0352778"
       id="path158" />
    <path
       d="m 108.90224,155.41454 c 0,0 -0.89994,12.32923 -1.29681,13.04361 -0.39688,0.71472 -1.82527,0.97931 -1.48131,1.87889 0.3436,0.89923 4.04777,0.37006 4.04777,0.37006 0,0 0.84702,0.68827 1.32291,-0.0529 0.47625,-0.74084 -1.03152,-1.7459 -1.03152,-2.32834 0,-0.58208 1.69298,-13.12298 1.69298,-13.12298 0,0 -1.11125,-0.95285 -3.25402,0.21167"
       style="fill:#d1bb91;fill-opacity:1;fill-rule:nonzero;stroke:none;stroke-width:0.0352778"
       id="path160" />
    <path
       d="m 122.38752,155.49356 c 0,0 -0.30938,11.50938 -0.73236,12.6739 -0.42369,1.16381 -1.03223,1.905 -0.42369,2.43416 0.6089,0.52917 6.93244,0.50236 6.95854,0 0.0265,-0.50271 -3.70381,-1.85208 -3.8361,-2.80493 -0.13229,-0.95215 0.6611,-12.40861 0.6611,-12.40861 l -2.62749,0.10548"
       style="fill:#d1bb91;fill-opacity:1;fill-rule:nonzero;stroke:none;stroke-width:0.0352778"
       id="path162" />
    <path
       d="m 122.07814,101.54432 c 0,0 2.71321,0.68897 2.86491,3.50661 0.15169,2.81763 1.30245,8.96937 3.72357,15.08125 2.42076,6.11187 6.0586,8.42821 6.0586,8.42821 0,0 2.51354,-0.0145 2.65924,0.46179 0.1457,0.47625 -0.42333,0.62159 -0.42333,0.62159 0,0 0.78034,0.1457 0.54222,0.63536 -0.23778,0.4893 -0.99202,0.39687 -0.9525,0.43638 0.0399,0.0395 0.59549,0.47625 0.34431,0.86007 -0.25153,0.38347 -1.04528,0.14535 -1.04528,0.14535 0,0 0.51611,0.50271 -0.19862,0.68791 -0.71437,0.18521 -1.95756,-0.97895 -1.95756,-0.97895 0,0 -0.10583,1.50812 -0.74119,1.2834 -0.635,-0.22507 -0.35701,-2.14348 -0.35701,-2.14348 0,0 -5.23063,-5.96229 -6.50875,-8.17527 -4.36562,-2.00871 -10.89307,-8.17598 -11.00278,-13.21611 -0.10972,-5.04014 -0.94333,-9.672463 6.99417,-7.63411"
       style="fill:#d1bb91;fill-opacity:1;fill-rule:nonzero;stroke:none;stroke-width:0.0352778"
       id="path164" />
    <path
       d="m 123.94539,113.57086 c -0.34325,-2.64759 -0.49883,-5.39326 -1.10419,-7.99429 -0.0603,-0.26 -0.46602,-0.20214 -0.46285,0.0624 0.0349,2.66911 0.58314,5.37386 0.97296,8.01229 0.4191,2.83351 0.82691,5.67584 1.40618,8.48113 0.0349,0.16968 0.32596,0.13511 0.30691,-0.0413 -0.31221,-2.84727 -0.75071,-5.67937 -1.11901,-8.52029"
       style="fill:#aa9777;fill-opacity:1;fill-rule:nonzero;stroke:none;stroke-width:0.0352778"
       id="path166" />
    <path
       d="m 125.03512,126.87905 c 0,0 1.36913,-0.0794 1.76601,-0.85337 0.39687,-0.77364 -1.05163,-2.59962 -1.05163,-2.59962 0,0 1.36913,-0.35701 1.15111,-1.15076 -0.21837,-0.79375 -1.40899,-0.87312 -4.18712,-4.56388 -2.77812,-3.69112 -7.18361,-16.47049 -7.18361,-16.47049 0,0 -0.75389,-2.50049 -2.61938,-2.193927 -1.86549,0.306564 -4.1275,1.876427 -4.1275,1.876427 0,0 -3.50343,5.70124 -3.2258,15.73248 -0.41275,0.37041 -0.83396,0.78563 -1.25906,1.25377 -3.49215,3.84951 -2.6984,10.54629 -2.10326,10.65071 0.59549,0.10478 1.905,-0.84808 1.905,-0.84808 0,0 2.26236,3.53237 2.89701,3.57188 0.63535,0.0399 0.99236,-1.4284 0.99236,-1.4284 0,0 0.94721,0.7941 1.72685,1.30175 -0.0462,0.33761 -0.073,0.52352 -0.073,0.52352 0,1.21744 -2.64619,21.53744 -1.79917,23.44244 0.84667,1.90465 2.85715,1.1109 4.97417,1.05833 2.11631,-0.0529 2.32798,1.05834 3.4925,1.7459 1.16417,0.68792 3.96875,-0.89958 5.3975,-1.05833 1.42875,-0.1584 4.2859,1.21708 5.21582,-0.3175 0.92992,-1.53423 -1.88877,-29.67285 -1.88877,-29.67285"
       style="fill:#396c89;fill-opacity:1;fill-rule:nonzero;stroke:none;stroke-width:0.0352778"
       id="path168" />
    <path
       d="m 125.26478,126.70337 c -1.74837,-0.61595 -3.43711,-0.70203 -5.26838,-0.79763 -2.1329,-0.11077 -4.06541,-0.71049 -6.11858,-1.1497 0.2794,-0.60854 0.45543,-1.25201 0.42721,-1.9304 0.33937,-1.4986 0.37289,-3.12032 -0.74259,-4.2605 -0.72496,-0.74189 -1.54552,-0.90558 -2.34986,-0.73237 0.46355,-0.75635 0.24024,-1.72931 -0.40358,-2.24754 -0.37888,-1.81575 -0.63464,-3.63785 -0.5655,-5.50616 0.0804,-2.17523 0.72884,-4.15396 1.08303,-6.26886 0.0381,-0.22613 -0.27623,-0.40499 -0.39899,-0.16828 -1.70251,3.29177 -1.61325,7.98936 -0.66075,11.66919 -0.0716,-0.0226 -0.13865,-0.0529 -0.21555,-0.0656 -1.49049,-0.24624 -3.03954,0.37041 -4.26473,1.18568 -0.10795,0.072 -0.44838,0.33197 -0.31186,0.28293 0.99448,-0.35666 1.90712,-0.66393 2.97251,-0.75565 0.4325,-0.0374 1.03575,-0.10442 1.44744,0.0522 0.82339,0.31327 0.62654,1.25624 0.86784,1.86761 0.0113,0.0286 0.031,0.0469 0.0487,0.0681 -0.59267,0.20919 -1.16628,0.58349 -1.67393,1.03081 -0.13688,0.12065 0.0416,0.35208 0.19544,0.25295 0.75388,-0.48472 1.4291,-0.99378 2.40065,-0.75918 0.86924,0.2099 1.47567,0.92075 1.76847,1.73531 0.36654,1.01953 0.28011,2.01084 0.10478,3.0159 -0.51082,1.43263 -1.04246,2.7566 -1.9177,4.05659 -0.82303,1.22308 -1.58256,2.38866 -1.93005,3.83787 -0.0388,0.16334 0.19297,0.22331 0.24906,0.0688 0.64418,-1.77588 1.77306,-3.25155 2.8635,-4.76956 0.24165,-0.33655 0.47696,-0.68862 0.68792,-1.05304 3.57999,1.70956 7.85565,0.73307 11.63179,1.60832 0.17533,0.0409 0.24165,-0.2085 0.0737,-0.26776"
       style="fill:#284e63;fill-opacity:1;fill-rule:nonzero;stroke:none;stroke-width:0.0352778"
       id="path170" />
    <path
       d="m 111.71494,119.63406 c -0.84526,0.79445 -2.1396,2.86032 -1.24425,3.97298 0.14111,0.17568 0.45508,0.15275 0.59972,0 0.37818,-0.39899 0.36654,-0.98672 0.52635,-1.49366 0.19332,-0.61313 0.52987,-1.1677 0.92745,-1.6697 0.44768,-0.5648 -0.25859,-1.32715 -0.80927,-0.80962"
       style="fill:#284e63;fill-opacity:1;fill-rule:nonzero;stroke:none;stroke-width:0.0352778"
       id="path172" />
    <path
       d="m 112.26245,119.5635 c 0,0 2.26201,-0.0794 3.2011,0.84667 0.93945,0.92604 1.45521,1.98437 1.08515,2.27506 -0.37042,0.2914 -0.96591,-0.33055 -0.96591,-0.33055 0,0 0.4632,0.9525 0.0265,1.19062 -0.43638,0.23813 -0.78034,-0.38382 -0.78034,-0.38382 0,0 -0.17216,1.00577 -0.4766,0.88653 -0.3041,-0.11888 -0.27764,-0.66146 -0.27764,-0.66146 0,0 -0.21167,0.83326 -0.58208,0.50271 -0.37042,-0.3309 0.0399,-1.09784 0.0399,-1.09784 l -0.34396,-0.80716 c 0,0 -2.0507,-0.39687 -2.11667,-0.47625 -0.0663,-0.0794 0.11889,-1.64041 1.19063,-1.94451"
       style="fill:#d1bb91;fill-opacity:1;fill-rule:nonzero;stroke:none;stroke-width:0.0352778"
       id="path174" />
    <path
       d="m 122.03863,80.908582 c 0,0 -0.55563,7.592483 0.3175,10.807347 0.87312,3.214863 -9.25231,3.81 -10.22209,3.055761 -0.96979,-0.753886 -2.41194,-6.217709 -2.41194,-6.217709 0,0 -1.64007,-0.449791 -1.93146,-2.381249 -0.29069,-1.931106 1.48202,-2.407356 1.48202,-2.407356 0,0 8.65152,-5.819422 12.76597,-2.856794"
       style="fill:#d1bb91;fill-opacity:1;fill-rule:nonzero;stroke:none;stroke-width:0.0352778"
       id="path176" />
    <path
       d="m 109.43247,84.991984 c -0.0222,7.06e-4 -0.91123,-0.0074 -1.03858,0.896409 -0.127,0.903816 0.87418,2.435577 1.55398,1.934633 0.67981,-0.500239 -0.16439,-2.845858 -0.5154,-2.831042"
       style="fill:#aa9777;fill-opacity:1;fill-rule:nonzero;stroke:none;stroke-width:0.0352778"
       id="path178" />
    <path
       d="m 111.958,85.880632 c 0,0 -0.42333,5.186891 1.15112,7.038974 0.25117,-0.992011 1.34232,-1.322916 1.40511,-1.322916 0.0632,0 0.24765,-0.582084 0.83679,-1.031875 0.58878,-0.449439 1.70003,-0.184856 1.70003,-0.184856 l 1.97133,-0.159103 c 0,0 0.24377,-0.05997 0.66146,-0.112183 1.03187,-0.129117 1.50142,0.555625 1.50142,0.555625 0,0 0.72108,-0.191911 1.22378,-0.31115 0.50271,-0.118886 1.60056,0 1.65347,0.978958 2.24931,1.230489 1.46862,3.241323 1.46862,3.241323 0,0 1.25659,0.846666 0.96555,2.248958 -0.29104,1.402291 -2.01048,1.561041 -2.01048,1.561041 0,0 0.72743,1.442156 -0.11924,2.130072 -0.84667,0.68757 -2.03729,0.38347 -2.03729,0.38347 0,0 0.79375,1.70674 -0.92604,2.2225 -1.71979,0.51576 -2.28883,-0.68792 -2.28883,-0.68792 0,0 -1.03152,1.44216 -2.79117,0.91299 -1.75931,-0.52916 -1.99743,-1.50812 -1.99743,-1.50812 0,0 -2.22285,0.4893 -3.04271,-1.0982 -0.82021,-1.5875 -0.71473,-2.407708 -0.71473,-2.407708 0,0 -1.45521,-0.449792 -1.73284,-1.971322 -0.27764,-1.521178 0.51611,-2.182636 0.51611,-2.182636 0,0 -0.76764,-0.330906 -0.83361,-1.679928 -0.0663,-1.349728 1.05833,-1.984375 1.05833,-1.984375 0,0 -0.635,-0.516114 -0.30409,-2.024239 0.33055,-1.508125 2.36784,-3.415242 2.68534,-2.60738"
       style="fill:#2f231e;fill-opacity:1;fill-rule:nonzero;stroke:none;stroke-width:0.0352778"
       id="path180" />
    <path
       d="m 118.26849,84.076173 c 0,0 0.43639,4.643261 1.28976,5.913261 0.85337,1.27 -2.89737,2.004131 -3.43324,0 -0.53551,-2.00413 2.038,-6.852355 2.14348,-5.913261"
       style="fill:#a48c76;fill-opacity:1;fill-rule:nonzero;stroke:none;stroke-width:0.0352778"
       id="path182" />
    <path
       d="m 115.39406,86.553379 c 0,0 0.14922,1.456619 -0.38841,1.441802 -0.53799,-0.01517 -0.47801,-1.255183 -0.32138,-1.748013 0.15698,-0.493184 0.65758,-0.164395 0.70979,0.306211"
       style="fill:#040606;fill-opacity:1;fill-rule:nonzero;stroke:none;stroke-width:0.0352778"
       id="path184" />
    <path
       d="m 115.56974,86.696959 c -0.006,-7.05e-4 -0.66957,-0.117475 -0.57573,0.171803 0.0935,0.289631 0.66534,0.242711 0.70626,0.09913 0.0409,-0.143934 0.0106,-0.254353 -0.13053,-0.270934"
       style="fill:#ffffff;fill-opacity:1;fill-rule:nonzero;stroke:none;stroke-width:0.0352778"
       id="path186" />
    <path
       d="m 120.65256,86.432023 c 0,0 0.14958,1.45662 -0.38841,1.44145 -0.53798,-0.01446 -0.47801,-1.25483 -0.32102,-1.748014 0.15663,-0.49283 0.65722,-0.164041 0.70943,0.306564"
       style="fill:#040606;fill-opacity:1;fill-rule:nonzero;stroke:none;stroke-width:0.0352778"
       id="path188" />
    <path
       d="m 120.82825,86.575957 c -0.006,-7.06e-4 -0.66958,-0.117828 -0.57574,0.17145 0.0938,0.28963 0.66534,0.243063 0.70626,0.09913 0.0413,-0.143933 0.0106,-0.254353 -0.13052,-0.27058"
       style="fill:#ffffff;fill-opacity:1;fill-rule:nonzero;stroke:none;stroke-width:0.0352778"
       id="path190" />
    <path
       d="m 120.43878,92.729459 c -0.65617,-0.03351 -1.15958,0.570089 -1.28552,1.150056 -0.0723,0.331964 0.35524,0.513997 0.54398,0.229305 0.23072,-0.348191 0.5909,-0.504825 0.91652,-0.732719 0.28151,-0.196497 0.18097,-0.628297 -0.17498,-0.646642"
       style="fill:#a48c76;fill-opacity:1;fill-rule:nonzero;stroke:none;stroke-width:0.0352778"
       id="path192" />
    <path
       d="m 109.21974,84.631798 c 0,0 -0.33761,0.813506 0.63465,1.527881 0.97261,0.714375 3.37361,-0.119239 2.08386,-3.115381 1.28975,0.754239 2.46062,-1.27 2.46062,-1.27 0,0 1.60726,0.357011 1.76601,-0.694619 1.78611,1.170869 3.40642,0.297744 3.51896,-0.654756 1.62066,1.389239 5.47052,0.515761 4.89479,-1.944864 C 124.00325,76.019435 120.848,78.26169 120.848,78.26169 l -0.23848,-0.934861 c 0,0 1.74661,-1.029406 0.87348,-2.656417 -0.87312,-1.627364 -2.30187,-0.337608 -2.30187,-0.337608 0,0 0.67486,-1.825625 -1.01212,-1.944511 -1.68663,-0.119239 -1.70639,1.031522 -1.70639,1.031522 0,0 0.17851,-2.142772 -1.64712,-1.905 -1.82562,0.238125 -1.5875,1.607608 -1.5875,1.607608 0,0 -1.68663,-1.587499 -3.51225,-0.277988 -1.82563,1.309863 -0.55281,2.917119 -0.55281,2.917119 0,0 -1.31268,-0.992011 -2.00695,0.238125 -0.69462,1.230489 0.35701,1.905 0.35701,1.905 0,0 -1.88524,0.03986 -1.98437,1.309864 -0.0991,1.269647 1.5875,1.646766 1.5875,1.646766 0,0 -0.61525,0.01976 -0.53587,0.575381 -1.05587,0.853722 -0.32632,4.759325 2.63948,3.195108"
       style="fill:#2f231e;fill-opacity:1;fill-rule:nonzero;stroke:none;stroke-width:0.0352778"
       id="path194" />
    <path
       d="m 107.11613,80.861309 c 0,0 6.54861,0.615245 13.73187,-2.599619 0.35737,-0.436386 -0.23848,-0.934861 -0.23848,-0.934861 0,0 -11.80676,1.788583 -13.49339,3.53448"
       style="fill:#fabc22;fill-opacity:1;fill-rule:nonzero;stroke:none;stroke-width:0.0352778"
       id="path196" />
    <path
       d="m 114.65146,96.523231 c -0.006,-0.208491 0.007,-0.454377 0.0543,-0.65793 0.0589,-0.252589 -0.28152,-0.507647 -0.47237,-0.274814 -0.2226,0.270933 -0.35807,0.521405 -0.37465,0.881944 -0.0152,0.33267 0.0519,0.694973 0.28434,0.941917 0.20673,0.219428 0.61595,0.05468 0.60431,-0.250119 -0.009,-0.218723 -0.09,-0.421923 -0.096,-0.640998"
       style="fill:#211916;fill-opacity:1;fill-rule:nonzero;stroke:none;stroke-width:0.0352778"
       id="path198" />
    <path
       d="m 117.2666,98.360145 c 0.0931,-0.455789 -0.59125,-0.653344 -0.70308,-0.194028 -0.11607,0.475545 -0.006,1.484136 0.68968,1.3716 0.0843,-0.0134 0.15522,-0.09878 0.17674,-0.176741 0.0967,-0.347839 -0.23848,-0.632884 -0.16334,-1.000831"
       style="fill:#211916;fill-opacity:1;fill-rule:nonzero;stroke:none;stroke-width:0.0352778"
       id="path200" />
    <path
       d="m 121.06284,96.677748 c -0.18662,-0.4318 -0.93309,-0.122061 -0.76588,0.322792 0.14288,0.381352 0.20038,0.76588 0.28223,1.16205 0.0981,0.475544 0.83678,0.35948 0.83502,-0.113242 -10e-4,-0.479778 -0.16298,-0.936625 -0.35137,-1.3716"
       style="fill:#211916;fill-opacity:1;fill-rule:nonzero;stroke:none;stroke-width:0.0352778"
       id="path202" />
    <path
       d="m 123.5397,93.544023 c -0.42581,-0.277283 -0.7673,0.371475 -0.38806,0.663928 0.27587,0.212372 0.3556,0.659694 0.67063,0.795866 0.15593,0.06738 0.3676,0.05644 0.45473,-0.119238 0.26459,-0.5334 -0.32596,-1.072798 -0.7373,-1.340556"
       style="fill:#211916;fill-opacity:1;fill-rule:nonzero;stroke:none;stroke-width:0.0352778"
       id="path204" />
    <path
       d="m 116.56987,92.982401 c -0.13477,0.379589 -0.30092,0.841022 -0.26247,1.24848 0.0162,0.170745 0.1023,0.28575 0.26282,0.344664 0.0649,0.02399 0.12418,0.01164 0.19015,0 0.12417,-0.02187 0.21237,-0.138289 0.24976,-0.249766 0.12312,-0.367948 0.14217,-0.775053 0.25824,-1.151114 0.13828,-0.449792 -0.54434,-0.626886 -0.6985,-0.192264"
       style="fill:#211916;fill-opacity:1;fill-rule:nonzero;stroke:none;stroke-width:0.0352778"
       id="path206" />
    <path
       d="m 122.2704,91.219923 c -0.30762,-0.383469 -0.84525,0.160161 -0.5401,0.540103 0.17462,0.217311 0.33302,0.456494 0.62583,0.506942 0.16968,0.02928 0.3175,-0.06915 0.32667,-0.248709 0.0166,-0.327025 -0.22049,-0.559858 -0.4124,-0.798336"
       style="fill:#211916;fill-opacity:1;fill-rule:nonzero;stroke:none;stroke-width:0.0352778"
       id="path208" />
    <path
       d="m 120.35976,91.675359 c -0.0998,-0.126647 -0.23213,-0.212019 -0.37677,-0.281164 -0.4198,-0.20073 -0.72884,0.34537 -0.36054,0.617009 0.0755,0.05539 0.13617,0.133702 0.20144,0.199672 0.35172,0.356658 0.83008,-0.163336 0.53587,-0.535517"
       style="fill:#211916;fill-opacity:1;fill-rule:nonzero;stroke:none;stroke-width:0.0352778"
       id="path210" />
    <path
       d="m 119.91208,100.27502 c -0.0356,-0.341133 -0.4452,-0.473778 -0.64699,-0.17497 -0.18662,0.27516 -0.24412,0.59019 -0.32809,0.90699 -0.14287,0.53869 0.70556,0.76976 0.83221,0.22966 0.0751,-0.31997 0.17709,-0.63042 0.14287,-0.96168"
       style="fill:#211916;fill-opacity:1;fill-rule:nonzero;stroke:none;stroke-width:0.0352778"
       id="path212" />
    <path
       d="m 113.66827,99.227978 c -0.31009,0.414867 -0.40781,1.086552 0.19403,1.290812 0.35842,0.12206 0.61771,-0.30444 0.46284,-0.602189 -0.0632,-0.121709 -0.0212,-0.136525 0.0631,-0.267759 0.29598,-0.461786 -0.40675,-0.839258 -0.72002,-0.420864"
       style="fill:#211916;fill-opacity:1;fill-rule:nonzero;stroke:none;stroke-width:0.0352778"
       id="path214" />
    <path
       d="m 111.06971,95.523106 c -0.0413,-0.23495 -0.15029,-0.391583 -0.0988,-0.640291 0.10583,-0.508706 -0.64065,-0.724253 -0.78423,-0.216253 -0.11677,0.41275 -0.10548,0.926394 0.20461,1.251655 0.30128,0.315737 0.74437,-0.02117 0.6784,-0.395111"
       style="fill:#211916;fill-opacity:1;fill-rule:nonzero;stroke:none;stroke-width:0.0352778"
       id="path216" />
    <path
       d="m 110.67883,90.911595 c -0.29669,0.377473 -0.65264,1.195917 -0.0808,1.505303 0.11642,0.06315 0.3115,0.06456 0.40252,-0.05186 0.22754,-0.291395 0.11536,-0.645584 0.33267,-0.94862 0.27305,-0.380294 -0.3616,-0.877358 -0.6544,-0.504825"
       style="fill:#211916;fill-opacity:1;fill-rule:nonzero;stroke:none;stroke-width:0.0352778"
       id="path218" />
    <path
       d="m 107.71479,81.830743 c -0.20144,0.386291 -0.27517,0.921808 0.0713,1.250597 0.25153,0.238478 0.65088,0.06209 0.6664,-0.276225 0.008,-0.179211 -0.0741,-0.367595 0.004,-0.541161 0.22048,-0.493536 -0.48084,-0.932039 -0.74119,-0.433211"
       style="fill:#211916;fill-opacity:1;fill-rule:nonzero;stroke:none;stroke-width:0.0352778"
       id="path220" />
    <path
       d="m 110.42659,82.151418 c 0.055,-0.4572 -0.72637,-0.56515 -0.80892,-0.109361 -0.0843,0.465313 0.11007,1.183216 0.71861,1.056569 0.14358,-0.02999 0.22896,-0.175331 0.23672,-0.31115 0.0138,-0.237772 -0.17533,-0.395817 -0.14641,-0.636058"
       style="fill:#211916;fill-opacity:1;fill-rule:nonzero;stroke:none;stroke-width:0.0352778"
       id="path222" />
    <path
       d="m 110.93883,76.292132 c -0.43498,-0.04022 -0.54222,0.706614 -0.10443,0.770114 0.40252,0.05821 0.48155,0.298097 0.73519,0.563386 0.21943,0.229305 0.68192,0.06526 0.65652,-0.271992 -0.0487,-0.636764 -0.70979,-1.007886 -1.28728,-1.061508"
       style="fill:#211916;fill-opacity:1;fill-rule:nonzero;stroke:none;stroke-width:0.0352778"
       id="path224" />
    <path
       d="m 115.12207,75.157246 c -0.12453,-0.464961 -0.54787,-0.784931 -1.00436,-0.888648 -0.51859,-0.117827 -0.73413,0.648406 -0.22014,0.799042 0.2286,0.06703 0.33867,0.220133 0.47061,0.407458 0.25929,0.367242 0.88124,0.157339 0.75389,-0.317852"
       style="fill:#211916;fill-opacity:1;fill-rule:nonzero;stroke:none;stroke-width:0.0352778"
       id="path226" />
    <path
       d="m 118.08293,75.155482 c -0.18168,-0.538339 -0.95426,-0.320675 -0.84667,0.233539 0.0413,0.213077 0.0328,0.430741 0.0201,0.646994 -0.0349,0.613481 0.8823,0.592667 0.94298,0 0.031,-0.301625 -0.0198,-0.59443 -0.11642,-0.880533"
       style="fill:#211916;fill-opacity:1;fill-rule:nonzero;stroke:none;stroke-width:0.0352778"
       id="path228" />
    <path
       d="m 110.96952,73.794465 c -0.24659,0.206728 -0.42192,0.457553 -0.52,0.763764 -0.14922,0.466372 0.54328,0.748242 0.78388,0.330553 0.10407,-0.180975 0.20637,-0.327731 0.36759,-0.462845 0.44097,-0.369358 -0.19367,-0.998008 -0.63147,-0.631472"
       style="fill:#211916;fill-opacity:1;fill-rule:nonzero;stroke:none;stroke-width:0.0352778"
       id="path230" />
    <path
       d="m 108.53182,77.849998 c -0.23459,0.345017 -0.47801,0.855134 -0.26352,1.254125 0.0988,0.183798 0.41557,0.249767 0.55633,0.07161 0.21414,-0.270933 0.21237,-0.623005 0.40534,-0.917575 0.28716,-0.43815 -0.40746,-0.835025 -0.69815,-0.408164"
       style="fill:#211916;fill-opacity:1;fill-rule:nonzero;stroke:none;stroke-width:0.0352778"
       id="path232" />
    <path
       d="m 122.44679,79.079429 c -0.0773,-0.184503 -0.26458,-0.319617 -0.48225,-0.243417 -0.0194,0.0071 -0.0388,0.01376 -0.0579,0.02046 -0.26387,0.09278 -0.43709,0.402873 -0.27058,0.664634 0.10901,0.171097 0.14429,0.324202 0.18662,0.521758 0.0988,0.461433 0.73237,0.390878 0.86607,0 0.12171,-0.356306 -0.003,-0.70485 -0.242,-0.963436"
       style="fill:#211916;fill-opacity:1;fill-rule:nonzero;stroke:none;stroke-width:0.0352778"
       id="path234" />
    <path
       d="m 112.77892,84.053595 c 0,0 1.99778,2.500137 3.16159,2.209095 1.16452,-0.291042 1.4157,-1.905 1.23049,-2.314928 -0.18521,-0.41028 -3.30729,-1.74625 -4.03472,-1.52153 -0.72778,0.225072 -0.88865,1.021644 -0.35736,1.627363"
       style="fill:#251c19;fill-opacity:1;fill-rule:nonzero;stroke:none;stroke-width:0.0352778"
       id="path236" />
    <path
       d="m 120.97571,82.310168 c 0,0 -2.19146,1.21673 -2.09868,1.719791 0.0924,0.502356 0.3041,1.865136 1.17722,1.613606 0.87313,-0.251178 2.65924,-1.931106 2.54,-2.738261 -0.11924,-0.807156 -1.06645,-0.921456 -1.61854,-0.595136"
       style="fill:#251c19;fill-opacity:1;fill-rule:nonzero;stroke:none;stroke-width:0.0352778"
       id="path238" />
    <path
       d="m 124.84462,122.64572 c -2.85715,-1.43827 -5.41867,-3.84175 -7.30003,-6.41138 -0.83961,-1.14688 -1.5755,-2.37737 -2.17875,-3.66466 -0.73308,-1.56351 -1.05199,-3.23709 -1.69792,-4.81788 -0.11395,-0.27905 -0.57256,-0.27482 -0.56515,0.0765 0.0656,3.11996 2.10008,6.56695 3.93841,8.97325 2.07927,2.72168 4.61962,4.58294 7.60553,6.18243 0.22296,0.11924 0.42228,-0.22542 0.19791,-0.33831"
       style="fill:#284e63;fill-opacity:1;fill-rule:nonzero;stroke:none;stroke-width:0.0352778"
       id="path240" />
    <path
       d="m 119.31448,122.75155 c -2.14842,-1.21002 -3.23321,-3.00214 -4.53673,-4.99674 -0.13405,-0.20532 -0.45896,-0.0776 -0.39899,0.16827 0.56268,2.30153 2.72803,4.1141 4.73534,5.17137 0.22542,0.11818 0.42369,-0.21695 0.20038,-0.3429"
       style="fill:#284e63;fill-opacity:1;fill-rule:nonzero;stroke:none;stroke-width:0.0352778"
       id="path242" />
    <path
       d="m 123.15517,134.1812 c -0.0293,-0.39123 -0.58385,-0.3937 -0.61031,0 -0.44661,6.63575 0.16334,13.41473 0.52494,20.04201 0.0173,0.31997 0.51117,0.3242 0.50094,0 -0.21096,-6.6608 0.0825,-13.39638 -0.41557,-20.04201"
       style="fill:#284e63;fill-opacity:1;fill-rule:nonzero;stroke:none;stroke-width:0.0352778"
       id="path244" />
    <path
       d="m 118.98181,130.96563 c -0.0335,-0.2734 -0.48331,-0.40605 -0.53622,-0.0727 -0.46144,2.89878 -0.29352,5.97888 -0.38383,8.91223 -0.097,3.15454 -0.14993,6.30766 -0.32173,9.45973 -0.0113,0.20884 0.30515,0.20426 0.32279,0 0.25859,-3.04624 0.56303,-6.09212 0.73766,-9.14435 0.17074,-2.98062 0.54081,-6.1849 0.18133,-9.15494"
       style="fill:#284e63;fill-opacity:1;fill-rule:nonzero;stroke:none;stroke-width:0.0352778"
       id="path246" />
    <path
       d="m 113.36594,134.988 c -0.77117,2.73756 -0.96732,5.73017 -1.33174,8.54745 -0.39229,3.03389 -0.79445,6.06531 -1.16628,9.10167 -0.03,0.24765 0.39723,0.30727 0.43885,0.0593 0.50342,-3.01802 0.97614,-6.04026 1.45909,-9.06181 0.44803,-2.80317 1.1049,-5.72875 1.14089,-8.5732 0.004,-0.31221 -0.45685,-0.37183 -0.54081,-0.0734"
       style="fill:#284e63;fill-opacity:1;fill-rule:nonzero;stroke:none;stroke-width:0.0352778"
       id="path248" />
    <path
       d="m 107.34085,120.9605 c -0.78423,0.7052 -1.3522,1.6951 -1.81469,2.63313 -0.41346,0.83891 -0.89571,1.82528 -0.87489,2.77213 0.004,0.17957 0.24906,0.25259 0.34219,0.0924 0.4886,-0.83961 0.68968,-1.84115 1.13348,-2.71533 0.45155,-0.8897 1.06927,-1.65065 1.58009,-2.49978 0.14076,-0.23389 -0.17357,-0.45579 -0.36618,-0.28258"
       style="fill:#284e63;fill-opacity:1;fill-rule:nonzero;stroke:none;stroke-width:0.0352778"
       id="path250" />
    <path
       d="m 108.31839,124.58529 c -0.36371,1.18604 -0.3175,2.58833 -0.27799,3.81494 0.009,0.29598 0.46673,0.2981 0.46144,0 -0.0215,-1.26788 0.21131,-2.50084 0.24059,-3.75779 0.006,-0.248 -0.35348,-0.28645 -0.42404,-0.0571"
       style="fill:#284e63;fill-opacity:1;fill-rule:nonzero;stroke:none;stroke-width:0.0352778"
       id="path252" />
    <path
       d="m 122.33814,125.86446 c -1.31904,-0.12065 -2.63596,0.1711 -3.95605,0.10196 -1.32292,-0.0691 -2.5834,-0.53376 -3.88903,-0.70838 -0.18168,-0.0243 -0.26282,0.27975 -0.0949,0.35101 1.25836,0.53728 2.60738,0.61172 3.95182,0.77823 1.36172,0.16828 2.71533,0.39229 4.06012,0.008 0.30692,-0.0875 0.2226,-0.50412 -0.072,-0.53093"
       style="fill:#fabc22;fill-opacity:1;fill-rule:nonzero;stroke:none;stroke-width:0.0352778"
       id="path254" />
    <path
       d="m 120.88645,106.65183 c -0.12488,0.091 -0.22295,0.17287 -0.30162,0.30904 -0.17568,0.30515 -0.0219,0.74718 0.33796,0.83079 0.0187,0.004 0.0374,0.009 0.0561,0.0127 0.42157,0.0977 0.72319,-0.18838 0.77117,-0.58738 0.003,-0.0219 0.005,-0.0434 0.008,-0.0649 0.0504,-0.42086 -0.53622,-0.74436 -0.87171,-0.50023"
       style="fill:#a48c76;fill-opacity:1;fill-rule:nonzero;stroke:none;stroke-width:0.0352778"
       id="path256" />
    <path
       d="m 122.15399,111.76888 c -0.28082,-0.0282 -0.58491,0.0931 -0.86043,0.14746 -0.26882,0.0529 -0.51188,0.0286 -0.67522,0.27375 -0.0536,0.0804 -0.0332,0.20461 0.0349,0.27058 0.22472,0.21661 0.52846,0.11571 0.80822,0.0646 0.30409,-0.0554 0.63359,-0.11818 0.87312,-0.32032 0.18697,-0.15769 0.0169,-0.41628 -0.18062,-0.43603"
       style="fill:#aa9777;fill-opacity:1;fill-rule:nonzero;stroke:none;stroke-width:0.0352778"
       id="path258" />
    <path
       d="m 122.30215,113.54723 c -0.29316,-0.0765 -0.56868,0.0928 -0.82479,0.22437 -0.266,0.13687 -0.0765,0.52951 0.19685,0.46707 0.28892,-0.066 0.58138,-0.11641 0.75988,-0.36724 0.0833,-0.11677 -0.004,-0.29069 -0.13194,-0.3242"
       style="fill:#aa9777;fill-opacity:1;fill-rule:nonzero;stroke:none;stroke-width:0.0352778"
       id="path260" />
    <path
       d="m 125.70046,114.85427 c -0.19015,-0.0508 -0.37677,0.0236 -0.56974,0.008 -0.21237,-0.018 -0.39405,-0.12171 -0.52352,-0.28892 -0.18415,-0.23742 -0.51964,0.0646 -0.39723,0.30656 0.16228,0.32103 0.44521,0.5274 0.7994,0.5902 0.30903,0.055 0.74154,-0.0159 0.83185,-0.36866 0.0265,-0.10442 -0.0339,-0.21872 -0.14076,-0.24694"
       style="fill:#aa9777;fill-opacity:1;fill-rule:nonzero;stroke:none;stroke-width:0.0352778"
       id="path262" />
  </g>
</svg>
