<?xml version="1.0" encoding="UTF-8" standalone="no"?>
<!-- Created with Inkscape (http://www.inkscape.org/) -->

<svg
   width="52.398853mm"
   height="76.105095mm"
   viewBox="0 0 52.398853 76.105095"
   version="1.1"
   id="svg7855"
   inkscape:version="1.2 (dc2aeda, 2022-05-15)"
   sodipodi:docname="hermes.svg"
   xmlns:inkscape="http://www.inkscape.org/namespaces/inkscape"
   xmlns:sodipodi="http://sodipodi.sourceforge.net/DTD/sodipodi-0.dtd"
   xmlns="http://www.w3.org/2000/svg"
   xmlns:svg="http://www.w3.org/2000/svg">
  <sodipodi:namedview
     id="namedview7857"
     pagecolor="#ffffff"
     bordercolor="#666666"
     borderopacity="1.0"
     inkscape:showpageshadow="2"
     inkscape:pageopacity="0.0"
     inkscape:pagecheckerboard="0"
     inkscape:deskcolor="#d1d1d1"
     inkscape:document-units="mm"
     showgrid="false"
     inkscape:zoom="0.914906"
     inkscape:cx="130.06801"
     inkscape:cy="336.1001"
     inkscape:window-width="1390"
     inkscape:window-height="1205"
     inkscape:window-x="2240"
     inkscape:window-y="25"
     inkscape:window-maximized="0"
     inkscape:current-layer="layer1" />
  <defs
     id="defs7852" />
  <g
     inkscape:label="Layer 1"
     inkscape:groupmode="layer"
     id="layer1"
     transform="translate(-70.679835,-59.694284)">
    <path
       d="m 75.881488,72.677783 c 0,0 -2.478617,-4.545542 -3.52425,-4.053417 -1.045987,0.492125 -2.220736,5.052483 -1.404056,5.443361 0.816681,0.390525 1.762125,-0.608189 1.762125,-0.608189 0,0 0.04304,0.702381 0.630414,0.698853 0.587375,-0.0039 0.730603,-0.249767 0.730603,-0.249767 0,0 0.143227,0.433917 0.687564,0.419453 0.544336,-0.01446 1.618897,0.05786 1.1176,-1.650294"
       style="fill:#f6842d;fill-opacity:1;fill-rule:nonzero;stroke:none;stroke-width:0.0352778"
       id="path738" />
    <path
       d="m 76.159476,72.692952 c 0,0 1.140178,-5.125508 2.816225,-4.589639 1.676048,0.535517 3.166181,4.373386 2.779184,4.850342 -0.386645,0.476955 -1.948392,-0.448028 -1.948392,-0.448028 0,0 -0.558447,1.344789 -1.475317,0.584553 0,0 -0.946502,1.180042 -1.633361,0.7747 -0.686858,-0.405342 -0.538339,-1.171928 -0.538339,-1.171928"
       style="fill:#f6842d;fill-opacity:1;fill-rule:nonzero;stroke:none;stroke-width:0.0352778"
       id="path740" />
    <path
       d="m 75.809521,73.155444 c 0,0 2.750608,29.098876 2.965803,29.098876 0.214841,0 0.73025,-0.21731 0.73025,-0.43427 0,-0.21696 -2.965098,-28.397906 -3.266017,-28.987045 -0.300919,-0.589492 -0.491067,-0.322792 -0.430036,0.322439"
       style="fill:#743f18;fill-opacity:1;fill-rule:nonzero;stroke:none;stroke-width:0.0352778"
       id="path742" />
    <path
       d="m 75.840918,80.605758 c 0.830439,-0.64382 2.017536,-0.302331 2.879372,-0.770467 2.879725,-1.565275 -3.351741,-4.688064 -4.399844,-5.118806 -0.385939,-0.158397 -0.559506,0.434623 -0.201789,0.607484 1.028347,0.497064 1.955094,1.116189 2.827867,1.850672 0.203552,0.170744 1.122538,0.742244 1.158169,1.0414 0.06985,0.589492 -0.671689,0.7747 -1.018822,0.926042 -0.818797,0.356305 -2.429933,0.493536 -2.790825,1.501775 -0.228247,0.637469 0.232833,1.074561 0.6985,1.399116 0.585258,0.408164 2.2733,0.728486 2.582686,1.308806 0.213078,0.40005 -0.27305,1.58115 -0.359481,2.106789 -0.06526,0.39758 0.574323,0.51188 0.685095,0.132291 0.39123,-1.337733 1.625247,-1.89865 0.125589,-2.929819 -0.557036,-0.382764 -1.216025,-0.647347 -1.811867,-0.968022 -0.638528,-0.343253 -1.274939,-0.388761 -0.37465,-1.087261"
       style="fill:#f6842d;fill-opacity:1;fill-rule:nonzero;stroke:none;stroke-width:0.0352778"
       id="path744" />
    <path
       d="m 77.846107,80.418433 c -0.933803,-0.478014 -2.037997,0.07902 -2.970742,-0.220487 -3.116086,-1.00083 2.437695,-5.232399 3.389136,-5.851172 0.350309,-0.228247 0.629356,0.322792 0.309034,0.559506 -0.920045,0.680155 -1.717323,1.461558 -2.44087,2.345619 -0.168627,0.206375 -0.967669,0.939095 -0.947914,1.240014 0.03881,0.592314 0.801512,0.636411 1.170517,0.72002 0.86995,0.197555 2.478264,0.03175 3.017308,0.955322 0.340431,0.583847 -0.03281,1.099961 -0.431094,1.505655 -0.500592,0.510117 -2.101145,1.139825 -2.299053,1.768122 -0.136172,0.432859 0.557036,1.502834 0.738364,2.003425 0.136525,0.378178 -0.470958,0.609953 -0.649464,0.257881 -0.629003,-1.241778 -1.944158,-1.562806 -0.658283,-2.856089 0.477308,-0.48013 1.076678,-0.863247 1.603375,-1.289403 0.564797,-0.456847 1.182158,-0.61983 0.169686,-1.138413"
       style="fill:#f6842d;fill-opacity:1;fill-rule:nonzero;stroke:none;stroke-width:0.0352778"
       id="path746" />
    <path
       d="m 74.069268,70.666949 c -0.329847,-0.430741 -0.726369,-1.040341 -1.285875,-1.159227 -0.145697,-0.03069 -0.33655,0.07055 -0.319617,0.246239 0.05292,0.552802 0.492831,0.989894 0.800806,1.426986 0.318558,0.451908 0.582436,1.077736 1.057981,1.373011 0.242711,0.150636 0.623358,-0.04022 0.598311,-0.347134 -0.04833,-0.587727 -0.504473,-1.086908 -0.851606,-1.539875"
       style="fill:#f4f584;fill-opacity:1;fill-rule:nonzero;stroke:none;stroke-width:0.0352778"
       id="path748" />
    <path
       d="m 80.273571,69.710216 c -0.269875,-0.374297 -0.636764,-0.909108 -1.1176,-1.004711 -0.37077,-0.07408 -0.624064,0.130175 -0.804334,0.432858 -0.328436,0.551745 -0.702027,1.066095 -1.040694,1.614664 -0.09948,0.160867 0.144992,0.362303 0.265642,0.207434 0.217664,-0.279048 0.414514,-0.559153 0.610305,-0.853723 0.171803,-0.25788 0.334434,-0.678039 0.664634,-0.51188 0.653344,0.329141 0.841375,1.333147 1.40088,1.776941 0.233539,0.185562 0.554567,0.07126 0.57785,-0.241652 0.03845,-0.519995 -0.262819,-1.011767 -0.556683,-1.419931"
       style="fill:#f4f584;fill-opacity:1;fill-rule:nonzero;stroke:none;stroke-width:0.0352778"
       id="path750" />
    <path
       d="m 81.010171,71.535136 c -0.515056,0 -0.516114,0.808919 0,0.808919 0.515055,0 0.515761,-0.808919 0,-0.808919"
       style="fill:#f4f584;fill-opacity:1;fill-rule:nonzero;stroke:none;stroke-width:0.0352778"
       id="path752" />
    <path
       d="m 72.156507,70.559705 c -0.466725,0 -0.467431,0.733072 0,0.733072 0.466725,0 0.467431,-0.733072 0,-0.733072"
       style="fill:#f4f584;fill-opacity:1;fill-rule:nonzero;stroke:none;stroke-width:0.0352778"
       id="path754" />
    <path
       d="m 111.66233,131.42093 c 0,0 0.4579,-1.93111 1.43051,-2.6028 0.97296,-0.67169 2.33821,-0.90029 2.43769,-1.87113 0.0991,-0.97085 -1.63195,-3.48227 -2.3248,-3.2512 -0.6925,0.23071 -0.25435,1.35396 -0.28293,1.3395 -0.0289,-0.0148 -0.75741,-0.55634 -0.95603,-0.0861 -0.19826,0.47025 0.0395,1.10243 0.0395,1.10243 0,0 -0.7814,-0.48331 -0.92322,0.23495 -0.14146,0.71825 0.20673,1.49154 0.20673,1.49154 0,0 -0.71049,-0.26458 -0.73624,0.26952 -0.0258,0.53376 0.61136,1.21074 0.7112,1.46862 0.10018,0.25753 -0.31821,1.79564 -0.001,1.9812 0.31645,0.18556 0.31221,0.0497 0.399,-0.0765"
       style="fill:#d6c68d;fill-opacity:1;fill-rule:nonzero;stroke:none;stroke-width:0.0352778"
       id="path756" />
    <path
       d="m 92.088451,115.63165 c 0,0 1.549047,1.22202 1.750131,2.39501 0.201436,1.17334 -0.159103,2.52377 0.673805,3.01766 0.832908,0.49389 3.812469,-0.0564 3.891844,-0.78881 0.07937,-0.73272 -1.113366,-0.79551 -1.088672,-0.81598 0.0254,-0.0201 0.814917,-0.46566 0.473781,-0.84349 -0.341136,-0.37782 -1.008945,-0.42086 -1.008945,-0.42086 0,0 0.759531,-0.51823 0.17145,-0.94615 -0.587727,-0.42827 -1.428397,-0.42863 -1.428397,-0.42863 0,0 0.532695,-0.54363 0.06244,-0.78881 -0.470253,-0.24518 -1.344083,0.0596 -1.617486,0.0444 -0.273403,-0.0148 -1.484842,-1.03716 -1.783292,-0.82303 -0.298097,0.21414 -0.173919,0.26635 -0.09666,0.39864"
       style="fill:#d6c68d;fill-opacity:1;fill-rule:nonzero;stroke:none;stroke-width:0.0352778"
       id="path758" />
    <path
       d="m 107.63396,117.65836 c 0,0 -1.41852,16.27152 -9.927876,13.10111 -8.509705,-3.17042 -6.146094,-14.50587 -6.532738,-15.15745 -0.386998,-0.65123 -2.471562,0.82515 -2.750609,0 -0.2794,-0.82515 3.717572,-3.84457 4.619978,-3.03001 0.902758,0.81492 -0.809272,11.77396 4.9784,14.1485 5.788025,2.37385 6.086825,-10.88672 6.086825,-10.88672 0,0 3.51155,-0.40393 3.52602,1.82457"
       style="fill:#fbc772;fill-opacity:1;fill-rule:nonzero;stroke:none;stroke-width:0.0352778"
       id="path760" />
    <path
       d="m 89.748829,113.8787 c 0,0 -0.487892,0.91652 0.103011,1.75965 0,0 1.409347,-0.48824 1.363133,0.70062 0,0 0.872772,-0.72319 2.232378,-0.28787 l -0.06174,-1.29787 c 0,0 -1.984022,-0.002 -2.135717,-1.87325 0,0 -0.992716,0.47343 -1.501069,0.99872"
       style="fill:#f6842d;fill-opacity:1;fill-rule:nonzero;stroke:none;stroke-width:0.0352778"
       id="path762" />
    <path
       d="m 92.688173,115.34132 c 0,0 1.912761,-0.45579 2.943931,0.11959 1.031522,0.57538 1.848202,1.70462 2.750608,1.35749 0.902758,-0.34784 2.342448,-3.0406 1.826688,-3.56165 -0.515766,-0.5214 -1.310927,0.37994 -1.310927,0.34749 0,-0.0328 0.150636,-0.93381 -0.354542,-0.90135 -0.504825,0.0325 -0.95638,0.53199 -0.95638,0.53199 0,0 0.07549,-0.92287 -0.623006,-0.72708 -0.6985,0.19509 -1.224844,0.85725 -1.224844,0.85725 0,0 -0.08608,-0.75988 -0.569383,-0.54257 -0.483659,0.21731 -0.795161,1.09679 -0.9779,1.30316 -0.182739,0.20603 -1.730023,0.5207 -1.751542,0.89006 -0.02117,0.36901 0.09701,0.30374 0.247297,0.32562"
       style="fill:#fce9a1;fill-opacity:1;fill-rule:nonzero;stroke:none;stroke-width:0.0352778"
       id="path764" />
    <path
       d="m 98.016881,114.96667 c -0.211666,0.11641 -0.09349,0.40428 0.113595,0.42439 0.08749,0.008 0.220839,0.0554 0.222955,0.15839 0.0085,0.43004 0.614892,0.41663 0.651934,0 0.05151,-0.58349 -0.535164,-0.83149 -0.988484,-0.58278"
       style="fill:#d6c68d;fill-opacity:1;fill-rule:nonzero;stroke:none;stroke-width:0.0352778"
       id="path766" />
    <path
       d="m 97.822148,114.48265 c -0.06985,-0.17885 -0.167217,-0.31362 -0.354894,-0.37535 -0.08643,-0.0282 -0.172156,-0.0339 -0.262467,-0.0176 -0.152047,0.0275 -0.223661,0.15346 -0.373592,0.18591 -0.205316,0.0444 -0.04127,0.38947 0.130881,0.22684 0.03245,-0.031 0.321028,-0.0614 0.328083,0.0529 0.02646,0.42404 0.668514,0.27799 0.531989,-0.0727"
       style="fill:#d6c68d;fill-opacity:1;fill-rule:nonzero;stroke:none;stroke-width:0.0352778"
       id="path768" />
    <path
       d="m 96.079779,114.02687 c -0.217664,-0.28223 -0.600428,-0.26494 -0.832556,-0.012 -0.128764,0.14076 0.04057,0.39476 0.211667,0.27693 0.105128,-0.0723 0.276578,0.18697 0.388761,0.22155 0.0702,0.0222 0.146403,-0.003 0.198261,-0.0529 0.01129,-0.0106 0.02258,-0.0219 0.03387,-0.0325 0.119591,-0.11465 0.09137,-0.28257 0,-0.4011"
       style="fill:#d6c68d;fill-opacity:1;fill-rule:nonzero;stroke:none;stroke-width:0.0352778"
       id="path770" />
    <path
       d="m 97.183268,113.36223 c -0.301273,-0.19332 -0.656167,-0.14922 -0.881239,0.139 -0.111125,0.14252 0.03351,0.40216 0.211666,0.27693 0.162984,-0.1136 0.351367,0.12206 0.510823,0.15204 0.118886,0.0226 0.249061,-0.0321 0.280811,-0.16122 l 0.01587,-0.0642 c 0.03316,-0.13476 -0.02293,-0.26882 -0.137936,-0.34255"
       style="fill:#d6c68d;fill-opacity:1;fill-rule:nonzero;stroke:none;stroke-width:0.0352778"
       id="path772" />
    <path
       d="m 99.121076,114.04838 c -0.262467,-0.32914 -0.600075,-0.33549 -0.914047,-0.0907 -0.09913,0.0776 -0.08819,0.28787 0.07338,0.2734 0.203553,-0.0187 0.314325,0.31292 0.471312,0.41981 0.122413,0.0836 0.327025,0.03 0.392994,-0.10407 l 0.0321,-0.0649 c 0.07726,-0.15734 0.05009,-0.30163 -0.05574,-0.43357"
       style="fill:#d6c68d;fill-opacity:1;fill-rule:nonzero;stroke:none;stroke-width:0.0352778"
       id="path774" />
    <path
       d="m 114.85426,115.02135 c 0,0 5.2003,6.26991 3.82482,13.17554 -1.37513,6.90562 -5.19924,4.47357 -7.86448,1.21638 -1.63336,-1.04246 -2.06304,5.01579 -1.76248,5.38515 0.30092,0.36901 2.02001,-1.97591 2.02001,-1.97591 0,0 6.23182,7.23121 10.65883,-0.84702 4.42665,-8.07826 -3.39549,-20.84669 -4.25521,-21.49827 -0.85937,-0.65159 -2.87937,3.78953 -2.62149,4.54413"
       style="fill:#fbc772;fill-opacity:1;fill-rule:nonzero;stroke:none;stroke-width:0.0352778"
       id="path776" />
    <path
       d="m 102.60546,82.724894 c 0.043,0 1.87678,-0.53587 3.0801,0.550333 1.20368,1.085497 6.4897,3.488619 9.64142,2.185811 3.15172,-1.303161 2.32093,-7.445022 2.32093,-7.445022 0,0 -1.80517,-0.763411 -1.46121,-1.404056 0.34396,-0.640644 1.37513,-0.31503 1.37513,-0.31503 0,0 -0.23601,-2.627489 0.40851,-2.638072 0.64453,-0.01129 0.86995,1.574447 0.86995,1.574447 0,0 0.24765,-1.889478 0.78458,-1.650647 0.53728,0.23883 0.5588,1.889125 0.5588,1.889125 0,0 0.42969,-1.465792 0.89147,-1.10737 0.46214,0.35807 0.054,1.900061 0.054,1.900061 0,0 0.69814,-1.031169 0.99942,-0.477661 0.30056,0.553509 -0.387,3.050822 -1.85914,3.398661 -0.12877,3.159478 -0.5588,14.556317 -14.99905,7.838722 l -2.66489,-4.299302"
       style="fill:#fbc772;fill-opacity:1;fill-rule:nonzero;stroke:none;stroke-width:0.0352778"
       id="path778" />
    <path
       d="m 93.515437,80.379627 c 0,0 1.010003,2.866319 0.30092,3.431117 -0.709084,0.564444 -4.040011,0.825147 -4.577292,2.127955 -0.537281,1.303161 -0.623006,8.338608 -2.492728,7.948083 -1.869369,-0.39123 -7.191375,-6.833658 -8.380588,-7.151863 -1.189214,-0.318206 -2.732617,0.02081 -2.829631,0.633941 -0.09701,0.613128 0.347839,0.858661 0.347839,0.858661 0,0 -0.485422,0.498475 -0.226483,0.997303 0.258939,0.498475 0.639233,0.580319 0.639233,0.580319 0,0 -0.299508,0.441325 -0.03246,0.776464 0.267053,0.335492 0.493536,0.343606 0.493536,0.343606 0,0 -0.194027,0.678392 0.331612,0.89923 0.525991,0.220839 2.427111,-0.343605 2.427111,-0.343605 0,0 7.358944,7.414683 9.278408,6.227939 1.919816,-1.18745 2.55023,-7.730772 2.808111,-7.788981 0.25788,-0.05786 5.157611,6.799086 6.790619,10.116604 1.633016,3.31788 2.750616,-11.650834 1.833746,-13.793606 -0.916876,-2.142773 -2.120554,-3.040239 -2.120554,-3.040239 0,0 -0.97402,-0.01446 -1.475317,-0.825147 -0.50165,-0.810684 -0.472722,-2.200628 -0.472722,-2.200628 l -2.643364,0.202847"
       style="fill:#fbc772;fill-opacity:1;fill-rule:nonzero;stroke:none;stroke-width:0.0352778"
       id="path780" />
    <path
       d="m 99.56487,67.285222 c 0,0 0.84878,0.423686 0.93451,1.280936 0.0861,0.857955 -0.27905,1.151114 -0.27905,1.151114 0,0 0.49848,0.420864 0.34325,1.144411 -0.15487,0.7239 -1.127826,0.228247 -1.127826,0.228247 0,0 -1.353609,-3.620205 0.129116,-3.804708"
       style="fill:#c45f2e;fill-opacity:1;fill-rule:nonzero;stroke:none;stroke-width:0.0352778"
       id="path782" />
    <path
       d="m 99.253368,67.19103 c 0,0 1.988962,4.371975 1.066092,9.49713 -0.923217,5.124803 -6.681962,5.587648 -9.289695,2.518834 -1.546931,1.4478 -4.727222,-3.098095 -1.919464,-3.5179 -0.658989,-3.932767 3.466747,-9.888008 10.143067,-8.498064"
       style="fill:#fbc772;fill-opacity:1;fill-rule:nonzero;stroke:none;stroke-width:0.0352778"
       id="path784" />
    <path
       d="m 96.953609,65.727355 c 0,0 -0.751769,-3.306586 0.537281,-4.913136 1.289403,-1.607255 5.65185,-1.172986 5.69454,-0.608189 0.0434,0.564797 -1.09573,1.302809 -1.09573,1.302809 0,0 2.08456,1.020586 1.78365,1.628774 -0.30092,0.607837 -1.74061,0.868539 -1.74061,0.868539 0,0 0.42968,0.781756 0.19332,1.08585 -0.23636,0.304095 -1.63301,0.151695 -1.63301,0.151695 0,0 0.36513,0.369358 -0.23636,0.782108 -0.601836,0.412397 -3.39125,0.342547 -3.503081,-0.29845"
       style="fill:#fce9a1;fill-opacity:1;fill-rule:nonzero;stroke:none;stroke-width:0.0352778"
       id="path786" />
    <path
       d="m 99.253368,64.744516 c 0,0 0.200377,0.998714 -0.200731,1.592439 -0.401108,0.593372 -5.386564,0.318558 -5.386564,0.318558 0,0 2.850797,-2.070452 5.587295,-1.910997"
       style="fill:#743f18;fill-opacity:1;fill-rule:nonzero;stroke:none;stroke-width:0.0352778"
       id="path788" />
    <path
       d="m 88.164857,75.168041 c 0,0 0.06421,1.128889 0.945444,0.521053 0.881239,-0.608189 0.709083,-2.301875 0.709083,-2.301875 0,0 1.719086,-0.06491 1.955448,-1.237897 0.236361,-1.172634 0,-2.062692 0,-2.062692 0,0 0.773641,0.542925 1.547283,0.151694 0.773642,-0.390877 0.709083,-1.194152 0.709083,-1.194152 0,0 1.053042,0.521052 1.869722,0 0.816681,-0.521406 0.687564,-1.151114 0.687564,-1.151114 0,0 2.836686,0.542925 3.352447,-0.6731 0.515759,-1.216025 -0.687563,-1.368072 -0.687563,-1.368072 0,0 -0.494595,-1.433336 -2.320925,-1.10737 -1.826684,0.325614 -10.766072,5.168195 -8.767586,10.423525"
       style="fill:#c45f2e;fill-opacity:1;fill-rule:nonzero;stroke:none;stroke-width:0.0352778"
       id="path790" />
    <path
       d="m 88.164857,75.515174 c 0,0 2.707569,-9.207147 11.088511,-10.770658 -2.707923,-1.08585 -9.799109,-2.82328 -12.764911,1.823861 -2.96545,4.647142 1.6764,8.946797 1.6764,8.946797"
       style="fill:#f6842d;fill-opacity:1;fill-rule:nonzero;stroke:none;stroke-width:0.0352778"
       id="path792" />
    <path
       d="m 87.735173,74.69038 c 0,0 -4.383969,-2.910064 -6.210652,-0.977547 -1.826684,1.932869 -2.256367,4.668661 -1.719086,5.0165 0.53728,0.347133 1.353608,-0.586317 1.353608,-0.586317 0,0 -0.386644,1.259417 0.5588,1.216025 0.945797,-0.04339 1.160639,-0.999067 1.160639,-0.999067 0,0 0.472722,0.955675 1.181805,0.629709 0.709084,-0.325614 1.13912,-1.758598 1.13912,-1.758598 0,0 0.558447,0.542573 1.052689,0.130175 0.494241,-0.41275 0.408516,-1.650647 0.408516,-1.650647 0,0 1.912409,-0.08678 1.074561,-1.020233"
       style="fill:#fce9a1;fill-opacity:1;fill-rule:nonzero;stroke:none;stroke-width:0.0352778"
       id="path794" />
    <path
       d="m 93.111154,71.033486 c -0.396522,0.112183 -0.889353,0.249061 -1.116189,0.623358 -0.07832,0.129469 -0.01058,0.347486 0.150989,0.37465 0.365125,0.06244 0.718608,-0.0889 1.081969,-0.126295 0.644525,-0.06632 0.490714,-1.043516 -0.116769,-0.871713"
       style="fill:#c45f2e;fill-opacity:1;fill-rule:nonzero;stroke:none;stroke-width:0.0352778"
       id="path796" />
    <path
       d="m 98.143529,69.919061 c -0.381706,-0.03563 -0.827617,-0.0049 -1.161698,0.200377 -0.241652,0.147814 -0.226836,0.59302 0.08431,0.651581 0.35172,0.06668 0.72002,0.04657 1.077384,0.08749 0.589139,0.06738 0.594783,-0.883356 0,-0.939447"
       style="fill:#c45f2e;fill-opacity:1;fill-rule:nonzero;stroke:none;stroke-width:0.0352778"
       id="path798" />
    <path
       d="m 93.036718,73.616172 c -0.03986,-0.213784 -0.04833,-0.44062 -0.111478,-0.648053 -0.156986,-0.513292 -0.964495,-0.5842 -1.086203,0 -0.107597,0.517525 0.0042,1.183922 0.238125,1.653822 0.252942,0.508 1.169811,0.295981 1.096433,-0.304447 -0.02928,-0.239184 -0.09243,-0.464961 -0.136877,-0.701322"
       style="fill:#040606;fill-opacity:1;fill-rule:nonzero;stroke:none;stroke-width:0.0352778"
       id="path800" />
    <path
       d="m 91.797409,73.284208 c -0.101952,0.04939 -0.18168,0.03034 -0.256116,0.1524 -0.05151,0.08396 -0.06667,0.18168 -0.02011,0.271639 0.07373,0.142169 0.164748,0.136525 0.276225,0.187325 0.231423,0.105127 0.519642,-0.01482 0.519642,-0.305859 0,-0.286103 -0.288925,-0.416983 -0.519642,-0.305505"
       style="fill:#ffffff;fill-opacity:1;fill-rule:nonzero;stroke:none;stroke-width:0.0352778"
       id="path802" />
    <path
       d="m 98.639181,72.115808 c -0.04022,-0.206728 -0.04868,-0.426509 -0.112183,-0.627592 -0.156986,-0.496358 -0.967317,-0.564797 -1.089025,0 -0.10795,0.501297 0.0039,1.146175 0.238478,1.600906 0.253647,0.491419 1.173339,0.286455 1.099608,-0.294217 -0.02928,-0.231775 -0.09243,-0.450497 -0.136878,-0.679097"
       style="fill:#040606;fill-opacity:1;fill-rule:nonzero;stroke:none;stroke-width:0.0352778"
       id="path804" />
    <path
       d="m 97.396345,71.79478 c -0.102305,0.04727 -0.182386,0.02963 -0.257175,0.147461 -0.0515,0.08114 -0.06667,0.176036 -0.02011,0.263172 0.07408,0.136878 0.165453,0.131939 0.277283,0.180623 0.232128,0.101952 0.521053,-0.01446 0.521053,-0.295981 0,-0.276931 -0.28963,-0.403225 -0.521053,-0.295275"
       style="fill:#ffffff;fill-opacity:1;fill-rule:nonzero;stroke:none;stroke-width:0.0352778"
       id="path806" />
    <path
       d="m 95.615523,71.468108 c 0,0 0.226836,1.503891 0.72002,2.174522 0.493536,0.670278 0.893586,1.104194 0.40005,1.872544 -0.493536,0.768703 -1.233311,0.743656 -1.686278,-0.44203 -0.452967,-1.185334 -0.0889,-3.449814 0.566208,-3.605036"
       style="fill:#f57f4a;fill-opacity:1;fill-rule:nonzero;stroke:none;stroke-width:0.0352778"
       id="path808" />
    <path
       d="m 96.020159,77.092444 c 0,0 -1.763536,0.768702 -2.888191,0.547864 0.113241,1.242483 0.914047,1.504597 1.804105,1.160991 0.890059,-0.343605 1.084086,-1.708855 1.084086,-1.708855"
       style="fill:#ffffff;fill-opacity:1;fill-rule:nonzero;stroke:none;stroke-width:0.0352778"
       id="path810" />
    <path
       d="m 89.445793,76.50401 c 0,0 -0.770467,-0.275519 -0.793045,0.823031 -0.02223,1.098197 1.585736,1.771297 1.893006,1.171575 0.307622,-0.59937 -0.5715,-1.858433 -1.099961,-1.994606"
       style="fill:#cfa762;fill-opacity:1;fill-rule:nonzero;stroke:none;stroke-width:0.0352778"
       id="path812" />
    <path
       d="m 82.224432,75.942388 c -0.0081,-0.01411 -0.01658,-0.02822 -0.02505,-0.04233 -0.03951,-0.06632 -0.121356,-0.124531 -0.201789,-0.11677 -0.188031,0.01799 -0.47872,0.356306 -0.565856,0.06985 -0.121355,-0.399344 -0.747183,-0.226836 -0.620889,0.173214 0.198967,0.630414 1.049867,0.867481 1.413581,0.233186 0.05539,-0.09666 0.05715,-0.220486 0,-0.317147"
       style="fill:#d6c68d;fill-opacity:1;fill-rule:nonzero;stroke:none;stroke-width:0.0352778"
       id="path814" />
    <path
       d="m 83.96151,75.676041 c -0.271639,0.02434 -0.595137,0.293864 -0.774348,-0.07867 -0.116064,-0.242006 -0.472722,-0.02999 -0.357011,0.210961 0.137936,0.287514 0.320675,0.494947 0.652286,0.524933 0.277284,0.02505 0.626534,-0.08467 0.678392,-0.392642 0.02046,-0.121355 -0.05327,-0.277636 -0.199319,-0.264583"
       style="fill:#d6c68d;fill-opacity:1;fill-rule:nonzero;stroke:none;stroke-width:0.0352778"
       id="path816" />
    <path
       d="m 82.610371,77.518247 c -0.248003,0.108655 -0.324203,-0.01446 -0.493536,-0.178859 -0.176742,-0.170744 -0.412398,-0.03104 -0.440267,0.184503 -0.09349,0.716844 0.907697,0.93733 1.334911,0.519994 0.291042,-0.283633 -0.07726,-0.667102 -0.401108,-0.525638"
       style="fill:#d6c68d;fill-opacity:1;fill-rule:nonzero;stroke:none;stroke-width:0.0352778"
       id="path818" />
    <path
       d="m 85.606865,75.928983 c -0.119944,-0.04163 -0.227542,7.05e-4 -0.340078,0.03634 -0.02893,0.0092 -0.09631,0.02716 -0.124177,0.04163 -0.04868,-0.08608 -0.144639,-0.149225 -0.23742,-0.157339 -0.101953,-0.0092 -0.178858,0.0067 -0.262467,0.06738 -0.170744,0.123825 -0.225425,0.312561 -0.131938,0.507647 0.221544,0.459317 1.04528,0.513292 1.272469,0.02117 0.08819,-0.1905 0.0381,-0.442736 -0.176389,-0.516819"
       style="fill:#d6c68d;fill-opacity:1;fill-rule:nonzero;stroke:none;stroke-width:0.0352778"
       id="path820" />
    <path
       d="m 99.801231,61.197689 c -0.121002,-0.188384 -0.396169,-0.02434 -0.297038,0.175683 0.123119,0.24765 -0.02893,0.500592 -0.162631,0.711905 -0.06385,0.09984 -0.05574,0.233187 0,0.334081 0.04692,0.08572 0.106539,0.123119 0.195792,0.1524 0.141816,0.04657 0.293864,-0.03246 0.370064,-0.1524 0.258582,-0.407811 0.138292,-0.840317 -0.106187,-1.221669"
       style="fill:#d6c68d;fill-opacity:1;fill-rule:nonzero;stroke:none;stroke-width:0.0352778"
       id="path822" />
    <path
       d="m 101.44694,61.964627 c -0.30304,-0.311502 -0.75318,0.153812 -0.47096,0.475898 0.1651,0.188383 0.0998,0.395816 -0.0138,0.590902 -0.13617,0.234598 0.13829,0.5207 0.37254,0.376414 0.53128,-0.328083 0.52493,-1.018822 0.11218,-1.443214"
       style="fill:#d6c68d;fill-opacity:1;fill-rule:nonzero;stroke:none;stroke-width:0.0352778"
       id="path824" />
    <path
       d="m 100.07534,63.639263 c -0.224367,-0.205316 -0.621947,0.06174 -0.438856,0.342195 0.08008,0.122767 -0.0508,0.252589 -0.09278,0.373592 -0.04198,0.119944 0.04762,0.26423 0.1651,0.293863 0.604306,0.152753 0.736246,-0.672041 0.366536,-1.00965"
       style="fill:#d6c68d;fill-opacity:1;fill-rule:nonzero;stroke:none;stroke-width:0.0352778"
       id="path826" />
    <path
       d="m 94.488045,64.407261 c -2.510013,-0.623006 -5.565069,0.944386 -7.017808,2.981325 -0.144639,0.202847 0.138642,0.477661 0.337961,0.341841 1.05022,-0.71508 2.074686,-1.329619 3.283656,-1.745544 1.123244,-0.386645 2.249311,-0.392642 3.396191,-0.609247 0.489303,-0.09207 0.457553,-0.855134 0,-0.968375"
       style="fill:#f4f584;fill-opacity:1;fill-rule:nonzero;stroke:none;stroke-width:0.0352778"
       id="path828" />
    <path
       d="m 95.931259,64.615047 c -0.321733,-0.539045 -1.159227,-0.08573 -0.875947,0.483305 0.297745,0.598664 1.216378,0.08819 0.875947,-0.483305"
       style="fill:#f4f584;fill-opacity:1;fill-rule:nonzero;stroke:none;stroke-width:0.0352778"
       id="path830" />
    <path
       d="m 99.761015,106.01775 c 0,0 -0.622653,2.95381 0.552095,4.86481 1.17475,1.91099 2.23485,3.59022 2.1777,5.21158 -0.0571,1.62137 -1.74766,1.50566 -0.63041,3.27166 1.1176,1.76636 5.07153,-0.66569 5.70194,-0.66569 0.63042,0 1.79811,0.98461 2.74708,0.63677 0.94898,-0.34714 1.78012,-2.72168 2.52483,-2.8374 0.74472,-0.11571 1.37548,0.63712 2.63631,-0.5789 1.26048,-1.21638 0.20038,-2.51919 0.91652,-3.30095 0.71649,-0.78175 1.89124,-1.47637 1.71908,-2.57704 -0.1718,-1.09996 -4.79495,-9.10061 -8.19961,-8.70514 -1.51342,0.36689 -10.145535,4.6803 -10.145535,4.6803"
       style="fill:#d8b694;fill-opacity:1;fill-rule:nonzero;stroke:none;stroke-width:0.0352778"
       id="path832" />
    <path
       d="m 109.74604,100.34967 c -0.16581,-0.446616 -0.89747,-0.42298 -0.87595,0.11959 0.18591,4.67925 -5.42537,4.6101 -8.63212,4.80166 -0.11747,0.007 -0.22013,0.0695 -0.299155,0.15522 -0.372181,0.13476 -0.73025,0.53411 -1.000831,0.75248 -0.553861,0.44732 -1.055158,0.94544 -1.511653,1.49366 -0.20073,0.24024 0.136525,0.5902 0.345723,0.3489 0.438502,-0.50589 0.914752,-0.97332 1.441802,-1.38466 0.230364,-0.17956 0.587023,-0.32138 0.864304,-0.51294 0.59408,0.25365 1.34479,0.38912 2.17064,0.40852 -0.50517,0.57432 -1.03575,1.06504 -1.78294,1.40123 -0.950379,0.42792 -1.897587,0.53623 -2.927698,0.53799 -0.428625,10e-4 -0.557742,0.71967 -0.104775,0.78387 2.083506,0.29634 4.542723,-0.86183 5.615163,-2.73967 3.64525,-0.21872 8.08143,-2.43417 6.69749,-6.16585"
       style="fill:#743f18;fill-opacity:1;fill-rule:nonzero;stroke:none;stroke-width:0.0352778"
       id="path834" />
    <path
       d="m 97.906462,83.043099 c 0,0 4.183238,12.55148 0.171803,16.808097 -0.687564,0.694974 1.203678,3.474154 1.203678,3.474154 0,0 -1.432631,1.15852 -0.630414,2.28777 0.802216,1.12888 8.051091,-0.0579 9.942331,-2.22956 1.89089,-2.1717 2.46416,-4.400903 0.45826,-9.323211 -2.00554,-4.921956 -5.55836,-12.6238 -7.2203,-11.813469 -0.45826,0.2032 -0.5588,0.46355 -0.5588,0.46355 0,0 -1.14582,-0.593725 -1.762125,-0.405342 -0.61595,0.188383 -0.730602,0.636764 -0.730602,0.636764 0,0 -0.787753,-0.564444 -0.873831,0.101247"
       style="fill:#d8b694;fill-opacity:1;fill-rule:nonzero;stroke:none;stroke-width:0.0352778"
       id="path836" />
    <path
       d="m 98.597906,107.4151 c 0,0 -1.51518,-1.00965 -3.202163,0.41275 -1.686631,1.4224 0.333022,1.83939 1.848202,1.47356 1.514828,-0.36583 2.063045,-1.43016 1.353961,-1.88631"
       style="fill:#a75c1e;fill-opacity:1;fill-rule:nonzero;stroke:none;stroke-width:0.0352778"
       id="path838" />
    <path
       d="m 103.93014,94.260374 c -0.0279,-3.268133 -0.46037,-7.266164 -2.21826,-10.085211 -0.21273,-0.341136 -0.71579,-0.118533 -0.63359,0.269875 0.64029,3.019072 1.73108,5.758744 1.96567,8.889647 0.2159,2.878314 0.32597,6.212064 -1.69298,8.493125 -0.14111,0.15946 0.0734,0.37536 0.23178,0.23424 2.13924,-1.90852 2.37067,-5.096223 2.34738,-7.801676"
       style="fill:#a99178;fill-opacity:1;fill-rule:nonzero;stroke:none;stroke-width:0.0352778"
       id="path840" />
    <path
       d="m 105.2901,88.470232 c -0.66499,-1.985433 -1.69016,-3.705577 -2.97815,-5.338586 -0.18097,-0.229305 -0.57538,0.07479 -0.40499,0.315736 1.17828,1.666875 2.11667,3.547534 2.73121,5.500511 0.5782,1.837267 0.49741,3.754614 0.98037,5.580945 0.06,0.226483 0.39722,0.2286 0.45614,0 0.48295,-1.87572 -0.18803,-4.278489 -0.78458,-6.058606"
       style="fill:#a99178;fill-opacity:1;fill-rule:nonzero;stroke:none;stroke-width:0.0352778"
       id="path842" />
    <path
       d="m 100.02489,84.048869 c -0.164039,-0.318912 -0.71402,-0.09737 -0.584197,0.249061 0.854777,2.278944 1.401587,4.543777 2.061637,6.875286 0.0737,0.261761 0.47801,0.215547 0.47448,-0.06456 -0.0307,-2.395361 -0.86607,-4.948413 -1.95192,-7.059788"
       style="fill:#a99178;fill-opacity:1;fill-rule:nonzero;stroke:none;stroke-width:0.0352778"
       id="path844" />
    <path
       d="m 104.87453,109.51519 c -0.13053,-0.2473 -0.51188,-0.0762 -0.44168,0.18874 0.70062,2.6543 0.94333,5.07823 -0.0547,7.70466 -0.079,0.20779 0.26494,0.35631 0.35842,0.15276 1.14371,-2.4945 1.45556,-5.5425 0.13794,-8.04616"
       style="fill:#a99178;fill-opacity:1;fill-rule:nonzero;stroke:none;stroke-width:0.0352778"
       id="path846" />
    <path
       d="m 108.67148,112.66832 c -0.0797,-0.18592 -0.34185,-0.0741 -0.35031,0.096 -0.0639,1.32186 0.11253,2.55165 -0.17392,3.86962 -0.0691,0.31891 0.4004,0.45403 0.48718,0.13582 0.35278,-1.29575 0.5842,-2.83174 0.0371,-4.10139"
       style="fill:#a99178;fill-opacity:1;fill-rule:nonzero;stroke:none;stroke-width:0.0352778"
       id="path848" />
    <path
       d="m 108.87573,106.7353 c -0.2794,-0.20602 -0.53445,0.25788 -0.26846,0.46426 1.23331,0.95532 2.24014,2.14171 2.93476,3.55176 0.65722,1.33421 0.77611,2.67194 1.20685,4.06048 0.10337,0.33443 0.53093,0.23883 0.56974,-0.078 0.37676,-3.06705 -2.15759,-6.31225 -4.44289,-7.99853"
       style="fill:#a99178;fill-opacity:1;fill-rule:nonzero;stroke:none;stroke-width:0.0352778"
       id="path850" />
    <path
       d="m 111.16773,105.68755 c -0.35489,-0.0924 -0.50447,0.45544 -0.15099,0.55492 0.96873,0.27235 1.86232,0.79904 2.51284,1.58468 0.68403,0.82656 0.87983,1.77094 1.10066,2.79118 0.0501,0.23212 0.36654,0.15734 0.38524,-0.0526 0.20531,-2.32057 -1.76107,-4.33564 -3.84775,-4.87821"
       style="fill:#a99178;fill-opacity:1;fill-rule:nonzero;stroke:none;stroke-width:0.0352778"
       id="path852" />
    <path
       d="m 104.25152,101.22456 c -0.56232,0.49001 -1.01,1.05939 -1.66193,1.45062 -0.69674,0.41804 -1.47214,0.63042 -2.27648,0.68192 -0.321379,0.0205 -0.327376,0.51823 0,0.51047 1.56316,-0.0374 3.65372,-0.76694 4.3561,-2.31704 0.12524,-0.27658 -0.18133,-0.53164 -0.41769,-0.32597"
       style="fill:#a99178;fill-opacity:1;fill-rule:nonzero;stroke:none;stroke-width:0.0352778"
       id="path854" />
    <path
       d="m 101.64026,98.287332 c -0.024,-0.20708 -0.33584,-0.366889 -0.44591,-0.121708 -0.24941,0.555272 -0.34607,1.163814 -0.58879,1.725789 -0.2667,0.616307 -0.60042,1.192037 -1.018112,1.715907 -0.235655,0.29598 0.160514,0.72002 0.421572,0.42616 0.84384,-0.94933 1.78576,-2.404181 1.63124,-3.746148"
       style="fill:#a99178;fill-opacity:1;fill-rule:nonzero;stroke:none;stroke-width:0.0352778"
       id="path856" />
    <path
       d="m 96.306615,90.504702 c -0.2794,0.08537 -0.486481,0.275166 -0.698853,0.472722 -0.223661,0.207786 -0.483658,0.413456 -0.619478,0.692503 -0.122766,0.251883 0.119945,0.469194 0.360186,0.364419 0.280812,-0.123119 0.500239,-0.381353 0.715787,-0.595489 0.206727,-0.205316 0.394758,-0.402166 0.493536,-0.680508 0.05327,-0.148519 -0.109362,-0.296686 -0.251178,-0.253647"
       style="fill:#cfa762;fill-opacity:1;fill-rule:nonzero;stroke:none;stroke-width:0.0352778"
       id="path858" />
    <path
       d="m 97.389643,91.529521 c -0.302331,0.105834 -0.516467,0.384881 -0.718609,0.626534 -0.221191,0.264583 -0.419805,0.546805 -0.598664,0.84208 -0.179211,0.295981 0.278695,0.564797 0.459317,0.271286 0.167569,-0.272697 0.349956,-0.531989 0.559506,-0.774347 0.179916,-0.208139 0.430388,-0.386292 0.547158,-0.638528 0.07408,-0.160161 -0.05115,-0.396522 -0.248708,-0.327025"
       style="fill:#cfa762;fill-opacity:1;fill-rule:nonzero;stroke:none;stroke-width:0.0352778"
       id="path860" />
    <path
       d="m 96.01522,88.462824 c -0.109361,-0.0194 -0.203552,-0.02117 -0.295627,-0.0071 -0.196498,-0.01023 -0.448381,0.169687 -0.479073,0.373592 -0.02681,0.1778 -0.02963,0.33267 0.07161,0.487539 0.219428,0.337608 0.615598,0.367947 0.912636,0.118886 0.01235,-0.01023 0.02434,-0.02046 0.03669,-0.03069 0.309386,-0.259644 0.152047,-0.872419 -0.246239,-0.942269"
       style="fill:#f57f4a;fill-opacity:1;fill-rule:nonzero;stroke:none;stroke-width:0.0352778"
       id="path862" />
    <path
       d="m 109.09163,132.2937 c 0,0 0.74366,0.97684 1.34338,1.34585 l 0.65687,-0.72637 0.57045,0.51011 c 0,0 -0.0444,-1.00083 0.10124,-1.58115 0.14535,-0.58032 0.52635,-0.8509 0.52635,-0.8509 l -0.8509,-0.85548 c 0,0 -0.71226,0.83679 -1.9618,0.37218 0,0 -0.34713,0.92921 -0.38559,1.78576"
       style="fill:#f6842d;fill-opacity:1;fill-rule:nonzero;stroke:none;stroke-width:0.0352778"
       id="path864" />
    <path
       d="m 111.64469,131.62977 c 0,0 0.99024,-1.71521 2.11314,-2.07469 1.12359,-0.35948 2.4959,-0.17991 2.86843,-1.0802 0.37218,-0.90064 -0.56797,-3.81035 -1.29716,-3.79166 -0.72919,0.019 -0.63042,1.22238 -0.65335,1.20015 -0.0236,-0.0226 -0.56656,-0.75353 -0.89111,-0.36124 -0.32456,0.39264 -0.27693,1.06715 -0.27693,1.06715 0,0 -0.60996,-0.69074 -0.95109,-0.0444 -0.34079,0.64629 -0.22825,1.48837 -0.22825,1.48837 0,0 -0.60431,-0.46073 -0.7814,0.0434 -0.1771,0.50342 0.23883,1.33774 0.26141,1.61361 0.0219,0.27587 -0.81774,1.6263 -0.56762,1.89618 0.24976,0.26987 0.28469,0.13829 0.40393,0.0434"
       style="fill:#fce9a1;fill-opacity:1;fill-rule:nonzero;stroke:none;stroke-width:0.0352778"
       id="path866" />
    <path
       d="m 115.04582,127.46735 c -0.0624,0.23565 0.22577,0.34678 0.38276,0.20884 0.066,-0.0582 0.19191,-0.12347 0.2667,-0.0536 0.31468,0.28963 0.72284,-0.16369 0.44944,-0.47802 -0.38312,-0.43991 -0.96485,-0.18062 -1.0989,0.3228"
       style="fill:#d6c68d;fill-opacity:1;fill-rule:nonzero;stroke:none;stroke-width:0.0352778"
       id="path868" />
    <path
       d="m 114.56428,127.27685 c -0.17639,-0.0723 -0.34008,-0.0935 -0.51365,0.002 -0.0794,0.0437 -0.14287,0.10266 -0.19367,0.18027 -0.085,0.13017 -0.0438,0.26917 -0.12348,0.40111 -0.10971,0.18132 0.25083,0.2988 0.25295,0.0607 3.5e-4,-0.0451 0.17709,-0.27763 0.26387,-0.2039 0.32244,0.2727 0.6597,-0.29845 0.31398,-0.43991"
       style="fill:#d6c68d;fill-opacity:1;fill-rule:nonzero;stroke:none;stroke-width:0.0352778"
       id="path870" />
    <path
       d="m 113.03745,128.23958 c -0.35277,-0.0353 -0.6036,0.25752 -0.58208,0.60183 0.012,0.19121 0.3115,0.24201 0.34431,0.0356 0.0208,-0.12665 0.32456,-0.0744 0.42686,-0.1323 0.0642,-0.0363 0.0988,-0.10936 0.0988,-0.18168 0,-0.0159 0,-0.0318 0,-0.0473 0,-0.16686 -0.14005,-0.26141 -0.28787,-0.27622"
       style="fill:#d6c68d;fill-opacity:1;fill-rule:nonzero;stroke:none;stroke-width:0.0352778"
       id="path872" />
    <path
       d="m 113.32038,126.97346 c -0.34607,0.0875 -0.5588,0.37782 -0.50694,0.74118 0.0258,0.17957 0.31115,0.25224 0.34466,0.036 0.0303,-0.19791 0.32915,-0.17357 0.46073,-0.26988 0.0981,-0.0716 0.14852,-0.20461 0.0776,-0.31679 l -0.0349,-0.0561 c -0.0741,-0.11712 -0.2092,-0.16792 -0.34114,-0.1344"
       style="fill:#d6c68d;fill-opacity:1;fill-rule:nonzero;stroke:none;stroke-width:0.0352778"
       id="path874" />
    <path
       d="m 115.14777,126.0259 c -0.41698,-0.0342 -0.6544,0.20849 -0.69497,0.60748 -0.0127,0.12594 0.14569,0.26282 0.24659,0.13441 0.127,-0.16158 0.44132,-0.0145 0.62618,-0.0561 0.14429,-0.0321 0.24659,-0.21908 0.19579,-0.35984 l -0.0243,-0.0677 c -0.0596,-0.1651 -0.18203,-0.24448 -0.34925,-0.25823"
       style="fill:#d6c68d;fill-opacity:1;fill-rule:nonzero;stroke:none;stroke-width:0.0352778"
       id="path876" />
  </g>
</svg>
