<?xml version="1.0" encoding="UTF-8" standalone="no"?>
<!-- Created with Inkscape (http://www.inkscape.org/) -->

<svg
   width="34.595486mm"
   height="93.676201mm"
   viewBox="0 0 34.595486 93.676201"
   version="1.1"
   id="svg2171"
   inkscape:version="1.2 (dc2aeda, 2022-05-15)"
   sodipodi:docname="aphrodite.svg"
   xmlns:inkscape="http://www.inkscape.org/namespaces/inkscape"
   xmlns:sodipodi="http://sodipodi.sourceforge.net/DTD/sodipodi-0.dtd"
   xmlns="http://www.w3.org/2000/svg"
   xmlns:svg="http://www.w3.org/2000/svg">
  <sodipodi:namedview
     id="namedview2173"
     pagecolor="#ffffff"
     bordercolor="#666666"
     borderopacity="1.0"
     inkscape:showpageshadow="2"
     inkscape:pageopacity="0"
     inkscape:pagecheckerboard="true"
     inkscape:deskcolor="#d1d1d1"
     inkscape:document-units="mm"
     showgrid="false"
     inkscape:zoom="2.587745"
     inkscape:cx="104.33795"
     inkscape:cy="175.24911"
     inkscape:window-width="1390"
     inkscape:window-height="1205"
     inkscape:window-x="2240"
     inkscape:window-y="25"
     inkscape:window-maximized="0"
     inkscape:current-layer="layer1" />
  <defs
     id="defs2168" />
  <g
     inkscape:label="Layer 1"
     inkscape:groupmode="layer"
     id="layer1"
     transform="translate(-45.456886,-21.989551)">
    <path
       d="m 58.673509,64.315191 c 0,0 -2.963334,1.324328 -3.598334,9.155995 -0.635,7.831666 4.913842,17.674166 5.023203,19.473332 0.109714,1.799167 0.427214,8.969372 0.665339,11.588752 0.238125,2.61937 1.786114,7.04462 1.567744,7.97701 -0.218369,0.93274 -1.210733,2.48073 -1.071738,2.8575 0.138994,0.37712 3.710869,0.41698 3.750733,0 0.03951,-0.41663 -0.595489,-1.48837 -0.595489,-1.48837 0,0 1.805869,1.38924 1.984375,0.73448 0.178505,-0.65475 -1.607256,-3.01625 -1.686631,-3.88937 -0.07937,-0.87313 3.644547,-12.911668 3.644547,-17.145002 C 72.381394,85.059935 72.805081,77.66148 72.00992,73.925916 71.214758,70.190352 58.673509,64.315191 58.673509,64.315191"
       style="fill:#fbc772;fill-opacity:1;fill-rule:nonzero;stroke:none;stroke-width:0.0352778"
       id="path520" />
    <path
       d="m 65.623936,74.037747 c -0.09031,-0.353131 -0.593372,-0.259645 -0.613833,0.08326 -0.184856,3.151011 0.195439,6.316133 -0.02893,9.484431 -0.212019,2.999669 -0.927805,5.869516 -1.397353,8.808155 -0.279752,-0.01023 -0.582436,0.22225 -0.459316,0.536928 1.253772,3.210983 1.21038,6.283325 0.734836,9.651289 -0.391936,2.77636 -0.992364,5.7217 -0.50165,8.52099 -0.201083,-0.10371 -0.516114,0.0593 -0.414867,0.31539 0.176036,0.44661 0.414867,0.8509 0.677334,1.25024 0.286808,0.43568 0.463197,0.92957 0.745066,1.36525 0.08573,0.133 0.324203,0.0519 0.267406,-0.11253 -0.168275,-0.48895 -0.447322,-0.92957 -0.61207,-1.42135 -0.09772,-0.29068 -0.210961,-0.57538 -0.337255,-0.85407 0.05433,-0.0275 0.09984,-0.0713 0.09913,-0.14429 -0.03598,-3.56834 0.661106,-6.92538 1.085145,-10.44857 0.316441,-2.628541 0.372886,-5.550247 -0.746125,-8.014047 1.080558,-2.856088 1.44533,-6.154561 1.726494,-9.157405 0.295628,-3.15983 0.57397,-6.759222 -0.224014,-9.863666"
       style="fill:#cfa762;fill-opacity:1;fill-rule:nonzero;stroke:none;stroke-width:0.0352778"
       id="path522" />
    <path
       d="m 53.672884,28.439103 c 0,0 -1.147586,1.256595 -1.327856,3.439583 -0.180269,2.182637 1.386064,3.611386 2.20345,3.783542 -0.531636,1.097844 -0.743303,1.640417 0.817739,1.997428 -0.753886,2.010833 2.368197,3.042708 2.368197,3.042708 0,0 -0.396875,4.286603 -2.248958,5.318125 -1.852083,1.031875 -4.471811,0.396875 -4.497917,1.5875 -0.02646,1.190625 3.175,2.209447 5.357636,1.99778 -1.203677,1.666875 -3.730625,2.468386 -3.307291,3.337631 0.423333,0.869244 4.021666,0.313619 4.021666,0.313619 0,0 -3.395133,2.434167 -0.308327,3.386667 3.086452,0.9525 5.266972,0.544689 7.624233,-2.38125 2.357614,-2.925939 4.061177,-5.371042 4.061177,-5.371042 0,0 5.053542,-1.084791 3.598334,-7.223124 1.322916,-1.481667 0.794102,-7.567084 -2.301522,-7.540625 0.978605,-2.331861 1.322563,-4.230864 -0.344312,-4.734631 0.344312,-2.805994 -3.110088,-8.838494 -7.79921,-6.801202 -1.42487,-0.370417 -5.915025,-1.613959 -6.042731,1.137708 -3.5941,1.693333 -1.874308,4.709583 -1.874308,4.709583"
       style="fill:#c45f2e;fill-opacity:1;fill-rule:nonzero;stroke:none;stroke-width:0.0352778"
       id="path524" />
    <path
       d="m 62.919895,57.080072 c 0.01341,0.03986 -0.422981,3.545417 -2.500136,5.437364 -2.077156,1.891594 6.588125,3.598333 6.839655,1.389239 0.251178,-2.209448 -4.339519,-6.826603 -4.339519,-6.826603"
       style="fill:#fbc772;fill-opacity:1;fill-rule:nonzero;stroke:none;stroke-width:0.0352778"
       id="path526" />
    <path
       d="m 57.330131,41.932853 c 0,0 -7.996414,-4.347986 -7.758289,-6.155972 0.100189,-0.760236 1.381831,-1.924756 2.797881,-2.99332 -0.05574,-0.9398 -0.0046,-1.801636 0.695325,-3.421238 -2.168525,1.173691 -7.927975,4.466872 -7.594247,6.670322 0.396875,2.619375 9.445624,9.736313 12.541249,10.437636 3.095625,0.701322 -0.681919,-4.537428 -0.681919,-4.537428"
       style="fill:#fbc772;fill-opacity:1;fill-rule:nonzero;stroke:none;stroke-width:0.0352778"
       id="path528" />
    <path
       d="m 70.645728,43.508006 c 0.635353,-0.887236 9.485489,-10.213975 9.406114,-12.714111 -0.05962,-1.873603 -7.343423,-4.148314 -11.655072,-5.170664 0.466019,0.829381 0.881238,2.291997 0.973666,2.758722 3.454047,1.193447 7.234767,2.596092 7.188906,3.03777 -0.07937,0.763058 -7.20337,8.800041 -8.15587,9.315802 -0.9525,0.516114 -2.514247,0.813858 -3.097388,0.178506 -0.583495,-0.635 -0.981428,-3.165475 -0.981428,-3.165475 l -2.277886,0.824089 c 0,0 0.661458,2.897011 0.172155,3.373613 -0.489655,0.475898 -2.804583,0.09243 -2.804583,0.09243 0,0 8.751005,9.637536 10.398125,8.577086 1.647119,-1.06045 0.889353,-1.981905 0.889353,-1.981905 0,0 -0.690739,-4.238978 -0.05609,-5.125861"
       style="fill:#fbc772;fill-opacity:1;fill-rule:nonzero;stroke:none;stroke-width:0.0352778"
       id="path530" />
    <path
       d="m 55.624098,34.028514 c 0,0 -0.218017,-0.89288 0.07938,-1.696508 0.297744,-0.803981 4.683125,-4.097867 4.365625,-6.062486 4.504619,3.135136 7.560733,3.155244 7.560733,3.155244 0,0 0.2921,8.5725 -4.805186,9.346495 -4.128206,0.595136 -6.624814,-2.956984 -7.200547,-4.742745"
       style="fill:#fbc772;fill-opacity:1;fill-rule:nonzero;stroke:none;stroke-width:0.0352778"
       id="path532" />
    <path
       d="m 67.153228,30.979103 c 0,0 0.912989,-1.031875 1.561394,-0.330905 0.648053,0.701322 0.3175,3.254375 -1.773061,3.241322 -0.370064,-0.714375 0.211667,-2.910417 0.211667,-2.910417"
       style="fill:#fbc772;fill-opacity:1;fill-rule:nonzero;stroke:none;stroke-width:0.0352778"
       id="path534" />
    <path
       d="m 66.076197,47.532494 c -0.197202,-0.756355 -0.381,-1.512005 -0.595841,-2.264127 -0.166511,-0.583847 -0.204611,-1.329267 -0.676275,-1.743781 -0.125589,-0.110419 -0.289278,-0.05644 -0.348192,0.09208 -0.243417,0.613834 0.127353,1.398058 0.306917,2.001308 0.220486,0.739775 0.516114,1.416403 0.837494,2.115256 0.125942,0.273756 0.548217,0.07691 0.475897,-0.200731"
       style="fill:#cfa762;fill-opacity:1;fill-rule:nonzero;stroke:none;stroke-width:0.0352778"
       id="path536" />
    <path
       d="m 60.366842,41.747645 c 0,0 4.233333,4.497916 10.583333,6.984999 2.116667,2.936875 0.635,5.318125 -1.217083,5.503334 -0.396875,0.582083 -0.555625,3.704166 0.15875,6.138333 0.714375,2.434166 3.96875,9.022291 3.96875,13.573125 0,4.550833 -1.11125,6.191249 -1.613959,6.217708 -0.502708,0.02646 -2.2225,-2.751667 -2.2225,-2.751667 0,0 -2.301875,3.889375 -6.429374,1.772708 -4.1275,-2.116666 -6.085417,-13.758333 -6.085417,-14.552083 0,-0.79375 1.613958,-0.9525 1.613958,-0.9525 0,0 0.105834,-0.846666 0.47625,-1.375833 0.370417,-0.529167 1.11125,-0.396875 1.11125,-0.396875 0,0 3.042709,1.799167 5.344584,1.640417 -1.190625,-1.799167 -5.847292,-9.604375 -7.963959,-14.552083 -2.116666,-4.947708 -1.256947,-7.752292 -0.582083,-7.818614 0.674864,-0.06597 1.071739,0.410281 1.071739,0.410281 0,0 0.185208,-0.330906 0.595136,-0.343959 0.410281,-0.01341 0.542572,0.462845 0.542572,0.462845 0,0 0.22472,-0.47625 0.648053,0.03986"
       style="fill:#78a2db;fill-opacity:1;fill-rule:nonzero;stroke:none;stroke-width:0.0352778"
       id="path538" />
    <path
       d="m 68.140653,74.623711 c -0.278695,0.291747 -0.463197,0.571147 -0.712258,0.879122 -0.786342,0.971197 -2.15265,1.460852 -3.182409,0.54998 -0.903464,-0.799394 -1.60408,-1.841147 -2.195688,-2.884664 -1.224845,-2.159352 -1.8669,-4.641849 -2.629253,-6.991349 -0.03034,-0.09384 -0.174272,-0.05539 -0.148167,0.04092 0.95885,3.56623 1.811514,7.089775 4.194881,10.018183 0.648405,0.796925 1.444272,1.534583 2.549525,1.42875 1.367013,-0.130881 2.403827,-1.428397 2.828219,-2.630664 0.142169,-0.403225 -0.423686,-0.704497 -0.70485,-0.41028"
       style="fill:#6487bf;fill-opacity:1;fill-rule:nonzero;stroke:none;stroke-width:0.0352778"
       id="path540" />
    <path
       d="m 68.805286,69.627672 c -0.833261,1.247069 -1.6764,2.611614 -3.397955,2.452864 -1.535995,-0.141817 -2.513189,-1.459442 -3.367617,-2.588684 -0.1397,-0.184855 -0.456847,-0.0085 -0.317147,0.185209 0.986719,1.367366 2.206625,2.991202 4.052005,3.095272 1.76777,0.09984 3.001434,-1.284111 3.775781,-2.708981 0.267405,-0.491772 -0.437797,-0.89535 -0.745067,-0.43568"
       style="fill:#6487bf;fill-opacity:1;fill-rule:nonzero;stroke:none;stroke-width:0.0352778"
       id="path542" />
    <path
       d="m 71.297661,63.561305 c -0.107244,-0.248003 -0.490714,-0.06844 -0.426155,0.179564 1.255536,4.829175 1.121127,9.185628 -1.172634,13.67543 -0.120297,0.23495 0.217664,0.436034 0.3556,0.207786 2.436636,-4.042127 3.139017,-9.680927 1.243189,-14.06278"
       style="fill:#6487bf;fill-opacity:1;fill-rule:nonzero;stroke:none;stroke-width:0.0352778"
       id="path544" />
    <path
       d="m 68.198508,52.710919 c -0.08255,-0.178858 -0.361597,-0.218016 -0.525991,-0.291041 -0.473075,-0.210961 -0.834672,-0.565503 -0.939447,-1.083381 -0.0078,-0.03845 -0.02787,-0.06526 -0.05221,-0.08749 -0.0039,-0.115358 -0.01094,-0.231069 -0.0381,-0.347133 -0.04798,-0.207433 -0.324203,-0.17392 -0.38735,0 -0.299156,0.821619 -0.526345,1.617839 -1.331384,2.09938 -0.892175,0.5334 -2.027414,0.325967 -2.803172,-0.30868 -0.172155,-0.140758 -0.418042,0.09172 -0.249061,0.249061 0.842786,0.785636 2.01048,1.079147 3.10268,0.648406 0.674159,-0.265995 1.287287,-0.847373 1.560689,-1.536348 0.08431,0.181681 0.192264,0.352425 0.329495,0.502709 0.250825,0.274461 0.814564,0.648405 1.206147,0.468136 0.127353,-0.05821 0.186619,-0.18662 0.127705,-0.31362"
       style="fill:#6487bf;fill-opacity:1;fill-rule:nonzero;stroke:none;stroke-width:0.0352778"
       id="path546" />
    <path
       d="m 60.163995,47.159256 c -0.591609,-1.470731 -1.25342,-2.778125 -1.451328,-4.379736 -0.03881,-0.312562 -0.530225,-0.325262 -0.501297,0 0.142522,1.588205 0.5207,3.348919 1.550458,4.61398 0.148167,0.182033 0.490714,-0.01411 0.402167,-0.234244"
       style="fill:#6487bf;fill-opacity:1;fill-rule:nonzero;stroke:none;stroke-width:0.0352778"
       id="path548" />
    <path
       d="m 65.872292,50.173389 c -1.326092,-1.009297 -2.707217,-1.798461 -3.805061,-3.096331 -1.150408,-1.359605 -2.045406,-2.944283 -2.626078,-4.62668 -0.07514,-0.218017 -0.415572,-0.129822 -0.34925,0.09631 0.940506,3.210983 3.312936,6.848122 6.600825,8.052858 0.269875,0.09878 0.371122,-0.280458 0.179564,-0.426155"
       style="fill:#6487bf;fill-opacity:1;fill-rule:nonzero;stroke:none;stroke-width:0.0352778"
       id="path550" />
    <path
       d="m 65.001284,46.957819 c -0.614539,-0.593372 -1.417462,-1.017411 -2.085975,-1.553633 -0.683684,-0.548569 -1.3081,-1.15958 -1.890184,-1.814336 -0.217311,-0.244828 -0.568677,0.112889 -0.357716,0.357717 1.059039,1.227666 2.561166,2.830689 4.179358,3.275541 0.150989,0.04127 0.269522,-0.154516 0.154517,-0.265289"
       style="fill:#6487bf;fill-opacity:1;fill-rule:nonzero;stroke:none;stroke-width:0.0352778"
       id="path552" />
    <path
       d="m 69.240261,64.159969 c -0.813858,-1.205442 -1.853141,-2.266244 -2.723091,-3.434644 -0.875242,-1.175809 -1.697567,-2.388659 -2.48285,-3.625497 -0.163689,-0.257881 -0.576086,-0.0194 -0.410986,0.240241 1.5113,2.38125 3.233208,5.141736 5.375627,7.00652 0.123825,0.107597 0.345017,-0.03316 0.2413,-0.18662"
       style="fill:#6487bf;fill-opacity:1;fill-rule:nonzero;stroke:none;stroke-width:0.0352778"
       id="path554" />
    <path
       d="m 68.270828,60.64348 c -0.303742,-0.75565 -0.919692,-1.393119 -1.379361,-2.063044 -0.524228,-0.764117 -1.001536,-1.553281 -1.436511,-2.371725 -0.171097,-0.321733 -0.656167,-0.03704 -0.488245,0.285397 0.45085,0.865717 0.941917,1.711678 1.50495,2.509661 0.450145,0.637117 0.930275,1.382889 1.609725,1.785408 0.08925,0.05256 0.233186,-0.03739 0.189442,-0.145697"
       style="fill:#6487bf;fill-opacity:1;fill-rule:nonzero;stroke:none;stroke-width:0.0352778"
       id="path556" />
    <path
       d="m 68.044345,55.533141 c -0.425803,-0.898524 -1.186745,-1.642886 -1.681692,-2.507897 -0.105833,-0.185561 -0.357011,-0.02258 -0.278342,0.162631 0.394406,0.925689 0.841023,2.007658 1.691922,2.613378 0.174978,0.12453 0.343253,-0.109714 0.268112,-0.268112"
       style="fill:#6487bf;fill-opacity:1;fill-rule:nonzero;stroke:none;stroke-width:0.0352778"
       id="path558" />
    <path
       d="m 68.643008,66.499238 c -1.690158,0.959203 -3.148894,2.203803 -5.183011,1.079148 -1.420988,-0.785989 -2.523419,-2.172053 -3.730977,-3.239911 -0.08326,-0.07338 -0.204259,0.04445 -0.12312,0.122766 1.586795,1.533525 2.763661,3.459339 4.93642,4.244622 1.764241,0.637823 3.595863,-0.169686 4.674305,-1.633008 0.261056,-0.354189 -0.234597,-0.76588 -0.573617,-0.573617"
       style="fill:#6487bf;fill-opacity:1;fill-rule:nonzero;stroke:none;stroke-width:0.0352778"
       id="path560" />
    <path
       d="m 72.413144,74.860424 c -0.1016,-0.2159 -0.477661,-0.06174 -0.389819,0.164395 0.368653,0.948972 0.567267,2.040819 1.029053,2.942519 0.09419,0.183797 0.404283,0.100189 0.392641,-0.106186 -0.05609,-1.017411 -0.603602,-2.08915 -1.031875,-3.000728"
       style="fill:#6487bf;fill-opacity:1;fill-rule:nonzero;stroke:none;stroke-width:0.0352778"
       id="path562" />
    <path
       d="m 72.945839,72.462241 c -0.222956,-0.119944 -0.412397,0.113595 -0.322439,0.322439 0.09666,0.223661 0.281164,0.417689 0.414161,0.623358 0.118886,0.183798 0.216253,0.380648 0.409928,0.493889 0.09737,0.0568 0.264936,0.01023 0.283986,-0.115711 0.07126,-0.463197 -0.386644,-1.109133 -0.785636,-1.323975"
       style="fill:#6487bf;fill-opacity:1;fill-rule:nonzero;stroke:none;stroke-width:0.0352778"
       id="path564" />
    <path
       d="m 60.092381,33.198428 c -0.08008,0.01235 -1.404408,-0.87383 -2.450395,0.537986 -0.209197,0.156634 -0.470605,-0.44838 -0.403577,-0.552803 0.06738,-0.104775 0.261761,0.08961 0.261761,0.08961 0,0 0.687211,-0.941211 1.471789,-0.941211 0.784225,0 1.411464,0.821619 1.120422,0.866422"
       style="fill:#040606;fill-opacity:1;fill-rule:nonzero;stroke:none;stroke-width:0.0352778"
       id="path566" />
    <path
       d="m 63.604989,32.503103 c 0.0762,-0.02611 0.833614,-1.428397 2.417939,-0.668514 0.258233,0.04127 0.206728,-0.616303 0.09843,-0.67698 -0.108303,-0.06138 -0.189442,0.201083 -0.189442,0.201083 0,0 -1.047044,-0.511175 -1.740958,-0.144992 -0.693561,0.366184 -0.864658,1.386064 -0.585964,1.289403"
       style="fill:#040606;fill-opacity:1;fill-rule:nonzero;stroke:none;stroke-width:0.0352778"
       id="path568" />
    <path
       d="m 60.436339,35.556395 c 0,-0.02999 1.924756,-1.002242 3.700992,-0.505884 0.06914,0.248003 -0.26282,1.081264 -0.659695,1.359253 -0.396875,0.277636 -1.751541,0.297392 -2.158294,0.118886 -0.406753,-0.178505 -0.883003,-0.972255 -0.883003,-0.972255"
       style="fill:#ffffff;fill-opacity:1;fill-rule:nonzero;stroke:none;stroke-width:0.0352778"
       id="path570" />
    <path
       d="m 55.892209,34.316028 c 0,0 -1.260122,-0.198261 -1.339497,0.714375 -0.07937,0.912989 1.041752,2.401358 2.738261,1.547989 0.3175,-0.655108 -1.398764,-2.262364 -1.398764,-2.262364"
       style="fill:#fbc772;fill-opacity:1;fill-rule:nonzero;stroke:none;stroke-width:0.0352778"
       id="path572" />
    <path
       d="m 60.070509,29.650189 c -0.524934,-0.09772 -1.039284,0.1905 -1.493309,0.432153 -0.519994,0.276578 -0.970491,0.611717 -1.408289,1.004711 -0.158749,0.142522 0.05503,0.430036 0.231423,0.299861 0.425802,-0.313619 0.906286,-0.583847 1.405466,-0.762 0.430742,-0.153811 0.957439,-0.163336 1.337028,-0.421569 0.195439,-0.132645 0.203553,-0.50165 -0.07232,-0.553156"
       style="fill:#c45f2e;fill-opacity:1;fill-rule:nonzero;stroke:none;stroke-width:0.0352778"
       id="path574" />
    <path
       d="m 62.250322,29.2325 c 0.441678,-0.300213 1.028348,-0.242711 1.541639,-0.203552 0.587023,0.0448 1.133828,0.170744 1.692981,0.355247 0.202142,0.06668 0.122061,0.415572 -0.09172,0.367594 -0.515761,-0.116416 -1.064331,-0.17145 -1.593145,-0.134055 -0.456494,0.0321 -0.942269,0.234597 -1.393825,0.150636 -0.232128,-0.04339 -0.387702,-0.378178 -0.155928,-0.53587"
       style="fill:#c45f2e;fill-opacity:1;fill-rule:nonzero;stroke:none;stroke-width:0.0352778"
       id="path576" />
    <path
       d="m 55.677367,34.909753 c 0,0 -0.652639,-0.281869 -0.57785,0.524933 0.07444,0.806803 1.195211,1.175456 1.524,0.717198 0.328436,-0.458259 -0.652639,-1.129948 -0.94615,-1.242131"
       style="fill:#cfa762;fill-opacity:1;fill-rule:nonzero;stroke:none;stroke-width:0.0352778"
       id="path578" />
    <path
       d="m 67.790697,31.428189 c 0,0 0.453673,-0.546805 0.752828,0.206022 0.299156,0.752828 -0.531989,1.589617 -1.032933,1.330325 -0.500592,-0.259291 0.06914,-1.302808 0.280105,-1.536347"
       style="fill:#cfa762;fill-opacity:1;fill-rule:nonzero;stroke:none;stroke-width:0.0352778"
       id="path580" />
    <path
       d="m 62.082048,38.835111 c 0,0 1.389238,-0.0049 2.323041,-0.631825 -0.101953,1.121128 -2.043642,1.108781 -2.323041,0.631825"
       style="fill:#cfa762;fill-opacity:1;fill-rule:nonzero;stroke:none;stroke-width:0.0352778"
       id="path582" />
    <path
       d="m 70.453817,42.089839 c -0.51047,0.02152 -0.86607,0.551039 -1.093611,0.961672 -0.238831,0.430742 -0.438503,0.984956 -0.333728,1.478845 0.05609,0.263525 0.474486,0.32773 0.594078,0.07761 0.178152,-0.372534 0.24765,-0.772584 0.462844,-1.133475 0.199672,-0.334434 0.591256,-0.588081 0.686153,-0.970139 0.04939,-0.198261 -0.09737,-0.424039 -0.315736,-0.414514"
       style="fill:#cfa762;fill-opacity:1;fill-rule:nonzero;stroke:none;stroke-width:0.0352778"
       id="path584" />
    <path
       d="m 61.568403,23.339701 c -0.0095,-0.0194 -0.0194,-0.03916 -0.02893,-0.05856 -0.05644,-0.113241 -0.186266,-0.169333 -0.305505,-0.17533 -0.966964,-0.04692 -1.641122,1.532114 -1.466145,2.328686 0.07867,0.357364 0.564798,0.301978 0.669925,0 0.125942,-0.36195 0.15487,-0.722136 0.353836,-1.062919 0.08819,-0.151342 0.18662,-0.321734 0.319617,-0.437092 0.131939,-0.113595 0.305858,-0.14217 0.416631,-0.279047 0.07832,-0.09701 0.09701,-0.202495 0.04057,-0.315736"
       style="fill:#994c27;fill-opacity:1;fill-rule:nonzero;stroke:none;stroke-width:0.0352778"
       id="path586" />
    <path
       d="m 67.210731,27.649587 c -0.508,-0.9525 -1.696861,-1.756834 -2.61867,-2.291292 -0.938741,-0.544336 -1.993194,-0.921103 -3.085041,-0.770819 -0.259292,0.03528 -0.242359,0.456494 0,0.506941 1.086202,0.225072 2.060222,0.476603 3.00743,1.092553 0.82162,0.534458 1.467556,1.388886 2.340328,1.818922 0.231775,0.114653 0.482953,-0.118533 0.355953,-0.356305"
       style="fill:#994c27;fill-opacity:1;fill-rule:nonzero;stroke:none;stroke-width:0.0352778"
       id="path588" />
    <path
       d="m 66.490006,24.81537 c -0.588434,-0.480131 -1.295047,-0.789869 -2.040114,-0.926394 -0.418747,-0.07726 -0.602897,0.554919 -0.1778,0.645583 0.658636,0.140758 1.250597,0.4191 1.76918,0.852311 0.473075,0.394758 0.722489,0.965553 1.170164,1.361722 0.158397,0.140406 0.456495,0.05539 0.444853,-0.18415 -0.03387,-0.685094 -0.6604,-1.336322 -1.166283,-1.749072"
       style="fill:#994c27;fill-opacity:1;fill-rule:nonzero;stroke:none;stroke-width:0.0352778"
       id="path590" />
    <path
       d="m 58.3867,26.454023 c -1.214966,-0.324556 -2.917825,0.786694 -3.808236,1.515886 -0.185914,0.1524 0.07867,0.410986 0.263173,0.262819 0.585611,-0.469547 1.223433,-0.840316 1.952272,-1.03893 0.543983,-0.14852 1.129594,-0.121356 1.644297,-0.34537 0.176389,-0.07655 0.1143,-0.349955 -0.05151,-0.394405"
       style="fill:#994c27;fill-opacity:1;fill-rule:nonzero;stroke:none;stroke-width:0.0352778"
       id="path592" />
    <path
       d="m 58.527106,24.686959 c -0.713317,-0.564445 -2.078214,-0.266347 -2.887486,-0.04904 -0.347133,0.09313 -0.200378,0.611011 0.147461,0.535869 0.473781,-0.102305 0.951794,-0.154517 1.436511,-0.13335 0.401461,0.01729 0.807156,0.15487 1.198386,0.04445 0.156986,-0.0441 0.250825,-0.282575 0.105128,-0.397933"
       style="fill:#994c27;fill-opacity:1;fill-rule:nonzero;stroke:none;stroke-width:0.0352778"
       id="path594" />
    <path
       d="m 56.417142,28.884309 c -0.518583,0.05221 -0.872067,0.535164 -1.183569,0.915458 -0.360539,0.440619 -0.662164,0.917575 -0.909461,1.429808 -0.166512,0.344311 0.335138,0.6477 0.517877,0.303036 0.252236,-0.474838 0.548217,-0.918986 0.908403,-1.319388 0.298803,-0.33267 0.750358,-0.596548 0.89147,-1.033639 0.04339,-0.134056 -0.0762,-0.310092 -0.22472,-0.295275"
       style="fill:#994c27;fill-opacity:1;fill-rule:nonzero;stroke:none;stroke-width:0.0352778"
       id="path596" />
    <path
       d="m 67.618189,36.608025 c -0.338667,3.53e-4 -0.421569,0.517525 -0.08114,0.59937 0.820561,0.197908 1.246717,0.763411 1.493308,1.531761 0.124531,0.388761 0.696031,0.317853 0.710848,-0.09596 0.04127,-1.156405 -1.024467,-2.03588 -2.123017,-2.035175"
       style="fill:#994c27;fill-opacity:1;fill-rule:nonzero;stroke:none;stroke-width:0.0352778"
       id="path598" />
    <path
       d="m 69.6643,35.578267 c -0.335492,-0.163336 -0.630767,0.325967 -0.295275,0.50553 0.223661,0.119945 0.426508,0.259645 0.605014,0.441325 0.156281,0.159809 0.261761,0.331259 0.493183,0.385234 0.146403,0.03387 0.254706,-0.06562 0.270228,-0.20567 0.05609,-0.512939 -0.681214,-0.935566 -1.07315,-1.126419"
       style="fill:#994c27;fill-opacity:1;fill-rule:nonzero;stroke:none;stroke-width:0.0352778"
       id="path600" />
    <path
       d="m 59.205145,39.457764 c -0.176742,0.4826 -0.335139,1.404408 0.174978,1.736019 0.115358,0.07479 0.322086,0.03351 0.379941,-0.09984 0.106186,-0.242711 0.0374,-0.423686 0.02787,-0.678391 -0.0099,-0.264584 0.02505,-0.515761 0.105833,-0.767997 0.142169,-0.442737 -0.532694,-0.61595 -0.688622,-0.189795"
       style="fill:#994c27;fill-opacity:1;fill-rule:nonzero;stroke:none;stroke-width:0.0352778"
       id="path602" />
    <path
       d="m 58.455492,51.461028 c -0.381706,0.07867 -0.570089,0.436739 -0.852311,0.675216 -0.388408,0.328084 -0.843139,0.527403 -1.344436,0.347134 -0.311503,-0.112184 -0.42792,0.366889 -0.134408,0.487891 0.498122,0.206023 1.072091,0.128764 1.536347,-0.136172 0.419805,-0.239536 0.994127,-0.694267 1.005416,-1.213908 0.0025,-0.113947 -0.10795,-0.181328 -0.210608,-0.160161"
       style="fill:#994c27;fill-opacity:1;fill-rule:nonzero;stroke:none;stroke-width:0.0352778"
       id="path604" />
    <path
       d="m 60.193981,53.656364 c -0.402872,-0.0755 -0.810331,0.199672 -1.229431,0.201789 -0.548922,0.0028 -0.54998,0.856191 0,0.853369 0.504473,-0.0028 1.268942,-0.103717 1.461911,-0.645936 0.05644,-0.159808 -0.06491,-0.377472 -0.23248,-0.409222"
       style="fill:#994c27;fill-opacity:1;fill-rule:nonzero;stroke:none;stroke-width:0.0352778"
       id="path606" />
  </g>
</svg>
