<?xml version="1.0" encoding="UTF-8" standalone="no"?>
<!-- Created with Inkscape (http://www.inkscape.org/) -->

<svg
   width="41.604mm"
   height="108.70045mm"
   viewBox="0 0 41.604 108.70045"
   version="1.1"
   id="svg4961"
   inkscape:version="1.2 (dc2aeda, 2022-05-15)"
   sodipodi:docname="ares.svg"
   xmlns:inkscape="http://www.inkscape.org/namespaces/inkscape"
   xmlns:sodipodi="http://sodipodi.sourceforge.net/DTD/sodipodi-0.dtd"
   xmlns="http://www.w3.org/2000/svg"
   xmlns:svg="http://www.w3.org/2000/svg">
  <sodipodi:namedview
     id="namedview4963"
     pagecolor="#ffffff"
     bordercolor="#666666"
     borderopacity="1.0"
     inkscape:showpageshadow="2"
     inkscape:pageopacity="0.0"
     inkscape:pagecheckerboard="0"
     inkscape:deskcolor="#d1d1d1"
     inkscape:document-units="mm"
     showgrid="false"
     inkscape:zoom="0.914906"
     inkscape:cx="-54.103919"
     inkscape:cy="300.03082"
     inkscape:window-width="1390"
     inkscape:window-height="1205"
     inkscape:window-x="1170"
     inkscape:window-y="25"
     inkscape:window-maximized="0"
     inkscape:current-layer="layer1" />
  <defs
     id="defs4958" />
  <g
     inkscape:label="Layer 1"
     inkscape:groupmode="layer"
     id="layer1"
     transform="translate(-86.198976,-69.134677)">
    <path
       d="m 123.08339,132.50102 c -0.16828,-0.005 -2.0634,-1.50777 -4.48487,7.34237 -2.42076,8.85013 -4.44465,36.23486 1.4291,37.56447 5.8734,1.32927 12.46153,-44.62885 3.05577,-44.90684"
       style="fill:#f6842d;fill-opacity:1;fill-rule:nonzero;stroke:none;stroke-width:0.0352778"
       id="path626" />
    <path
       d="m 99.390124,100.17988 c 0,0 -4.559299,-2.592921 -7.491941,1.77412 -2.932994,4.36668 -1.292225,11.72104 -1.768475,13.99681 -0.476603,2.27612 -4.497917,16.29903 -3.862917,17.93945 0.635,1.64042 4.233334,2.06375 4.233334,2.06375 0,0 -0.05327,4.80836 0.58173,5.42008 0.635353,0.61242 8.308269,0.53305 8.308269,0.53305 0,0 -1.375833,5.63562 -0.370769,6.11152 1.005765,0.4766 12.382855,0.10618 13.070765,-0.95215 0.68757,-1.05833 0.79375,-2.64583 0.79375,-2.64583 0,0 3.70417,-1.69334 3.86257,-2.51354 0.15875,-0.82021 -3.70417,-20.14714 -5.02708,-27.12579 -1.32292,-6.979 -12.329236,-14.60147 -12.329236,-14.60147"
       style="fill:#962531;fill-opacity:1;fill-rule:nonzero;stroke:none;stroke-width:0.0352778"
       id="path628" />
    <path
       d="m 98.593905,115.08509 c -0.892881,1.53987 -1.389239,3.35915 -1.945217,5.04366 -0.646641,1.95968 -1.235427,3.93877 -1.76918,5.93196 -0.508353,1.90042 -0.9652,3.81282 -1.334911,5.74499 -0.185209,0.96767 -0.354895,1.93745 -0.508353,2.91041 -0.243769,1.54764 -0.8509,1.15288 -2.227439,0.96415 -0.307622,-0.0423 -0.443794,0.42721 -0.130528,0.47342 0.773995,0.1143 1.547284,0.22931 2.321278,0.34467 0.131939,0.0201 0.288572,-0.031 0.31997,-0.18168 0.736952,-3.5553 1.575152,-7.09648 2.559049,-10.5918 0.479073,-1.70321 0.999773,-3.39478 1.561042,-5.07224 0.5842,-1.7466 1.400175,-3.50308 1.78435,-5.3019 0.07937,-0.37147 -0.426861,-0.6163 -0.630061,-0.26564"
       style="fill:#741c27;fill-opacity:1;fill-rule:nonzero;stroke:none;stroke-width:0.0352778"
       id="path630" />
    <path
       d="m 109.0005,121.77446 c -0.0667,-0.31326 -0.53869,-0.17956 -0.47802,0.13194 1.48202,7.61295 2.27436,15.29327 3.36621,22.9616 0.0557,0.39194 0.71367,0.29986 0.6918,-0.0938 -0.43533,-7.71984 -1.97274,-15.45414 -3.57999,-22.9997"
       style="fill:#741c27;fill-opacity:1;fill-rule:nonzero;stroke:none;stroke-width:0.0352778"
       id="path632" />
    <path
       d="m 103.31866,136.2701 c -0.0243,-0.42192 -0.68051,-0.4258 -0.6597,0 0.16193,3.34186 0.12665,6.88552 0.79587,10.16988 0.0674,0.33196 0.57609,0.2473 0.57961,-0.0787 0.0339,-3.33834 -0.52352,-6.75252 -0.71578,-10.09121"
       style="fill:#741c27;fill-opacity:1;fill-rule:nonzero;stroke:none;stroke-width:0.0352778"
       id="path634" />
    <path
       d="m 97.296741,136.74 c 0,0 -0.568678,12.63297 -0.568678,21.54026 0,8.90728 0.40005,16.26552 -0.17145,16.98483 -0.571147,0.71896 -1.342319,0.82974 -1.513416,1.82563 -0.171803,0.99589 6.282973,0.91263 6.282973,0.22119 0,-0.69145 -1.028,-2.07433 -1.028,-2.51707 0,-0.44274 0.48543,-34.43957 1.028,-35.54624 0.54257,-1.10666 5.21229,0.11042 5.21229,0.11042 0,0 1.61361,15.15181 1.74237,17.92852 0.12841,2.77707 -0.94262,19.78907 -0.29986,20.03848 0.64241,0.24871 6.89716,0.33161 6.89716,-0.042 0,-0.37324 -3.42689,-2.73826 -3.42689,-2.73826 0,0 -0.49988,-17.86995 -0.44273,-20.52567 0.0568,-2.65535 -1.0855,-16.32091 -1.25695,-16.76329 -0.1711,-0.44238 -12.454819,-0.51682 -12.454819,-0.51682"
       style="fill:#fbc772;fill-opacity:1;fill-rule:nonzero;stroke:none;stroke-width:0.0352778"
       id="path636" />
    <path
       d="m 109.86727,127.24216 c 0,0 3.06917,14.55879 2.40771,15.35254 -0.66146,0.79375 -3.06917,-0.34361 -4.73569,0.26458 -1.66687,0.6089 -2.51354,1.11161 -3.83646,0.45015 -1.32291,-0.66146 -1.34972,-0.76729 -3.51896,-0.55563 -2.169579,0.21167 -5.37139,0.9525 -5.450412,-0.37041 -0.07973,-1.32292 2.672291,-15.71273 2.672291,-15.71273 l 12.461521,0.5715"
       style="fill:#d8b694;fill-opacity:1;fill-rule:nonzero;stroke:none;stroke-width:0.0352778"
       id="path638" />
    <path
       d="m 102.41625,131.4635 c -0.94932,1.54517 -1.41111,3.42971 -2.18334,5.07471 -0.715433,1.52365 -1.701447,2.94711 -2.318455,4.50638 -0.09772,0.24695 0.270581,0.44204 0.439914,0.25542 1.228725,-1.35467 2.036941,-3.21487 2.798941,-4.8641 0.69991,-1.51483 1.55081,-3.18135 1.68839,-4.8574 0.0194,-0.23636 -0.31397,-0.29598 -0.42545,-0.11501"
       style="fill:#a99178;fill-opacity:1;fill-rule:nonzero;stroke:none;stroke-width:0.0352778"
       id="path640" />
    <path
       d="m 105.82338,131.03735 c -0.048,-0.27975 -0.46778,-0.24906 -0.53552,0 -0.36442,1.33703 -0.32526,2.79329 -0.50694,4.16877 -0.20637,1.56104 -0.53975,3.09774 -0.77329,4.65385 -0.0508,0.33619 0.40005,0.47448 0.51647,0.14252 0.5588,-1.58997 0.86466,-3.26178 1.09432,-4.92831 0.18203,-1.32044 0.43285,-2.71639 0.20496,-4.03683"
       style="fill:#a99178;fill-opacity:1;fill-rule:nonzero;stroke:none;stroke-width:0.0352778"
       id="path642" />
    <path
       d="m 107.6229,126.7257 c -0.0914,-0.42722 -0.72813,-0.24342 -0.65052,0.17956 0.3429,1.86267 0.58949,3.73945 0.66745,5.63316 0.0702,1.71908 -0.12241,3.44417 -0.0268,5.15796 0.0141,0.25294 0.39088,0.32773 0.45791,0.0617 0.87524,-3.47098 0.28998,-7.57767 -0.44803,-11.03242"
       style="fill:#a99178;fill-opacity:1;fill-rule:nonzero;stroke:none;stroke-width:0.0352778"
       id="path644" />
    <path
       d="m 97.577552,124.10068 c 0,0 -1.69298,2.65888 -1.362428,3.3468 0.330906,0.68792 2.010481,0.26458 2.328334,0.58208 0.3175,0.31786 1.097844,1.34938 1.931102,1.16417 0.83397,-0.18485 1.69369,-0.92604 2.52695,-0.635 0.83361,0.29104 1.04493,0.82021 2.03729,0.64841 0.99201,-0.17216 0.97896,-0.68792 1.66688,-0.63536 0.68827,0.0533 1.2834,0.52917 1.73284,0.39688 0.45015,-0.13229 0.39017,-0.63465 1.0153,-0.71402 0.62547,-0.0797 1.26047,0.14534 1.48519,-0.47625 0.22507,-0.62195 -1.48519,-3.33375 -1.48519,-3.33375 l -11.876268,-0.34396"
       style="fill:#af3c23;fill-opacity:1;fill-rule:nonzero;stroke:none;stroke-width:0.0352778"
       id="path646" />
    <path
       d="m 97.881999,124.10068 c 0,0 -6.164791,20.0025 -5.979936,20.69041 0.185562,0.68792 1.455209,1.56105 2.090209,1.03188 0.635353,-0.52917 7.037918,-20.87562 7.037918,-20.87562 l -3.148191,-0.84667"
       style="fill:#391c14;fill-opacity:1;fill-rule:nonzero;stroke:none;stroke-width:0.0352778"
       id="path648" />
    <path
       d="m 110.10575,113.06579 c 0.0624,0.32244 1.54764,6.33836 2.6984,9.03711 1.15111,2.69875 6.27097,11.86674 8.21584,11.98562 1.94416,0.11924 2.57951,-0.15875 2.6984,-0.51576 0.11923,-0.35736 -0.17851,-0.47625 -0.17851,-0.47625 0,0 1.11125,0.25788 1.15111,-0.41663 0.0395,-0.67486 -3.39337,-1.15111 -3.39337,-1.15111 0,0 -6.13127,-10.06087 -7.29226,-13.95025 -1.16135,-3.88937 -1.67711,-11.1125 -2.39184,-12.30312 -0.71402,-1.19063 -3.37326,-1.84221 -1.50777,7.79039"
       style="fill:#fbc772;fill-opacity:1;fill-rule:nonzero;stroke:none;stroke-width:0.0352778"
       id="path650" />
    <path
       d="m 97.232536,100.08921 c 0,0 0.331611,6.25793 -1.83762,9.24772 0.291042,3.62479 1.269647,13.59958 2.487083,14.76375 1.217084,1.16417 11.403541,1.16417 11.826871,0.52917 0.42299,-0.635 1.85703,-13.06725 0.76977,-18.12255 -1.08727,-5.05495 -10.849685,-6.994174 -10.849685,-6.994174 l -2.396419,0.576084"
       style="fill:#f6842d;fill-opacity:1;fill-rule:nonzero;stroke:none;stroke-width:0.0352778"
       id="path652" />
    <path
       d="m 103.28938,96.584012 c 0,0 1.16099,0.357011 1.17051,-0.555625 0.94263,0 1.06187,-1.031875 0.7045,-1.74625 -0.35701,-0.714375 -1.45838,-1.607608 -1.87501,-1.260122 -0.41699,0.347133 -0.37712,2.668764 0,3.561997"
       style="fill:#87362d;fill-opacity:1;fill-rule:nonzero;stroke:none;stroke-width:0.0352778"
       id="path654" />
    <path
       d="m 92.907833,87.985054 v 5.582708 c 0,0 4.180416,3.201458 4.736041,3.095625 0.555625,-0.105833 2.592566,-0.687917 2.592566,-0.687917 0,0 1.00577,1.561042 0.95285,3.677709 2.35444,1.481671 3.36021,0 3.36021,0 0,0 -1.45521,-3.862917 -0.66146,-8.307917 0.79375,-4.445 -3.38702,-6.365169 -3.38702,-6.365169 l -7.593187,3.004961"
       style="fill:#fbc772;fill-opacity:1;fill-rule:nonzero;stroke:none;stroke-width:0.0352778"
       id="path656" />
    <path
       d="M 95.669377,93.10139 C 95.540966,92.863618 94.270261,91.891009 93.437,92.585276 c -1.997428,0.07937 -1.64712,1.279878 -1.537759,1.458736 -1.141236,1.319389 -0.873478,2.321631 0,2.291644 -1.02235,0.952853 -1.518355,2.728736 -0.347486,3.512609 1.17087,0.783875 2.450747,-0.257881 2.450747,-0.257881 0,0 -0.297744,0.962376 1.260123,0.783516 1.557513,-0.1785 1.636888,-1.577266 1.636888,-1.577266 0,0 0.565503,1.398766 1.617134,0.535517 1.051983,-0.863247 0.873477,-1.964267 0.873477,-1.964267 0,0 1.230136,0.555272 1.627016,-0.575733 0.39687,-1.131006 0.12911,-1.924756 0.12911,-1.924756 0,0 0.78352,0.327378 0.88301,-0.9525 0.0991,-1.279877 -0.9525,-2.440869 -0.9525,-2.440869 0,0 0.67451,-1.101019 0.0893,-1.944511 -0.58526,-0.843492 0.0399,-3.512608 -1.25025,-3.214864 -1.289755,0.297745 -1.676752,1.021997 -1.05163,2.331861 -1.151114,1.372658 -0.506236,2.569633 -0.506236,2.569633 0,0 -0.932392,0.496006 -0.932392,1.289756 -0.704497,-0.188383 -1.647119,0.228247 -1.756128,0.595489"
       style="fill:#87362d;fill-opacity:1;fill-rule:nonzero;stroke:none;stroke-width:0.0352778"
       id="path658" />
    <path
       d="m 110.75027,92.297762 c 0.36654,-4.28625 8.04687,-8.41375 7.72937,-15.914863 -0.3175,-7.500761 -7.64611,-8.056386 -10.3057,-6.614583 -2.65889,1.442155 -8.493127,3.01625 -10.530066,3.174999 0.238125,0.899584 1.891595,2.950281 1.891595,2.950281 1.217081,-0.965906 5.212641,-0.678392 6.759931,1.044928 3.73062,3.730624 3.6516,7.858124 3.0166,12.263613 -1.86549,8.810625 3.49215,8.89 3.49215,8.89 0,0 -2.42076,-1.508125 -2.05388,-5.794375"
       style="fill:#391c14;fill-opacity:1;fill-rule:nonzero;stroke:none;stroke-width:0.0352778"
       id="path660" />
    <path
       d="m 95.369163,88.46342 c 0,0 -0.283986,1.695803 0.351014,1.546225 0.635,-0.149225 0.395817,-1.807633 0.373239,-1.815394 -0.02222,-0.0074 -0.724253,0.269169 -0.724253,0.269169"
       style="fill:#040606;fill-opacity:1;fill-rule:nonzero;stroke:none;stroke-width:0.0352778"
       id="path662" />
    <path
       d="m 93.661719,88.527273 c 0,0 1.045281,4.021667 -0.912636,4.180417 -1.957917,0.15875 -1.230136,-1.256595 -0.899583,-1.891595 0.330905,-0.635 0.608541,-1.865488 0.555272,-2.116666 -0.05256,-0.251531 1.256947,-0.172156 1.256947,-0.172156"
       style="fill:#f57f4a;fill-opacity:1;fill-rule:nonzero;stroke:none;stroke-width:0.0352778"
       id="path664" />
    <path
       d="m 99.747136,87.098523 c 0,0 -7.758642,3.194756 -10.616495,2.024239 2.678995,-1.845733 4.601986,-4.626328 4.802364,-5.635625 0.47625,-2.401358 4.802364,-7.243233 10.418235,-3.929239 5.61552,3.313995 1.05128,11.80712 1.1109,13.632745 0.0596,1.825625 0.4766,2.420761 0.4766,2.420761 0,0 -6.330599,-4.087636 -6.191604,-8.512881"
       style="fill:#f6842d;fill-opacity:1;fill-rule:nonzero;stroke:none;stroke-width:0.0352778"
       id="path666" />
    <path
       d="m 98.12083,83.989846 c -0.738717,-0.373945 -1.782939,-0.428625 -2.596797,-0.364773 -0.219781,0.01693 -0.404636,0.1397 -0.469195,0.357011 -0.02046,0.06914 -0.03528,0.141464 -0.01376,0.212725 0.0046,0.01517 0.0092,0.03069 0.01376,0.04586 0.06738,0.22613 0.248709,0.331611 0.469195,0.357363 0.404283,0.04727 0.807155,0.09102 1.208264,0.164748 0.375708,0.06914 0.738716,0.1905 1.120775,0.216252 0.520347,0.03528 0.73025,-0.755297 0.267758,-0.989188"
       style="fill:#662e16;fill-opacity:1;fill-rule:nonzero;stroke:none;stroke-width:0.0352778"
       id="path668" />
    <path
       d="m 104.03339,79.954773 c 0,0 0.59548,-0.833261 0.23812,-2.116666 -0.35736,-1.283053 -2.61937,-2.447219 -4.736041,-1.944511 -0.185208,-0.846667 6.588121,-1.468614 9.049101,1.772708 2.46027,3.240969 2.98944,8.162219 0.72743,11.535833 0.55527,-2.500489 -0.23848,-11.787364 -3.77014,-8.493125 -1.70674,0.992011 -1.50847,-0.754239 -1.50847,-0.754239"
       style="fill:#f6842d;fill-opacity:1;fill-rule:nonzero;stroke:none;stroke-width:0.0352778"
       id="path670" />
    <path
       d="m 97.663983,94.902673 c -0.05856,-0.142875 -0.09948,-0.202142 -0.250825,-0.251178 -0.122061,-0.03916 -0.261409,0.0056 -0.350309,0.09243 -0.343605,0.336197 -0.74683,0.517525 -1.230488,0.405695 -0.366537,-0.08467 -0.594431,-0.359128 -0.932392,-0.480131 -0.123119,-0.0441 -0.204611,0.08467 -0.189442,0.189089 0.07479,0.515761 0.765175,0.824442 1.224845,0.886883 0.602191,0.08184 1.178277,-0.106891 1.636183,-0.49283 0.08749,-0.07338 0.136525,-0.242359 0.09243,-0.349956"
       style="fill:#f57f4a;fill-opacity:1;fill-rule:nonzero;stroke:none;stroke-width:0.0352778"
       id="path672" />
    <path
       d="m 99.072624,99.540642 c 0,0 6.310136,-0.09913 8.552746,-3.313994 1.86514,-0.462492 2.83739,3.552119 2.83739,3.552119 0,0 3.15525,0.496003 3.53201,4.266493 0.37747,3.77014 -9.84215,3.29389 -12.50138,-1.82562 -0.83327,-0.15875 -2.460629,-1.23049 -2.420766,-2.678998"
       style="fill:#ad2c39;fill-opacity:1;fill-rule:nonzero;stroke:none;stroke-width:0.0352778"
       id="path674" />
    <path
       d="m 98.43198,99.094026 c 0,0 -1.442156,0.395816 -1.314803,0.874183 0.127,0.478011 2.520597,0.06879 2.511778,-0.455083 -0.0095,-0.523875 -0.681567,-0.553509 -1.196975,-0.4191"
       style="fill:#432c2a;fill-opacity:1;fill-rule:nonzero;stroke:none;stroke-width:0.0352778"
       id="path676" />
    <path
       d="m 100.16377,121.13064 c -0.0596,0.0794 1.50847,-4.60375 1.96462,-4.60375 0.45649,0 0.5341,2.26201 -0.98284,5.41726 -0.20779,0 -0.98178,-0.81351 -0.98178,-0.81351"
       style="fill:#8f321e;fill-opacity:1;fill-rule:nonzero;stroke:none;stroke-width:0.0352778"
       id="path678" />
    <path
       d="m 101.24856,116.41083 c 0,0 0.12665,0.78458 0.28363,0.8516 0.15699,0.0674 0.5648,-0.1344 0.72461,-0.0374 0.16016,0.0974 0.0522,0.47837 0.20919,0.56057 0.15699,0.0822 0.82903,-0.24659 0.85902,-0.47837 0.03,-0.23142 -0.127,-2.2412 -2.07645,-0.89641"
       style="fill:#f6842d;fill-opacity:1;fill-rule:nonzero;stroke:none;stroke-width:0.0352778"
       id="path680" />
    <path
       d="m 97.238533,100.23667 c 0,0 -2.029178,-0.001 -2.835981,1.18922 -0.807155,1.19062 -0.674864,2.27541 -0.674864,2.27541 0,0 -7.487355,12.01209 -6.402563,14.2875 1.084791,2.27542 10.556874,6.35 10.556874,6.35 0,0 2.526591,1.95792 3.175001,1.48167 0.64841,-0.47625 0.40993,-1.34937 0.40993,-1.34937 0,0 0.6484,0.1718 0.66146,-0.50271 0.0134,-0.67487 -0.0399,-1.01883 -0.0399,-1.01883 0,0 0.43673,-0.10583 0.37041,-0.8068 -0.066,-0.70132 -3.227563,-1.82562 -3.227563,-1.82562 0,0 -7.659863,-3.88938 -7.937499,-4.72299 -0.277989,-0.83326 4.392083,-7.7918 4.392083,-7.7918 l 0.217311,0.69038 c 0,0 1.859492,-3.52143 1.335264,-8.25606"
       style="fill:#fbc772;fill-opacity:1;fill-rule:nonzero;stroke:none;stroke-width:0.0352778"
       id="path682" />
    <path
       d="m 110.20276,109.02543 c -0.93027,0.41098 -1.50424,1.12042 -2.59715,1.18992 -0.99024,0.0624 -1.71485,-0.38277 -2.55834,-0.77118 -0.0455,-0.2734 -0.39935,-0.4004 -0.58455,-0.12453 -1.7706,2.63737 -4.3614,1.84538 -6.971246,1.01318 -0.18415,-0.0589 -0.301977,0.22013 -0.131938,0.31291 1.502833,0.81951 3.201104,1.5868 4.958644,1.25166 1.01459,-0.19332 2.08633,-0.79269 2.53471,-1.74061 1.46861,1.48202 5.0994,1.30846 5.76933,-0.80927 0.0822,-0.2607 -0.20885,-0.41486 -0.41946,-0.32208"
       style="fill:#ae4c21;fill-opacity:1;fill-rule:nonzero;stroke:none;stroke-width:0.0352778"
       id="path684" />
    <path
       d="m 107.02,113.62071 c -1.18533,-1.63901 -3.68758,-0.57644 -4.56918,0.79022 -0.14746,0.2286 0.20109,0.50659 0.38171,0.29457 0.44944,-0.52705 1.06609,-0.88124 1.7586,-0.95885 0.75424,-0.0847 1.29646,0.29633 1.99496,0.43886 0.29421,0.06 0.64699,-0.27058 0.43391,-0.5648"
       style="fill:#ae4c21;fill-opacity:1;fill-rule:nonzero;stroke:none;stroke-width:0.0352778"
       id="path686" />
    <path
       d="m 110.00521,99.899065 c -2.48885,1.065385 -4.71064,1.909935 -7.4736,1.279175 -0.22613,-0.0515 -0.32138,0.28539 -0.096,0.34925 2.54741,0.72601 5.79473,0.65616 7.8613,-1.25025 0.21731,-0.20073 -0.0593,-0.477306 -0.29175,-0.378175"
       style="fill:#82202c;fill-opacity:1;fill-rule:nonzero;stroke:none;stroke-width:0.0352778"
       id="path688" />
    <path
       d="m 112.08448,101.95858 c -2.37737,1.87749 -4.86481,1.63054 -7.51276,0.38806 -0.27657,-0.12982 -0.52034,0.26881 -0.24306,0.41557 2.42958,1.28552 6.37611,2.42217 8.19256,-0.46708 0.18062,-0.28751 -0.20532,-0.51893 -0.43674,-0.33655"
       style="fill:#82202c;fill-opacity:1;fill-rule:nonzero;stroke:none;stroke-width:0.0352778"
       id="path690" />
    <path
       d="m 95.967474,175.82178 c 0,0 3.222625,-1.20439 4.804126,0.0617 0,0 -0.33655,-0.77117 -0.36301,-0.95638 -0.0261,-0.18556 -0.0857,-1.9311 -0.0857,-1.9311 0,0 -1.168396,-0.60819 -3.478385,0 0,0 -0.07091,1.74519 -0.183092,1.93216 -0.112183,0.18662 -0.693914,0.89359 -0.693914,0.89359"
       style="fill:#c45723;fill-opacity:1;fill-rule:nonzero;stroke:none;stroke-width:0.0352778"
       id="path692" />
    <path
       d="m 107.77742,175.41679 c 0,0 1.11266,0.60819 1.61466,2.06339 0,0 1.28235,0.17533 1.38818,0.048 0.10583,-0.12735 1.60161,-2.3248 1.60161,-2.3248 0,0 -0.72813,-0.62019 -0.83432,-0.8054 -0.10583,-0.18556 -0.15557,-2.01118 -0.15557,-2.01118 0,0 -2.08316,-0.37183 -3.58317,-0.0667 l -0.0314,3.09669"
       style="fill:#c45723;fill-opacity:1;fill-rule:nonzero;stroke:none;stroke-width:0.0352778"
       id="path694" />
    <path
       d="m 122.87207,134.42225 c -0.11994,-0.007 -1.43792,-1.4157 -3.3588,6.64245 -1.92087,8.05886 -3.96804,33.08738 0.18945,34.405 4.15713,1.31763 9.86754,-40.63152 3.16935,-41.04745"
       style="fill:#a0471f;fill-opacity:1;fill-rule:nonzero;stroke:none;stroke-width:0.0352778"
       id="path696" />
    <path
       d="m 124.06869,145.70973 c -3.71686,4.28766 -6.69783,10.30252 -6.46818,16.11418 0.0166,0.42051 0.70274,0.5648 0.7747,0.10513 0.42475,-2.71498 0.77576,-5.3333 1.7646,-7.91951 1.06997,-2.79612 2.63384,-5.37704 4.58505,-7.64364 0.38735,-0.45014 -0.26388,-1.10878 -0.65617,-0.65616"
       style="fill:#391c14;fill-opacity:1;fill-rule:nonzero;stroke:none;stroke-width:0.0352778"
       id="path698" />
    <path
       d="m 93.508966,97.410923 c 0.145345,-0.388408 -0.458258,-0.535869 -0.612069,-0.168628 -0.165806,0.395111 -0.09137,1.300339 0.517525,1.234017 0.113594,-0.01235 0.19685,-0.08361 0.2032,-0.203553 0.01693,-0.325967 -0.234597,-0.52458 -0.108656,-0.861836"
       style="fill:#712e26;fill-opacity:1;fill-rule:nonzero;stroke:none;stroke-width:0.0352778"
       id="path700" />
    <path
       d="m 95.851058,97.377409 c 0.134761,-0.468842 -0.580672,-0.661105 -0.727075,-0.200378 -0.131586,0.413809 0.11183,1.270353 0.696383,1.07562 0.115358,-0.0381 0.240242,-0.15875 0.224367,-0.293864 -0.0254,-0.210961 -0.252942,-0.374297 -0.193675,-0.581378"
       style="fill:#712e26;fill-opacity:1;fill-rule:nonzero;stroke:none;stroke-width:0.0352778"
       id="path702" />
    <path
       d="m 92.920533,94.62539 c -0.02434,0.335844 -0.110067,0.738716 0.08431,1.037166 0.08819,0.135114 0.309739,0.197203 0.428625,0.05503 0.255058,-0.304095 0.218369,-0.715786 0.236361,-1.0922 0.02328,-0.484364 -0.714022,-0.476603 -0.7493,0"
       style="fill:#712e26;fill-opacity:1;fill-rule:nonzero;stroke:none;stroke-width:0.0352778"
       id="path704" />
    <path
       d="m 99.766186,95.124923 c -0.24765,-0.413103 -0.895703,-0.03669 -0.646642,0.378178 0.156633,0.260703 0.274108,0.480836 0.573617,0.583847 0.118886,0.04092 0.291041,-0.04727 0.311149,-0.176742 0.0497,-0.318205 -0.07761,-0.51823 -0.238124,-0.785283"
       style="fill:#712e26;fill-opacity:1;fill-rule:nonzero;stroke:none;stroke-width:0.0352778"
       id="path706" />
    <path
       d="m 99.748899,91.319509 c -0.380294,-0.141464 -0.656166,0.498475 -0.279047,0.662164 0.269522,0.11677 0.270581,0.422981 0.523522,0.549275 0.117826,0.05891 0.228596,0.03916 0.327736,-0.04198 0.49177,-0.404637 -0.1958,-1.029406 -0.572211,-1.169459"
       style="fill:#712e26;fill-opacity:1;fill-rule:nonzero;stroke:none;stroke-width:0.0352778"
       id="path708" />
    <path
       d="m 98.548749,92.790945 c -0.12065,-0.413455 -0.772936,-0.235302 -0.645936,0.1778 0.0695,0.225425 0.112184,0.464961 0.301273,0.620889 0.148166,0.122061 0.366183,0.08255 0.426861,-0.112889 0.07444,-0.239183 -0.01411,-0.453672 -0.0822,-0.6858"
       style="fill:#712e26;fill-opacity:1;fill-rule:nonzero;stroke:none;stroke-width:0.0352778"
       id="path710" />
    <path
       d="m 113.75312,70.519027 c -1.76248,1.437922 -3.12455,3.83928 -4.29436,5.757686 -0.20179,0.330905 0.31432,0.630061 0.51823,0.303036 0.62829,-1.007886 1.28905,-1.9939 1.99989,-2.945695 0.70168,-0.938741 1.57621,-1.800577 2.18511,-2.799291 0.16369,-0.268111 -0.19156,-0.492831 -0.40887,-0.315736"
       style="fill:#6d3218;fill-opacity:1;fill-rule:nonzero;stroke:none;stroke-width:0.0352778"
       id="path712" />
    <path
       d="m 116.45222,72.653685 c -0.97225,0.32773 -1.8161,1.156053 -2.60173,1.803047 -0.96873,0.798336 -1.89407,1.645003 -2.7873,2.526947 -0.3168,0.312561 0.16722,0.794456 0.48789,0.487539 0.81668,-0.781403 1.65841,-1.534936 2.53541,-2.248605 0.84561,-0.687917 1.94663,-1.266825 2.62855,-2.11702 0.15275,-0.190147 0.019,-0.547158 -0.26282,-0.451908"
       style="fill:#6d3218;fill-opacity:1;fill-rule:nonzero;stroke:none;stroke-width:0.0352778"
       id="path714" />
    <path
       d="m 116.36861,77.33434 c -0.54998,0.06985 -1.02164,0.343606 -1.52012,0.575733 -0.60042,0.279753 -1.20085,0.559506 -1.80093,0.838906 -0.34431,0.160514 -0.0444,0.65405 0.29528,0.505531 0.57044,-0.249062 1.14088,-0.498123 1.71132,-0.747537 0.51224,-0.223308 1.05834,-0.397227 1.48132,-0.770466 0.14287,-0.126295 0.037,-0.428272 -0.16687,-0.402167"
       style="fill:#6d3218;fill-opacity:1;fill-rule:nonzero;stroke:none;stroke-width:0.0352778"
       id="path716" />
    <path
       d="m 116.53195,80.278623 c -0.80151,0.03845 -1.67887,0.561623 -2.41018,0.866775 -0.35807,0.149578 -0.20673,0.741539 0.16369,0.593373 0.41416,-0.165806 0.83079,-0.326673 1.24213,-0.499181 0.39617,-0.166158 0.83009,-0.312208 1.15358,-0.60078 0.13441,-0.120298 0.03,-0.368653 -0.14922,-0.360187"
       style="fill:#6d3218;fill-opacity:1;fill-rule:nonzero;stroke:none;stroke-width:0.0352778"
       id="path718" />
    <path
       d="m 109.22874,71.274677 c -0.33549,0.258233 -0.44979,0.661458 -0.60748,1.04528 -0.2039,0.495653 -0.40746,0.990953 -0.61136,1.486253 -0.11466,0.278694 0.36301,0.481894 0.4893,0.206375 0.21096,-0.458258 0.42192,-0.916517 0.63253,-1.374775 0.16969,-0.369358 0.43145,-0.778228 0.39194,-1.194153 -0.0123,-0.128058 -0.16475,-0.269522 -0.29493,-0.16898"
       style="fill:#6d3218;fill-opacity:1;fill-rule:nonzero;stroke:none;stroke-width:0.0352778"
       id="path720" />
    <path
       d="m 106.47672,72.793738 c -0.0882,0.272344 -0.16615,0.548216 -0.24729,0.822677 -0.0825,0.278342 0.37853,0.363362 0.40428,0.05468 0.024,-0.282222 0.0508,-0.564091 0.067,-0.846666 0.008,-0.13335 -0.18591,-0.14852 -0.22401,-0.03069"
       style="fill:#6d3218;fill-opacity:1;fill-rule:nonzero;stroke:none;stroke-width:0.0352778"
       id="path722" />
    <path
       d="m 105.37147,73.039271 c -0.0462,-0.161572 -0.23671,-0.159103 -0.32632,-0.04269 -0.18803,0.244122 -0.16827,0.638175 -0.20778,0.935919 -0.0296,0.224014 0.33549,0.264937 0.38982,0.05256 0.0773,-0.301272 0.23248,-0.637469 0.14428,-0.945797"
       style="fill:#6d3218;fill-opacity:1;fill-rule:nonzero;stroke:none;stroke-width:0.0352778"
       id="path724" />
    <path
       d="m 115.32333,83.007712 c -0.29845,-0.166864 -0.72954,-0.150636 -1.06397,-0.137583 -0.24624,0.0099 -0.3101,0.37218 -0.0593,0.438503 0.31855,0.08431 0.75,0.198614 1.07068,0.102658 0.1778,-0.05362 0.22225,-0.308681 0.0526,-0.403578"
       style="fill:#6d3218;fill-opacity:1;fill-rule:nonzero;stroke:none;stroke-width:0.0352778"
       id="path726" />
    <path
       d="m 113.73019,84.412473 c -0.34114,0 -0.34184,0.530578 0,0.530578 0.34184,0 0.34219,-0.530578 0,-0.530578"
       style="fill:#6d3218;fill-opacity:1;fill-rule:nonzero;stroke:none;stroke-width:0.0352778"
       id="path728" />
  </g>
</svg>
