<?xml version="1.0" encoding="UTF-8" standalone="no"?>
<!-- Created with Inkscape (http://www.inkscape.org/) -->

<svg
   width="50.929821mm"
   height="108.77135mm"
   viewBox="0 0 50.929821 108.77135"
   version="1.1"
   id="svg3386"
   inkscape:version="1.2 (dc2aeda, 2022-05-15)"
   sodipodi:docname="hephasetus.svg"
   xmlns:inkscape="http://www.inkscape.org/namespaces/inkscape"
   xmlns:sodipodi="http://sodipodi.sourceforge.net/DTD/sodipodi-0.dtd"
   xmlns="http://www.w3.org/2000/svg"
   xmlns:svg="http://www.w3.org/2000/svg">
  <sodipodi:namedview
     id="namedview3388"
     pagecolor="#ffffff"
     bordercolor="#666666"
     borderopacity="1.0"
     inkscape:showpageshadow="2"
     inkscape:pageopacity="0.0"
     inkscape:pagecheckerboard="true"
     inkscape:deskcolor="#d1d1d1"
     inkscape:document-units="mm"
     showgrid="false"
     inkscape:zoom="0.914906"
     inkscape:cx="371.62288"
     inkscape:cy="302.21684"
     inkscape:window-width="1390"
     inkscape:window-height="1205"
     inkscape:window-x="2240"
     inkscape:window-y="25"
     inkscape:window-maximized="0"
     inkscape:current-layer="layer1" />
  <defs
     id="defs3383" />
  <g
     inkscape:label="Layer 1"
     inkscape:groupmode="layer"
     id="layer1"
     transform="translate(-6.6353818,-68.52085)">
    <path
       d="m 32.933906,77.189749 15.266458,9.800166 1.27,-1.613958 -15.20578,-10.292291 -1.330678,2.106083"
       style="fill:#3b302a;fill-opacity:1;fill-rule:nonzero;stroke:none;stroke-width:0.0352778"
       id="path890" />
    <path
       d="m 15.702123,134.21804 c 0,0 -3.167944,-7.27992 -3.008841,-10.70398 0.158397,-3.42477 2.420055,-10.99185 3.008841,-10.78019 0.589139,0.21167 4.229453,17.99167 4.367389,19.31459 0.137583,1.32291 14.637103,-2.88996 14.637103,-2.88996 0,0 -3.2131,-16.35901 -3.299884,-18.13807 -0.08714,-1.77906 0.908756,-2.14947 0.908756,-2.14947 0,0 14.932024,-3.94265 13.186127,-19.897023 -0.635352,-0.952147 -3.4925,0.907345 -3.4925,0.907345 0,0 -0.553155,11.128378 -8.769702,15.455898 -4.618214,2.67758 -18.323983,2.67758 -18.323983,2.67758 0,0 -6.82625,9.6139 -5.9792306,17.74967 0.8466667,8.13611 3.9687496,11.21339 3.9687496,11.21339 l 2.797175,-2.75978"
       style="fill:#fbc772;fill-opacity:1;fill-rule:nonzero;stroke:none;stroke-width:0.0352778"
       id="path892" />
    <path
       d="m 39.551664,80.064182 c 0,0 -1.888419,0.575733 -2.007305,1.964972 -0.119239,1.388886 0.753886,1.5875 0.753886,1.5875 0,0 1.078089,8.215136 1.253419,8.274756 0.175331,0.05962 3.112206,-1.718734 4.262967,-2.010128 1.151114,-0.2921 3.036005,-0.351367 2.857853,-0.738011 -0.178859,-0.38735 -1.389239,-4.177242 -1.389239,-4.177242 0,0 2.599619,-0.476603 1.984375,-3.214864 -0.615245,-2.738261 -2.936875,-2.63913 -3.135489,-2.738261 -0.198261,-0.09913 -1.289756,-2.024239 -3.175,-1.805869 -1.884892,0.218369 -1.405467,2.857147 -1.405467,2.857147"
       style="fill:#684734;fill-opacity:1;fill-rule:nonzero;stroke:none;stroke-width:0.0352778"
       id="path894" />
    <path
       d="m 14.451173,131.82832 c -0.297391,-0.19014 -0.766939,0.14111 -1.020586,0.30304 -0.37465,0.23918 -0.705908,0.53975 -1.0033,0.86854 -0.207786,0.23036 0.103717,0.53269 0.336903,0.33655 0.320675,-0.26882 0.662517,-0.50271 1.015647,-0.72602 0.238478,-0.15064 0.693561,-0.29739 0.743303,-0.60537 0.01129,-0.0723 -0.0088,-0.13617 -0.07197,-0.17674"
       style="fill:#8b451a;fill-opacity:1;fill-rule:nonzero;stroke:none;stroke-width:0.0352778"
       id="path896" />
    <path
       d="m 13.474684,130.9813 c -0.522111,0.0945 -0.961672,0.57221 -1.194152,1.02412 -0.177448,0.34466 0.327377,0.64558 0.522464,0.3055 0.223661,-0.39017 0.537986,-0.54998 0.905933,-0.77434 0.306211,-0.18698 0.09666,-0.61525 -0.234245,-0.55528"
       style="fill:#8b451a;fill-opacity:1;fill-rule:nonzero;stroke:none;stroke-width:0.0352778"
       id="path898" />
    <path
       d="m 13.260548,130.0348 c -0.237066,-0.24518 -0.638527,-0.0674 -0.884414,0.084 -0.299155,0.18415 -0.536222,0.45438 -0.680155,0.77435 -0.156633,0.34819 0.356658,0.65475 0.518583,0.30268 0.111831,-0.24377 0.271286,-0.44026 0.507295,-0.57397 0.194733,-0.11006 0.456847,-0.12664 0.570794,-0.33761 0.0441,-0.0822 0.03281,-0.18203 -0.0321,-0.24941"
       style="fill:#8b451a;fill-opacity:1;fill-rule:nonzero;stroke:none;stroke-width:0.0352778"
       id="path900" />
    <path
       d="m 12.393773,128.51186 c -0.293864,0.14217 -0.576791,0.30692 -0.862541,0.46425 -0.385586,0.21273 0.04057,0.80645 0.375708,0.48719 0.234597,-0.22401 0.475192,-0.44274 0.697442,-0.67874 0.138994,-0.14782 -0.03528,-0.35737 -0.210609,-0.2727"
       style="fill:#8b451a;fill-opacity:1;fill-rule:nonzero;stroke:none;stroke-width:0.0352778"
       id="path902" />
    <path
       d="m 41.95655,95.21881 c -0.268111,-0.05186 -0.472722,0.05644 -0.720019,0.153105 -0.273756,0.107597 -0.547511,0.214842 -0.821267,0.322086 -0.2413,0.09454 -0.152752,0.467078 0.109361,0.397228 0.282575,-0.07585 0.56515,-0.151342 0.847725,-0.226483 0.246239,-0.06597 0.499181,-0.09913 0.677334,-0.293511 0.09948,-0.10795 0.07091,-0.320323 -0.09313,-0.352425"
       style="fill:#8b451a;fill-opacity:1;fill-rule:nonzero;stroke:none;stroke-width:0.0352778"
       id="path904" />
    <path
       d="m 42.076848,93.807698 c -0.545042,-0.141111 -1.065742,0.344312 -1.461911,0.651581 -0.229306,0.1778 0.0635,0.530578 0.303388,0.393347 0.386998,-0.221191 0.97402,-0.274461 1.271059,-0.617714 0.122061,-0.140405 0.08431,-0.376061 -0.112536,-0.427214"
       style="fill:#8b451a;fill-opacity:1;fill-rule:nonzero;stroke:none;stroke-width:0.0352778"
       id="path906" />
    <path
       d="m 42.71855,92.392001 c -0.357011,-0.410986 -1.163108,0.02399 -1.508477,0.270228 -0.334434,0.238831 -0.03634,0.782108 0.32773,0.561269 0.2159,-0.13088 0.437092,-0.215547 0.683684,-0.267052 0.229658,-0.04762 0.385233,-0.0568 0.53728,-0.254706 0.07126,-0.09349 0.02787,-0.231422 -0.04022,-0.309739"
       style="fill:#8b451a;fill-opacity:1;fill-rule:nonzero;stroke:none;stroke-width:0.0352778"
       id="path908" />
    <path
       d="m 23.076237,116.38512 c 0.01058,0.18168 0.0067,0.35525 0.06668,0.52776 0.0635,0.18309 0.309386,0.18344 0.372886,0 0.05962,-0.17145 0.05645,-0.34784 0.06668,-0.52776 0.0187,-0.32526 -0.52458,-0.32596 -0.506236,0"
       style="fill:#8b451a;fill-opacity:1;fill-rule:nonzero;stroke:none;stroke-width:0.0352778"
       id="path910" />
    <path
       d="m 25.133637,116.28035 c -0.168628,-0.37077 -0.784225,-0.004 -0.539397,0.31538 0.149578,0.19544 0.276577,0.40711 0.494594,0.52987 0.118533,0.067 0.2794,-0.0166 0.276225,-0.15839 -0.006,-0.25189 -0.128411,-0.46108 -0.231422,-0.68686"
       style="fill:#8b451a;fill-opacity:1;fill-rule:nonzero;stroke:none;stroke-width:0.0352778"
       id="path912" />
    <path
       d="m 26.265348,115.21919 c -0.06315,-0.14005 -0.153106,-0.23636 -0.252236,-0.35348 -0.232833,-0.2734 -0.66675,0.16016 -0.392995,0.39299 0.11677,0.0991 0.213431,0.18909 0.353131,0.25224 0.200025,0.0903 0.382411,-0.0917 0.2921,-0.29175"
       style="fill:#8b451a;fill-opacity:1;fill-rule:nonzero;stroke:none;stroke-width:0.0352778"
       id="path914" />
    <path
       d="m 23.280495,114.25293 c -0.103364,0.24166 -0.258939,0.48966 -0.25788,0.75636 7.05e-4,0.17462 0.219075,0.26423 0.3429,0.14182 0.189794,-0.18627 0.255764,-0.47026 0.354541,-0.71297 0.101953,-0.25012 -0.332669,-0.43568 -0.439561,-0.18521"
       style="fill:#8b451a;fill-opacity:1;fill-rule:nonzero;stroke:none;stroke-width:0.0352778"
       id="path916" />
    <path
       d="m 19.582679,119.69453 c -0.19297,-0.0776 -0.328084,0.0219 -0.497417,0.10866 -0.197555,0.10124 -0.402167,0.17427 -0.623711,0.20037 -0.378883,0.0452 -0.402167,0.62548 0,0.61066 0.40005,-0.0148 1.325033,-0.13793 1.299986,-0.68509 -0.0056,-0.11853 -0.07408,-0.19227 -0.178858,-0.2346"
       style="fill:#cfa762;fill-opacity:1;fill-rule:nonzero;stroke:none;stroke-width:0.0352778"
       id="path918" />
    <path
       d="m 20.171112,121.22135 c -0.319264,0.12595 -0.624769,0.26247 -0.969433,0.30763 -0.448028,0.0586 -0.46602,0.76588 0,0.71931 0.4318,-0.043 0.875241,-0.133 1.249539,-0.36301 0.335491,-0.20567 0.117827,-0.82021 -0.280106,-0.66393"
       style="fill:#cfa762;fill-opacity:1;fill-rule:nonzero;stroke:none;stroke-width:0.0352778"
       id="path920" />
    <path
       d="m 31.887567,119.33999 c -0.40005,-0.03 -0.802216,-0.0423 -1.202619,-0.0617 -0.438503,-0.0215 -0.418747,0.62301 0,0.66958 0.400403,0.0444 0.800805,0.097 1.202619,0.13052 0.47237,0.0399 0.47237,-0.70238 0,-0.73836"
       style="fill:#cfa762;fill-opacity:1;fill-rule:nonzero;stroke:none;stroke-width:0.0352778"
       id="path922" />
    <path
       d="m 32.011392,120.96488 c -0.2921,-0.1524 -0.584905,-0.084 -0.902758,-0.0631 -0.307269,0.0205 -0.416631,0.50165 -0.07691,0.56973 0.295628,0.0596 0.609248,0.18451 0.903112,0.078 0.240947,-0.0871 0.338313,-0.44803 0.07655,-0.58456"
       style="fill:#cfa762;fill-opacity:1;fill-rule:nonzero;stroke:none;stroke-width:0.0352778"
       id="path924" />
    <path
       d="m 18.461198,111.14637 c 0,0 1.759303,15.96778 1.521178,16.84056 -0.238125,0.87347 -2.06375,1.98437 -1.984375,2.30222 0.07938,0.3175 0.786694,0.079 0.909108,0.79375 0.122767,0.71438 1.097492,10.27889 1.097492,10.27889 l 19.067638,-0.635 c 0,0 -3.611738,-11.70764 -3.849863,-12.14438 -0.238125,-0.43673 0.198261,-0.75388 -0.03951,-1.19062 -0.238477,-0.43674 -2.778124,-1.46826 -3.056113,-2.65889 -0.277989,-1.19062 -2.936875,-14.36687 -2.936875,-14.36687 l -2.301875,-0.19862 c 0,0 1.190625,7.22313 0.9525,7.65952 -0.238125,0.43673 -5.617633,0.99236 -5.805311,0.4766 -0.187678,-0.51612 -1.2192,-7.7791 -1.2192,-7.7791 l -2.354792,0.62194"
       style="fill:#49403a;fill-opacity:1;fill-rule:nonzero;stroke:none;stroke-width:0.0352778"
       id="path926" />
    <path
       d="m 15.04772,97.944018 c 0,0 -1.745897,-0.147461 -1.600552,-2.600678 0.145344,-2.453217 2.844094,-1.513769 2.844094,-1.513769 0,0 0.141817,-6.098822 4.515908,-8.427156 4.374445,-2.328333 7.840486,0.79375 8.607778,2.513542 0.766939,1.719792 1.137708,6.693958 1.137708,6.693958 0,0 1.322917,-1.348669 2.671939,-0.330553 1.349728,1.01847 1.742017,3.38702 -1.031522,3.955345 -0.370417,2.196043 -13.096875,6.058953 -14.155208,4.841873 -1.058333,-1.21708 -2.990145,-5.132562 -2.990145,-5.132562"
       style="fill:#fbc772;fill-opacity:1;fill-rule:nonzero;stroke:none;stroke-width:0.0352778"
       id="path928" />
    <path
       d="m 31.045134,95.34334 c 0.02999,-0.02893 0.932744,-1.031169 1.835856,-0.07867 0.902758,0.952852 -0.08961,2.619375 -0.734484,2.410883 -0.644878,-0.208139 -1.101372,-2.332214 -1.101372,-2.332214"
       style="fill:#cfa762;fill-opacity:1;fill-rule:nonzero;stroke:none;stroke-width:0.0352778"
       id="path930" />
    <path
       d="m 16.136393,95.03854 c 0,0 -1.120423,-0.724605 -1.740606,0.127 -0.61983,0.851606 -0.395816,2.151592 0.829028,2.032 1.22555,-0.119592 1.055158,-1.829153 0.911578,-2.159"
       style="fill:#cfa762;fill-opacity:1;fill-rule:nonzero;stroke:none;stroke-width:0.0352778"
       id="path932" />
    <path
       d="m 17.00599,94.623321 c 0.0067,0.0388 1.018469,5.886799 1.785761,7.011459 0.463197,-1.07174 1.706739,-0.91299 1.706739,-0.91299 0,0 0.355247,-1.464028 1.626305,-1.380419 1.270706,0.08396 2.725914,0.348544 2.725914,0.348544 l 0.833261,-0.370417 c 0,0 0.926042,-0.833614 1.905353,-0.648052 0.978958,0.185208 1.441803,0.820208 1.441803,0.820208 0,0 0.489303,-1.071739 0.860072,-1.111603 0.370064,-0.03951 0.806803,0.304447 0.806803,0.304447 0,0 -0.661459,-4.339166 -0.06597,-4.048125 0.595136,0.291042 2.235553,3.942292 2.235553,3.942292 0,0 3.58528,0.185208 3.161947,2.936875 3.33375,3.09562 1.058333,7.69937 -1.746603,6.29708 0.37077,3.91584 -3.227916,5.76792 -5.899855,3.94229 -1.966031,2.83105 -5.767917,1.34938 -6.191603,0.3175 -1.69298,2.2225 -3.889022,-0.55562 -3.889022,-0.55562 0,0 -2.751666,1.29646 -3.96875,-1.95792 -1.217436,-3.25437 0.9525,-4.57729 0.9525,-4.57729 0,0 -1.468614,0.29104 -1.442155,-1.78576 0.02646,-2.07716 1.640416,-3.333749 1.640416,-3.333749 0,0 -1.243541,-1.071739 -0.780697,-3.214864 0.463197,-2.143125 2.242256,-2.371372 2.302228,-2.023886"
       style="fill:#8b451a;fill-opacity:1;fill-rule:nonzero;stroke:none;stroke-width:0.0352778"
       id="path934" />
    <path
       d="m 25.161506,93.401651 c 0,0 0.138995,3.96875 1.01212,5.3975 0.873125,1.428749 -0.734131,2.361499 -2.75837,2.381249 -2.023886,0.0201 -1.42875,-4.941004 -0.714375,-6.846004 0.714375,-1.905 2.520245,-1.389239 2.460625,-0.932745"
       style="fill:#f57f4a;fill-opacity:1;fill-rule:nonzero;stroke:none;stroke-width:0.0352778"
       id="path936" />
    <path
       d="m 17.680501,91.448321 c 0,0 2.886428,4.085166 4.66478,3.887964 1.778,-0.197203 1.883481,-2.723798 1.381125,-3.649839 -0.502708,-0.926042 -3.704166,-1.773061 -4.53778,-1.680281 -0.833614,0.09278 -1.799167,0.9525 -1.508125,1.442156"
       style="fill:#8b451a;fill-opacity:1;fill-rule:nonzero;stroke:none;stroke-width:0.0352778"
       id="path938" />
    <path
       d="m 29.295709,90.376582 c 0,0 -4.140905,1.799166 -4.008614,2.738614 0.132292,0.939094 0.529167,1.772708 1.680281,1.666522 1.151114,-0.105833 2.8575,-1.534231 3.135489,-2.473678 0.277636,-0.939447 -0.238478,-2.050344 -0.807156,-1.931458"
       style="fill:#8b451a;fill-opacity:1;fill-rule:nonzero;stroke:none;stroke-width:0.0352778"
       id="path940" />
    <path
       d="m 26.808626,102.03165 c 0,0 -2.067278,1.40865 -1.043517,3.11538 1.023761,1.70639 3.285772,-0.21837 3.127022,-2.04399 -0.15875,-1.82563 -1.831622,-1.27035 -2.083505,-1.07139"
       style="fill:#f57f4a;fill-opacity:1;fill-rule:nonzero;stroke:none;stroke-width:0.0352778"
       id="path942" />
    <path
       d="m 26.927865,102.7358 c 0,0 -1.002242,0.62547 -0.754239,1.89512 0.248003,1.27035 1.885244,0.67486 2.242608,-0.883 0.357011,-1.55787 -0.942975,-1.409 -1.488369,-1.01212"
       style="fill:#ad2f3c;fill-opacity:1;fill-rule:nonzero;stroke:none;stroke-width:0.0352778"
       id="path944" />
    <path
       d="m 20.990262,97.831834 c -0.09419,-0.395816 -0.1143,-0.790222 -0.142169,-1.194152 -0.02575,-0.374297 -0.144287,-0.808214 -0.611717,-0.73907 -0.437797,0.06491 -0.511175,0.632884 -0.547511,0.987425 -0.0441,0.430036 0.0081,0.857956 0.08678,1.280584 0.146403,0.788105 1.404761,0.461786 1.214614,-0.334787"
       style="fill:#040606;fill-opacity:1;fill-rule:nonzero;stroke:none;stroke-width:0.0352778"
       id="path946" />
    <path
       d="m 19.520943,96.768915 c -0.109714,0.06985 -0.206375,0.1143 -0.323145,0.170392 -0.163689,0.07902 -0.102658,0.313619 0.04727,0.363008 0.09878,0.03246 0.180975,0.05256 0.275873,0.09631 0.243769,0.112889 0.548569,-0.01834 0.548569,-0.314677 0,-0.268464 -0.312561,-0.465314 -0.548569,-0.315031"
       style="fill:#ffffff;fill-opacity:1;fill-rule:nonzero;stroke:none;stroke-width:0.0352778"
       id="path948" />
    <path
       d="m 28.372137,97.157323 c -0.09455,-0.395464 -0.1143,-0.789869 -0.14217,-1.194152 -0.0261,-0.374298 -0.144286,-0.807861 -0.611716,-0.73907 -0.437797,0.06491 -0.511528,0.632884 -0.547864,0.987778 -0.04375,0.429683 0.0085,0.857603 0.08678,1.28023 0.146756,0.788106 1.404761,0.461434 1.214967,-0.334786"
       style="fill:#040606;fill-opacity:1;fill-rule:nonzero;stroke:none;stroke-width:0.0352778"
       id="path950" />
    <path
       d="m 26.902465,96.094757 c -0.109714,0.06985 -0.206023,0.113947 -0.323145,0.170039 -0.163689,0.07937 -0.102658,0.313619 0.04727,0.363008 0.09878,0.03246 0.180975,0.05292 0.275873,0.09666 0.243769,0.112536 0.548569,-0.0187 0.548569,-0.31503 0,-0.268112 -0.312561,-0.465314 -0.548569,-0.314678"
       style="fill:#ffffff;fill-opacity:1;fill-rule:nonzero;stroke:none;stroke-width:0.0352778"
       id="path952" />
    <path
       d="m 26.31509,89.750401 c -0.04163,-0.147108 -0.194734,-0.231422 -0.341489,-0.194027 -0.236361,0.05962 -0.323145,0.177094 -0.48895,0.348544 -0.273756,0.283986 -0.617009,0.462844 -1.023056,0.452967 -0.350661,-0.0088 -0.63253,-0.17392 -0.930627,-0.331964 -0.220134,-0.117122 -0.358775,-0.08608 -0.580673,-0.158045 -0.0635,-0.02081 -0.136172,0.04763 -0.112536,0.112889 0.06844,0.191911 0.03669,0.297745 0.135467,0.464961 0.106892,0.18027 0.313972,0.333023 0.490361,0.44062 0.379236,0.23248 0.828322,0.321733 1.268942,0.2794 0.638527,-0.06138 1.811513,-0.612422 1.582561,-1.415345"
       style="fill:#cfa762;fill-opacity:1;fill-rule:nonzero;stroke:none;stroke-width:0.0352778"
       id="path954" />
    <path
       d="m 25.005579,89.186662 c -0.242359,-0.03775 -0.445206,0.07232 -0.685448,0.07867 -0.243769,0.006 -0.497063,-0.0762 -0.734483,-0.118886 -0.143933,-0.02611 -0.263525,0.111125 -0.1905,0.24765 0.170392,0.318911 0.473428,0.451555 0.83185,0.481189 0.3175,0.02611 0.763411,-0.02716 0.917928,-0.346075 0.05821,-0.120298 0.02117,-0.318206 -0.139347,-0.342548"
       style="fill:#cfa762;fill-opacity:1;fill-rule:nonzero;stroke:none;stroke-width:0.0352778"
       id="path956" />
    <path
       d="m 20.162645,108.66246 c -0.5334,-0.18062 -1.079852,-0.13546 -1.514827,-0.56338 -0.490714,-0.48225 -0.581731,-1.27 -0.300214,-1.88278 0.15875,-0.34607 -0.309034,-0.6357 -0.518584,-0.30268 -0.509411,0.80857 -0.507647,1.84432 0.106539,2.6035 0.482953,0.5969 1.575859,1.15782 2.291645,0.63959 0.189794,-0.13723 0.166511,-0.41558 -0.06456,-0.49425"
       style="fill:#753a17;fill-opacity:1;fill-rule:nonzero;stroke:none;stroke-width:0.0352778"
       id="path958" />
    <path
       d="m 24.818606,106.68091 c -0.240241,0.23213 -0.439208,0.48225 -0.789869,0.5394 -0.414867,0.0677 -0.758472,-0.17568 -0.946856,-0.52952 -0.221191,-0.41487 -0.825852,-0.0501 -0.625475,0.36548 0.286103,0.59337 0.89782,0.98954 1.56457,0.95673 0.579614,-0.0286 1.215672,-0.42122 1.338791,-1.01706 0.06421,-0.31044 -0.299508,-0.54821 -0.541161,-0.31503"
       style="fill:#753a17;fill-opacity:1;fill-rule:nonzero;stroke:none;stroke-width:0.0352778"
       id="path960" />
    <path
       d="m 29.987506,109.17329 c -0.07338,-0.16228 -0.303389,-0.12771 -0.385586,0 -0.275166,0.42545 -0.453672,0.83396 -0.981428,1.00012 -0.561269,0.17639 -1.177572,-0.0106 -1.720497,-0.16792 -0.365125,-0.10548 -0.509411,0.44344 -0.155575,0.56444 0.788106,0.26953 1.667581,0.4953 2.461684,0.11783 0.577497,-0.27481 1.072091,-0.87101 0.781402,-1.51447"
       style="fill:#753a17;fill-opacity:1;fill-rule:nonzero;stroke:none;stroke-width:0.0352778"
       id="path962" />
    <path
       d="m 33.745295,103.99804 c -0.115358,-0.067 -0.301978,-0.0346 -0.363008,0.0956 -0.185914,0.39617 -0.02081,0.82409 -0.142875,1.24354 -0.141111,0.48472 -0.475545,0.82021 -0.922867,1.0347 -0.357717,0.1711 -0.102305,0.79692 0.273403,0.6484 0.614186,-0.24271 1.122186,-0.66533 1.379361,-1.28622 0.214136,-0.51682 0.342547,-1.40547 -0.224014,-1.73602"
       style="fill:#753a17;fill-opacity:1;fill-rule:nonzero;stroke:none;stroke-width:0.0352778"
       id="path964" />
    <path
       d="m 32.14439,101.9036 c -0.239889,-0.46003 -0.707673,-0.73343 -1.147234,-0.97226 -0.378883,-0.20602 -0.706614,0.35313 -0.337961,0.5782 0.278695,0.17039 0.599017,0.34784 0.777875,0.63253 0.178153,0.28469 0.04657,0.54152 0.123472,0.8375 0.05115,0.19685 0.277284,0.27305 0.448028,0.18203 0.444853,-0.23707 0.327731,-0.8897 0.13582,-1.258"
       style="fill:#753a17;fill-opacity:1;fill-rule:nonzero;stroke:none;stroke-width:0.0352778"
       id="path966" />
    <path
       d="m 22.02637,104.42031 c -0.06703,-0.24165 -0.283633,-0.33443 -0.443794,-0.50906 -0.178858,-0.19544 -0.269522,-0.4258 -0.310445,-0.68474 -0.06703,-0.42192 -0.693208,-0.23742 -0.636411,0.17533 0.06632,0.4826 0.579261,1.5494 1.220964,1.31763 0.12312,-0.0448 0.207081,-0.1644 0.169686,-0.29916"
       style="fill:#753a17;fill-opacity:1;fill-rule:nonzero;stroke:none;stroke-width:0.0352778"
       id="path968" />
    <path
       d="m 16.697309,101.05763 c -0.95003,0.44062 -1.343377,1.69334 -0.626533,2.52095 0.263878,0.30516 0.826911,-0.0176 0.688269,-0.40075 -0.20073,-0.55316 -0.257175,-1.12078 0.306212,-1.49049 0.39758,-0.2607 0.05468,-0.8255 -0.367948,-0.62971"
       style="fill:#753a17;fill-opacity:1;fill-rule:nonzero;stroke:none;stroke-width:0.0352778"
       id="path970" />
    <path
       d="m 16.362876,99.289865 c -0.0949,-0.398286 -0.172508,-0.728486 -0.03104,-1.127125 0.112183,-0.316794 -0.407812,-0.542219 -0.54857,-0.231422 -0.225778,0.498475 -0.306211,1.120775 0.02258,1.593497 0.193675,0.277989 0.639939,0.113594 0.557036,-0.23495"
       style="fill:#753a17;fill-opacity:1;fill-rule:nonzero;stroke:none;stroke-width:0.0352778"
       id="path972" />
    <path
       d="m 37.378906,70.585749 c -0.03881,0.0695 -6.191603,10.424583 -6.641041,10.689166 -0.449792,0.264584 -3.476273,-2.725208 -3.484386,-3.069166 -0.0081,-0.343959 5.256741,-9.630833 5.680427,-9.68375 0.422981,-0.05292 4.627033,1.737431 4.445,2.06375"
       style="fill:#597678;fill-opacity:1;fill-rule:nonzero;stroke:none;stroke-width:0.0352778"
       id="path974" />
    <path
       d="m 25.183731,120.96065 c -0.380294,4.87504 -0.589491,9.87354 -0.477661,14.76234 0.0095,0.4131 0.589139,0.39617 0.630414,0 0.501297,-4.86728 0.694972,-9.86966 0.705556,-14.76234 0.0011,-0.5588 -0.815623,-0.54434 -0.858309,0"
       style="fill:#362f2b;fill-opacity:1;fill-rule:nonzero;stroke:none;stroke-width:0.0352778"
       id="path976" />
    <path
       d="m 29.542654,125.16682 c -0.05256,-0.29528 -0.529873,-0.28681 -0.588434,0 -0.377472,1.84115 -0.19685,3.84598 -0.20708,5.721 -0.01164,2.08879 -0.0099,4.17759 -0.01905,6.26639 -0.0021,0.4699 0.718961,0.46919 0.729191,0 0.04551,-2.0888 0.101953,-4.1776 0.144992,-6.26639 0.03845,-1.87255 0.268464,-3.8728 -0.05962,-5.721"
       style="fill:#362f2b;fill-opacity:1;fill-rule:nonzero;stroke:none;stroke-width:0.0352778"
       id="path978" />
    <path
       d="m 7.9307818,139.93304 c 0.1583972,0 47.7833962,-0.74083 48.2596462,0 0.476603,0.74083 1.370894,7.46125 1.370894,7.46125 l -50.9259402,-0.53516 1.2954,-6.92609"
       style="fill:#586b78;fill-opacity:1;fill-rule:nonzero;stroke:none;stroke-width:0.0352778"
       id="path980" />
    <path
       d="m 10.761823,143.24033 c 0.07938,0.0265 14.76375,-5.60917 15.107708,-5.52979 0.343606,0.0794 4.7625,4.23333 4.7625,4.23333 0,0 4.973814,-2.91712 5.053189,-2.92699 0.07973,-0.01 5.688542,2.92699 5.688542,2.92699 0,0 2.831041,-2.51354 3.042708,-2.46062 0.212019,0.0529 11.271602,4.73604 11.271602,4.73604 l -10.689519,-2.06375 -5.159375,3.73062 -4.7625,-3.88937 c 0,0 -5.058833,4.33917 -5.360105,4.39208 -0.301625,0.0529 -4.138083,-5.97958 -4.138083,-5.97958 0,0 -10.503958,6.985 -10.689167,6.985 -0.185561,0 -4.1275,-4.15396 -4.1275,-4.15396"
       style="fill:#fabc22;fill-opacity:1;fill-rule:nonzero;stroke:none;stroke-width:0.0352778"
       id="path982" />
    <path
       d="m 10.616126,137.35353 c 0,0 0.939447,-1.85209 2.950281,-3.24132 2.01048,-1.38889 4.669719,-1.87855 4.70923,-1.37584 0.03986,0.50271 -0.251178,0.40993 -0.06597,0.74084 0.185208,0.33055 1.388886,3.09562 1.574447,3.20145 0.185208,0.10584 2.090208,-0.15875 3.042708,0.79375 0.952147,0.9525 2.592564,2.83105 2.010481,4.1275 -0.581731,1.29646 -3.836459,3.9423 -5.582356,3.88938 -1.74625,-0.0529 -1.197328,-2.48038 -2.407708,-2.8575 -1.210733,-0.37677 -2.043995,0.61524 -2.738614,-0.29775 -0.694619,-0.91263 -0.535869,-1.96426 -0.79375,-2.54 -0.25788,-0.57538 -1.567392,-1.82562 -1.924755,-1.74589 -0.357364,0.079 -1.142648,-0.0871 -0.773995,-0.69462"
       style="fill:#684734;fill-opacity:1;fill-rule:nonzero;stroke:none;stroke-width:0.0352778"
       id="path984" />
    <path
       d="m 17.032095,170.78346 c 0,0 2.474031,-6.24417 2.712156,-6.20431 0.238125,0.0395 26.352499,-0.55562 26.70951,-0.19861 0.357364,0.35733 1.852084,6.40292 1.852084,6.40292 h -31.27375"
       style="fill:#333e47;fill-opacity:1;fill-rule:nonzero;stroke:none;stroke-width:0.0352778"
       id="path986" />
    <path
       d="m 18.567032,160.30596 c 0,0 5.66173,7.83166 1.217083,11.21833 -4.445,3.38666 27.357916,1.48167 27.198813,1.42875 -0.158397,-0.0529 -8.784166,-4.87468 -4.656314,-10.53359 4.127147,-5.65891 -23.759582,-2.11349 -23.759582,-2.11349"
       style="fill:#333e47;fill-opacity:1;fill-rule:nonzero;stroke:none;stroke-width:0.0352778"
       id="path988" />
    <path
       d="m 6.6353818,146.85913 c 0,0 0.8106833,12.44458 0.7577666,14.98458 8.0433336,1.26965 49.9617986,0.42016 50.0147156,0.10266 0.05292,-0.3175 0.157339,-15.08724 0.157339,-15.08724 H 6.6353818"
       style="fill:#3b4751;fill-opacity:1;fill-rule:nonzero;stroke:none;stroke-width:0.0352778"
       id="path990" />
    <path
       d="m 17.032095,170.78346 h 31.27375 l 0.79375,6.50874 -33.548813,-0.49043 1.481313,-6.01831"
       style="fill:#3b4751;fill-opacity:1;fill-rule:nonzero;stroke:none;stroke-width:0.0352778"
       id="path992" />
    <path
       d="m 41.318375,167.36853 c -3.130902,-0.53439 -6.444897,-0.30124 -9.605785,-0.20009 -3.386667,0.10876 -6.723592,0.11123 -10.101792,-0.17417 -0.312208,-0.0265 -0.385586,0.49346 -0.07444,0.55065 3.147836,0.57644 6.396567,0.4494 9.579328,0.33129 3.405716,-0.12636 6.715124,-0.066 10.110963,0.16965 0.382764,0.0265 0.476956,-0.61132 0.09172,-0.67733"
       style="fill:#242c33;fill-opacity:1;fill-rule:nonzero;stroke:none;stroke-width:0.0352778"
       id="path994" />
  </g>
</svg>
