<?xml version="1.0" encoding="UTF-8" standalone="no"?>
<!-- Created with Inkscape (http://www.inkscape.org/) -->

<svg
   width="51.609535mm"
   height="95.356064mm"
   viewBox="0 0 51.609535 95.356064"
   version="1.1"
   id="svg4221"
   inkscape:version="1.2 (dc2aeda, 2022-05-15)"
   sodipodi:docname="poseidon.svg"
   xmlns:inkscape="http://www.inkscape.org/namespaces/inkscape"
   xmlns:sodipodi="http://sodipodi.sourceforge.net/DTD/sodipodi-0.dtd"
   xmlns="http://www.w3.org/2000/svg"
   xmlns:svg="http://www.w3.org/2000/svg">
  <sodipodi:namedview
     id="namedview4223"
     pagecolor="#ffffff"
     bordercolor="#666666"
     borderopacity="1.0"
     inkscape:showpageshadow="2"
     inkscape:pageopacity="0.0"
     inkscape:pagecheckerboard="0"
     inkscape:deskcolor="#d1d1d1"
     inkscape:document-units="mm"
     showgrid="false"
     inkscape:zoom="0.914906"
     inkscape:cx="393.48304"
     inkscape:cy="245.3804"
     inkscape:window-width="1390"
     inkscape:window-height="1205"
     inkscape:window-x="2240"
     inkscape:window-y="25"
     inkscape:window-maximized="0"
     inkscape:current-layer="layer1" />
  <defs
     id="defs4218" />
  <g
     inkscape:label="Layer 1"
     inkscape:groupmode="layer"
     id="layer1"
     transform="translate(-0.80087466,-83.615059)">
    <path
       d="m 34.293508,116.17994 c 0,0 -1.468614,2.69875 -2.526947,2.27542 -1.058334,-0.42333 -6.759928,-3.80859 -6.759928,-3.80859 0,0 1.254125,4.0072 1.275292,4.04672 0.02117,0.0399 5.339291,3.41312 7.005813,2.65923 1.667228,-0.75423 2.619375,-5.02214 2.619375,-5.02214 l -1.613605,-0.15064"
       style="fill:#cfa762;fill-opacity:1;fill-rule:nonzero;stroke:none;stroke-width:0.0352778"
       id="path274" />
    <path
       d="m 41.724771,89.285578 c 0,0 -0.832202,-2.100086 -1.20403,-3.242733 -0.460375,2.237669 -1.147586,4.713111 -1.147586,4.713111 l 1.046691,-1.123245 c -0.07867,2.254603 -0.295627,6.632928 -0.808566,7.157508 -0.69462,0.710142 -3.611386,0.333023 -3.611386,0.333023 l 0.5207,-8.705145 1.031522,0.447323 c 0,0 -0.679097,-2.080684 -1.049514,-4.3561 -0.357011,1.388886 -1.602317,4.139494 -1.602317,4.139494 l 1.11372,-0.311856 -0.788106,8.687153 c 0,0 -2.718505,-0.03069 -3.194755,-1.374422 -0.334081,-0.943681 -0.160161,-4.411839 -0.02646,-6.395508 l 1.306336,1.402291 c 0,0 -0.686859,-2.475089 -1.147234,-4.712758 -0.371827,1.142647 -1.20403,3.242733 -1.20403,3.242733 l 0.605719,-0.155927 c -0.391936,2.11843 -0.97155,6.181019 0.06879,7.421738 1.42875,1.703564 3.400072,1.478492 3.400072,1.478492 l -4.392436,74.42023 c 0,0 0.476603,0.0529 0.635,0 0.15875,-0.0529 4.736394,-74.42023 4.736394,-74.42023 0,0 2.936522,0.733778 3.889022,-0.774347 0.740481,-1.171575 0.85725,-5.868459 0.872773,-7.905397 l 0.157691,-0.169334 0.791986,0.203906"
       style="fill:#486866;fill-opacity:1;fill-rule:nonzero;stroke:none;stroke-width:0.0352778"
       id="path276" />
    <path
       d="m 42.171388,155.60286 c 0.117475,-0.19121 -0.05962,-5.73476 3.551767,-3.84951 3.611738,1.88524 2.341739,4.14725 3.849863,5.35763 1.508125,1.21074 2.837392,-0.83326 2.837392,-0.83326 0,0 -1.428397,4.54413 -4.663016,3.13514 3.056113,1.32962 2.16288,7.28274 2.16288,7.28274 0,0 -0.436386,-3.9885 -3.671005,-3.19475 -3.23462,0.79375 -6.82625,-3.41313 -4.067881,-7.89799"
       style="fill:#305f49;fill-opacity:1;fill-rule:nonzero;stroke:none;stroke-width:0.0352778"
       id="path278" />
    <path
       d="m 29.478091,126.28703 c 0,0 7.513814,13.94354 -0.529167,22.51604 -8.043333,8.5725 -14.499166,18.52083 -2.222499,21.16666 6.455833,0.9144 7.249583,-1.42875 5.423958,-4.92125 -1.825625,-3.4925 2.301522,-11.89672 6.270272,-11.2268 3.96875,0.66993 6.032852,2.89243 5.675489,3.32917 -0.357364,0.43638 -6.627636,0.35701 -6.588125,4.20687 0.03986,3.84951 2.658886,9.24701 0.79375,12.065 -1.865489,2.81764 -21.036139,11.36368 -28.159075,-0.80715 -7.1229356,-12.17084 0.814564,-22.40562 0.814564,-24.59038 0,-2.18546 -0.703086,-13.93295 8.062031,-20.07129 5.272616,-3.70416 10.458802,-1.66687 10.458802,-1.66687"
       style="fill:#3f9b68;fill-opacity:1;fill-rule:nonzero;stroke:none;stroke-width:0.0352778"
       id="path280" />
    <path
       d="m 13.920591,118.69349 c 0,0 5.117748,6.77333 5.098698,9.26041 2.124427,-0.39687 5.855052,2.14313 6.807552,4.36563 0.952147,-3.175 3.65125,-6.0325 3.65125,-6.0325 0,0 -2.963686,-14.10229 -5.583061,-16.51 -2.619022,-2.40771 -9.974439,8.91646 -9.974439,8.91646"
       style="fill:#fbc772;fill-opacity:1;fill-rule:nonzero;stroke:none;stroke-width:0.0352778"
       id="path282" />
    <path
       d="m 11.25465,118.51498 c 0,0 -2.4803806,5.33788 -2.0238862,6.60788 0.4564945,1.27 7.5737862,4.68313 7.7586412,4.68313 0.185561,0 0.701323,-0.87313 1.296811,-0.85972 0.595136,0.013 1.740253,1.08197 1.575859,1.29116 -0.164395,0.2092 -0.971198,0.13441 -0.971198,0.13441 0,0 0.664987,0.95638 0.216606,1.17299 -0.448028,0.2166 -1.030817,-0.0448 -1.030817,-0.0448 0,0 0.582789,0.73202 0.194028,0.86643 -0.388408,0.13476 -0.836436,-0.127 -0.836436,-0.127 0,0 0.612422,0.48577 0.141817,0.5528 -0.470959,0.0674 -0.799395,-0.23142 -0.799395,-0.23142 0,0 -0.938036,0.12241 -1.255536,-0.0759 -0.3175,-0.19861 -9.2868746,-4.28625 -9.5451079,-6.33024 -0.2575278,-2.044 2.8776083,-8.29452 2.8776083,-8.29452 l 2.4010056,0.65476"
       style="fill:#fbc772;fill-opacity:1;fill-rule:nonzero;stroke:none;stroke-width:0.0352778"
       id="path284" />
    <path
       d="m 24.054133,112.08314 c -0.794808,0 -0.796219,1.23542 0,1.23542 0.794455,0 0.795867,-1.23542 0,-1.23542"
       style="fill:#f57f4a;fill-opacity:1;fill-rule:nonzero;stroke:none;stroke-width:0.0352778"
       id="path286" />
    <path
       d="m 21.103852,92.466222 c 0,0 0.330906,6.542264 0.866423,8.228898 0.535869,1.68663 -8.294511,3.75073 -9.723261,2.14347 -1.42875,-1.6076 -3.0162502,-9.604371 -2.5004891,-11.529479 0.5161141,-1.924755 11.3241661,-3.321755 11.3573271,1.157111"
       style="fill:#fbc772;fill-opacity:1;fill-rule:nonzero;stroke:none;stroke-width:0.0352778"
       id="path288" />
    <path
       d="m 11.711144,94.92085 c 0,0 -0.535516,-1.081617 -1.041752,-1.637242 -0.505884,-0.555625 2.182988,0.01976 2.48038,-0.347133 0.297745,-0.367242 -0.902758,-0.992364 -0.902758,-0.992364 0,0 2.867377,0.53587 3.125258,0.109008 0.258233,-0.426508 0.03951,-0.892527 0.03951,-0.892527 0,0 1.616075,0.883002 2.028472,0.515761 0.412398,-0.367242 0.184503,-0.79375 0.184503,-0.79375 0,0 1.292578,1.071739 1.6383,0.932391 0.346075,-0.138641 0.325967,-0.535516 0.325967,-0.535516 0,0 1.349375,1.751189 1.74625,1.014236 0.396875,-0.736247 0.03986,-4.615744 -0.734131,-5.429603 -0.472369,-0.555625 -0.865364,0.873125 -0.865364,0.873125 0,0 -0.771525,-2.658886 -2.210152,-3.125258 -0.337609,-0.148872 -0.407106,1.468261 -0.407106,1.468261 0,0 -2.262364,-2.966508 -2.837744,-2.391128 -0.575028,0.575381 0.129116,2.192867 0.129116,2.192867 0,0 -3.717219,-2.391128 -6.1118746,-1.624189 -1.5610416,0.555978 0.9525,1.944864 0.9525,1.944864 0,0 -4.7360416,-0.330553 -5.119511,0.648405 -0.3838222,0.978606 1.9314583,1.745898 1.9314583,1.745898 0,0 -4.7759055,0.463197 -5.22569714,1.719791 -0.44979166,1.256947 3.47627214,1.878542 3.47627214,1.878542 0,0 -3.0663444,0.965905 -2.7484916,1.812572 0.3175,0.846667 3.1749999,0.912989 3.1749999,0.912989 0,0 -3.2808332,0.913694 -2.0902083,1.7399 1.190625,0.826205 5.0270833,0.456142 5.0270833,0.456142 l 2.989439,0.251177 1.04528,-2.447219"
       style="fill:#39787a;fill-opacity:1;fill-rule:nonzero;stroke:none;stroke-width:0.0352778"
       id="path290" />
    <path
       d="m 10.034392,97.163105 c 0,-0.02963 -1.8552587,-1.584677 -2.5795115,-0.231775 -0.7246055,1.352903 0.4106333,4.0199 1.5772694,4.12115 1.1669891,0.10089 1.7561281,-0.69462 1.7561281,-0.69462 l -0.753886,-3.194755"
       style="fill:#fbc772;fill-opacity:1;fill-rule:nonzero;stroke:none;stroke-width:0.0352778"
       id="path292" />
    <path
       d="m 9.2984972,97.628419 c 0,0 -0.8142111,-0.679802 -1.2996334,-0.216605 -0.4857749,0.463197 0.022225,2.741436 1.1056056,2.734026 1.0830276,-0.007 0.8516055,-1.95721 0.1940278,-2.517421"
       style="fill:#cfa762;fill-opacity:1;fill-rule:nonzero;stroke:none;stroke-width:0.0352778"
       id="path294" />
    <path
       d="m 11.711144,94.92085 c 0,0 0.714375,5.99264 1.190625,6.09177 0.47625,0.0991 0.635,-0.56233 1.627364,-0.76059 0.502356,-0.0395 0.687917,0.22507 0.687917,0.22507 0,0 0.529166,-0.42369 1.613958,-0.3175 1.084439,0.10548 1.922286,0.40993 1.922286,0.40993 l 0.749653,0.54222 c 0,0 0.344311,-0.47625 0.939447,-0.37007 0.595489,0.10548 0.846667,0.23778 0.846667,0.23778 0,0 0.41028,-0.9391 1.177572,-0.79375 0.766939,0.14569 2.301875,3.26778 2.69875,4.85528 0.396875,1.5875 -0.926042,1.4552 -0.926042,1.4552 0,0 0.740834,5.92667 -0.132291,6.93209 -0.873478,1.00541 -1.322917,0 -1.322917,0 0,0 -1.693686,3.94229 -2.672292,3.96875 -0.979311,0.0265 -1.124655,-0.74084 -1.124655,-0.74084 0,0 -2.209095,3.67771 -3.928886,3.22792 -1.719792,-0.44979 -1.878895,-1.48167 -1.878895,-1.48167 0,0 -3.6508967,2.96334 -5.4504161,1.7198 -1.7988139,-1.24355 -0.1583973,-3.73063 -0.1583973,-3.73063 0,0 -3.1488943,1.98438 -3.2547277,-1.03187 -0.1054805,-3.01625 2.7255611,-5.715 2.7255611,-5.715 0,0 -1.4026444,-0.89959 -0.4497917,-2.80459 0.9525,-1.905 3.5450637,-3.70416 3.5450637,-3.70416 0,0 -0.3171471,-0.82021 0.07973,-2.0373 -0.8466667,-0.10583 -1.3493751,-5.688537 1.494719,-6.17784"
       style="fill:#39787a;fill-opacity:1;fill-rule:nonzero;stroke:none;stroke-width:0.0352778"
       id="path296" />
    <path
       d="m 17.333716,96.256819 c 0,0 0.635,2.632781 1.507773,3.928891 0.873477,1.29681 -2.44722,1.95826 -2.870553,-0.11889 -0.423333,-2.077156 1.005417,-4.828823 1.36278,-3.810001"
       style="fill:#f57f4a;fill-opacity:1;fill-rule:nonzero;stroke:none;stroke-width:0.0352778"
       id="path298" />
    <path
       d="m 13.387897,96.398989 c 0,0 -0.218369,1.795991 0.486128,1.726494 0.704497,-0.0695 0.694619,-2.024239 0.2286,-2.2225 -0.466725,-0.198614 -0.688975,0.159809 -0.714728,0.496006"
       style="fill:#040606;fill-opacity:1;fill-rule:nonzero;stroke:none;stroke-width:0.0352778"
       id="path300" />
    <path
       d="m 14.500558,96.395814 c 0,0 -0.597605,0.08467 -0.552803,0.328436 0.0448,0.244475 0.57785,0.289278 0.722136,0.0448 0.144639,-0.24377 0.01129,-0.411339 -0.169333,-0.373239"
       style="fill:#ffffff;fill-opacity:1;fill-rule:nonzero;stroke:none;stroke-width:0.0352778"
       id="path302" />
    <path
       d="m 18.785397,96.202492 c 0,0 -0.218017,1.795638 0.486128,1.726141 0.704497,-0.06914 0.694619,-2.023886 0.228247,-2.222147 -0.466372,-0.198614 -0.688622,0.159808 -0.714375,0.496006"
       style="fill:#040606;fill-opacity:1;fill-rule:nonzero;stroke:none;stroke-width:0.0352778"
       id="path304" />
    <path
       d="m 19.898058,96.198964 c 0,0 -0.597606,0.08502 -0.552803,0.328789 0.0448,0.244122 0.57785,0.288925 0.722136,0.0448 0.144639,-0.243769 0.01164,-0.411338 -0.169333,-0.373591"
       style="fill:#ffffff;fill-opacity:1;fill-rule:nonzero;stroke:none;stroke-width:0.0352778"
       id="path306" />
    <path
       d="m 15.035016,94.741992 c 0,0 -2.976386,0.70485 -3.016249,0.178858 -0.03986,-0.525992 1.150761,-1.905 2.549877,-2.182989 1.399117,-0.277989 1.557867,1.726495 0.466372,2.004131"
       style="fill:#39787a;fill-opacity:1;fill-rule:nonzero;stroke:none;stroke-width:0.0352778"
       id="path308" />
    <path
       d="m 17.783155,92.552653 c 0,0 -0.529166,1.508125 0.687917,1.971322 1.217436,0.462844 2.47403,0.132292 2.38125,-0.503061 -0.09243,-0.635 -2.724856,-2.38125 -3.069167,-1.468261"
       style="fill:#39787a;fill-opacity:1;fill-rule:nonzero;stroke:none;stroke-width:0.0352778"
       id="path310" />
    <path
       d="m 17.531978,103.48136 c -0.468842,-0.004 -0.834673,0.32208 -1.33985,0.21201 -0.430389,-0.0938 -0.638175,-0.4766 -1.029406,-0.6096 -0.164747,-0.0561 -0.310444,0.09 -0.319969,0.24377 -0.03845,0.6089 0.778933,1.02271 1.288697,1.11372 0.528814,0.0942 1.472847,-0.0843 1.589616,-0.71155 0.02328,-0.12453 -0.05327,-0.2473 -0.189088,-0.24835"
       style="fill:#f57f4a;fill-opacity:1;fill-rule:nonzero;stroke:none;stroke-width:0.0352778"
       id="path312" />
    <path
       d="m 13.117317,104.64376 c -0.345017,0.0169 -0.537634,0.25259 -0.766234,0.48648 -0.229658,0.2346 -0.469194,0.46073 -0.655461,0.73272 -0.213078,0.31256 0.208492,0.7246 0.519289,0.51964 0.274814,-0.18133 0.505178,-0.41981 0.74295,-0.64523 0.238478,-0.22613 0.470958,-0.4131 0.494242,-0.75883 0.01164,-0.17462 -0.162984,-0.3436 -0.334786,-0.33478"
       style="fill:#306164;fill-opacity:1;fill-rule:nonzero;stroke:none;stroke-width:0.0352778"
       id="path314" />
    <path
       d="m 16.595,106.61332 c -0.440972,0.097 -0.715786,0.68615 -0.962378,1.02693 -0.306917,0.4251 0.398639,0.8315 0.703086,0.41064 0.23107,-0.32033 0.668867,-0.73484 0.626533,-1.15782 -0.0194,-0.19262 -0.169686,-0.3235 -0.367241,-0.27975"
       style="fill:#306164;fill-opacity:1;fill-rule:nonzero;stroke:none;stroke-width:0.0352778"
       id="path316" />
    <path
       d="m 20.923583,103.18784 c -0.134056,-0.49318 -0.889,-0.28539 -0.765175,0.21097 0.111478,0.44838 0.143933,1.08831 0.549981,1.36842 0.125941,0.0868 0.340077,0.03 0.407105,-0.10654 0.217311,-0.44238 -0.07056,-1.02729 -0.191911,-1.47285"
       style="fill:#306164;fill-opacity:1;fill-rule:nonzero;stroke:none;stroke-width:0.0352778"
       id="path318" />
    <path
       d="m 22.227097,101.92949 c -0.444853,-0.31539 -0.83432,0.40005 -0.420864,0.71966 0.267406,0.20638 0.467078,0.66887 0.810683,0.72567 0.189089,0.0314 0.357364,-0.0476 0.419806,-0.23848 0.160867,-0.4893 -0.464608,-0.96203 -0.809625,-1.20685"
       style="fill:#306164;fill-opacity:1;fill-rule:nonzero;stroke:none;stroke-width:0.0352778"
       id="path320" />
    <path
       d="m 13.158239,101.42113 c -0.238831,0.22684 -0.476956,0.39829 -0.481895,0.75177 -0.0032,0.20814 0.179564,0.38841 0.386998,0.387 0.352425,-0.003 0.52705,-0.24236 0.754238,-0.47907 0.416984,-0.43357 -0.223308,-1.0728 -0.659341,-0.6597"
       style="fill:#306164;fill-opacity:1;fill-rule:nonzero;stroke:none;stroke-width:0.0352778"
       id="path322" />
    <path
       d="m 15.192708,101.9189 c 0.01411,0.19685 0.03351,0.34714 0.116064,0.5267 0.125236,0.27093 0.59055,0.27093 0.715786,0 0.0829,-0.18027 0.101953,-0.33126 0.116064,-0.5267 0.04304,-0.60924 -0.991306,-0.61066 -0.947914,0"
       style="fill:#306164;fill-opacity:1;fill-rule:nonzero;stroke:none;stroke-width:0.0352778"
       id="path324" />
    <path
       d="m 21.48838,108.16307 c -0.04692,-0.53481 -0.858661,-0.55421 -0.84843,0 0.006,0.33373 0.0011,0.66463 0.05433,0.99448 0.04868,0.29986 0.331259,0.36124 0.557037,0.26705 -0.0085,0.0113 -0.01764,0.0229 -0.02611,0.0342 0.191911,-0.0275 0.306917,-0.24341 0.316442,-0.41592 0.01623,-0.2921 -0.02822,-0.58879 -0.05327,-0.87983"
       style="fill:#306164;fill-opacity:1;fill-rule:nonzero;stroke:none;stroke-width:0.0352778"
       id="path326" />
    <path
       d="m 16.263036,111.90781 c -0.09137,-0.52705 -0.821972,-0.33973 -0.867128,0.11747 -0.03493,0.34643 -0.587728,1.13206 0.07373,1.21744 0.287514,0.037 0.545747,-0.21238 0.670277,-0.44345 0.153106,-0.28539 0.177448,-0.57749 0.12312,-0.89146"
       style="fill:#306164;fill-opacity:1;fill-rule:nonzero;stroke:none;stroke-width:0.0352778"
       id="path328" />
    <path
       d="m 9.8343666,108.94518 c -0.4021667,0.1785 -1.1405305,0.69568 -0.9221611,1.22202 0.056444,0.13547 0.1837972,0.29034 0.3541889,0.26952 0.4385027,-0.054 0.6388805,-0.51858 1.0114136,-0.73342 0.500945,-0.28858 0.06174,-0.98214 -0.4434414,-0.75812"
       style="fill:#306164;fill-opacity:1;fill-rule:nonzero;stroke:none;stroke-width:0.0352778"
       id="path330" />
    <path
       d="m 9.7761583,112.71567 c -0.5147028,0.21907 -0.8551334,0.90099 -1.1641667,1.33773 -0.2896305,0.40957 0.377825,0.78669 0.6685139,0.39052 0.3256139,-0.44485 0.8170335,-0.94403 0.8614835,-1.51835 0.01552,-0.20461 -0.2137835,-0.27446 -0.3658307,-0.2099"
       style="fill:#306164;fill-opacity:1;fill-rule:nonzero;stroke:none;stroke-width:0.0352778"
       id="path332" />
    <path
       d="m 12.00148,115.806 c -0.322438,0.0476 -0.52458,0.24941 -0.757413,0.46073 -0.243064,0.22013 -0.483306,0.44379 -0.724606,0.66639 -0.374297,0.34502 0.183444,0.89888 0.557742,0.55775 0.242711,-0.2212 0.486127,-0.44098 0.727075,-0.66428 0.2286,-0.21202 0.432152,-0.39758 0.50553,-0.71226 0.04692,-0.20144 -0.119944,-0.33585 -0.308328,-0.30833"
       style="fill:#306164;fill-opacity:1;fill-rule:nonzero;stroke:none;stroke-width:0.0352778"
       id="path334" />
    <path
       d="m 19.513177,113.4244 c -0.07161,-0.21484 -0.352777,-0.31644 -0.522111,-0.13759 -0.349955,0.3683 -0.398286,1.05904 -0.503061,1.53776 -0.115711,0.52846 0.693561,0.75459 0.813153,0.22402 0.105833,-0.4692 0.369358,-1.15288 0.212019,-1.62419"
       style="fill:#306164;fill-opacity:1;fill-rule:nonzero;stroke:none;stroke-width:0.0352778"
       id="path336" />
    <path
       d="M 7.9618222,92.602042 C 7.7099389,92.269019 7.31765,92.258083 6.9260666,92.204108 c -0.4642555,-0.06385 -0.6547555,0.546806 -0.1968499,0.712611 0.3661833,0.132998 0.7397749,0.316795 1.1133666,0.140053 0.149225,-0.07055 0.2208389,-0.320322 0.1192389,-0.45473"
       style="fill:#306164;fill-opacity:1;fill-rule:nonzero;stroke:none;stroke-width:0.0352778"
       id="path338" />
    <path
       d="M 8.8427083,89.237953 C 8.5618972,88.701378 7.6831277,88.961022 7.2499166,89.139528 7.041425,89.225253 6.89855,89.413989 6.9602861,89.649292 7.01285,89.847906 7.2622639,90.020414 7.47005,89.938217 7.7071166,89.845083 7.9452416,89.784406 8.1988888,89.7583 c 0.2310695,-0.02399 0.4434417,-0.02963 0.6057195,-0.223308 0.07373,-0.08784 0.092428,-0.193675 0.0381,-0.297039"
       style="fill:#306164;fill-opacity:1;fill-rule:nonzero;stroke:none;stroke-width:0.0352778"
       id="path340" />
    <path
       d="m 12.61355,89.848611 c -0.136525,-0.316441 -0.504472,-0.405694 -0.798336,-0.526344 -0.458611,-0.188031 -0.800453,0.612422 -0.340078,0.807155 0.297744,0.125942 0.617361,0.325614 0.944033,0.196498 0.212373,-0.08361 0.283634,-0.269875 0.194381,-0.477309"
       style="fill:#306164;fill-opacity:1;fill-rule:nonzero;stroke:none;stroke-width:0.0352778"
       id="path342" />
    <path
       d="m 14.63285,87.144922 c -0.170392,-0.261055 -0.448381,-0.361597 -0.71755,-0.502002 -0.469547,-0.244828 -0.88512,0.480836 -0.413103,0.706966 0.263878,0.126295 0.541514,0.318206 0.841375,0.299156 0.238478,-0.01552 0.437092,-0.277989 0.289278,-0.50412"
       style="fill:#306164;fill-opacity:1;fill-rule:nonzero;stroke:none;stroke-width:0.0352778"
       id="path344" />
    <path
       d="m 19.8081,89.287695 c -0.159103,-0.319617 -0.425098,-0.585964 -0.652639,-0.858662 -0.15487,-0.185913 -0.467431,-0.156986 -0.627945,0 -0.18803,0.183445 -0.147813,0.44062 0,0.627945 0.198614,0.250825 0.382059,0.529872 0.634295,0.729544 0.35948,0.285045 0.865011,-0.06033 0.646289,-0.498827"
       style="fill:#306164;fill-opacity:1;fill-rule:nonzero;stroke:none;stroke-width:0.0352778"
       id="path346" />
    <path
       d="m 9.9804166,94.624869 c -0.3097389,-0.182033 -0.5750278,-0.322438 -0.80645,-0.606425 -0.28575,-0.351013 -0.860425,0.103364 -0.6233583,0.480837 0.2578805,0.410633 0.6198305,0.77858 1.0900833,0.93098 0.4808364,0.156281 0.7651754,-0.555625 0.339725,-0.805392"
       style="fill:#306164;fill-opacity:1;fill-rule:nonzero;stroke:none;stroke-width:0.0352778"
       id="path348" />
    <path
       d="M 5.5347111,94.053017 C 5.3526778,93.784906 5.0577556,93.773264 4.7589528,93.728461 c -0.4639028,-0.0695 -0.6741583,0.630414 -0.1979083,0.71755 0.2797527,0.05115 0.625475,0.171803 0.8741833,-0.01305 0.1135944,-0.08467 0.1915583,-0.24518 0.099483,-0.379941"
       style="fill:#306164;fill-opacity:1;fill-rule:nonzero;stroke:none;stroke-width:0.0352778"
       id="path350" />
    <path
       d="m 5.1029111,90.486433 c -0.3834694,-0.189441 -0.7457722,-0.0056 -1.1260666,0.112889 -0.4642556,0.144639 -0.2712861,0.862895 0.2021417,0.731661 0.3757083,-0.103716 0.7972777,-0.14358 1.0128249,-0.505177 0.064911,-0.109362 0.030692,-0.280106 -0.0889,-0.339373"
       style="fill:#306164;fill-opacity:1;fill-rule:nonzero;stroke:none;stroke-width:0.0352778"
       id="path352" />
    <path
       d="m 18.448847,119.30626 c -0.291042,-0.0462 -0.510469,0.0748 -0.773642,0.19015 -0.261761,0.115 -0.550686,0.20426 -0.760236,0.40428 -0.142875,0.13688 -0.08608,0.43074 0.123825,0.46849 0.517525,0.0931 1.385359,-0.23001 1.597025,-0.73343 0.05221,-0.12347 -0.05715,-0.30868 -0.186972,-0.32949"
       style="fill:#cfa762;fill-opacity:1;fill-rule:nonzero;stroke:none;stroke-width:0.0352778"
       id="path354" />
    <path
       d="m 19.440152,120.65246 c -0.07408,-0.20179 -0.309033,-0.23001 -0.485775,-0.15769 -0.313972,0.12947 -0.578555,0.33725 -0.904874,0.44803 -0.4191,0.14287 -0.249414,0.79445 0.184502,0.66992 0.344311,-0.0988 1.401939,-0.42721 1.206147,-0.96026"
       style="fill:#cfa762;fill-opacity:1;fill-rule:nonzero;stroke:none;stroke-width:0.0352778"
       id="path356" />
    <path
       d="m 26.20008,116.02931 c -0.362655,-0.35031 -0.992364,-0.0582 -1.353255,0.16863 -0.29457,0.1852 -0.11042,0.69391 0.244475,0.58032 0.199672,-0.0639 0.401813,-0.11325 0.608894,-0.14605 0.203906,-0.0321 0.356306,-0.036 0.499886,-0.19968 0.100895,-0.11394 0.117122,-0.29069 0,-0.40322"
       style="fill:#cfa762;fill-opacity:1;fill-rule:nonzero;stroke:none;stroke-width:0.0352778"
       id="path358" />
    <path
       d="m 26.296741,117.40126 c -0.288572,0.0649 -0.586316,0.1898 -0.801864,0.39582 -0.2159,0.20602 -0.03669,0.52952 0.228248,0.55068 0.303036,0.0233 0.611011,-0.0882 0.879122,-0.22154 0.417336,-0.20814 0.116416,-0.81986 -0.305506,-0.72496"
       style="fill:#cfa762;fill-opacity:1;fill-rule:nonzero;stroke:none;stroke-width:0.0352778"
       id="path360" />
    <path
       d="m 34.616652,112.19744 c -0.03739,0.002 -1.588911,0.0649 -1.588911,0.64981 0,0.58491 0.400403,0.86642 0.400403,0.86642 0,0 -0.71367,0.37924 -0.525639,0.76906 0.187678,0.38982 0.513292,0.53058 0.513292,0.53058 0,0 -0.300567,0.37923 -0.112889,0.68262 0.187678,0.30304 0.440972,0.37889 0.440972,0.37889 0,0 -0.359833,0.53093 0,0.72566 0.359833,0.19509 1.986492,0.85584 2.52483,-0.7687 0.537987,-1.6249 0.287514,-3.93171 -1.652058,-3.83434"
       style="fill:#fbc772;fill-opacity:1;fill-rule:nonzero;stroke:none;stroke-width:0.0352778"
       id="path362" />
    <path
       d="m 25.6755,125.4587 c -0.395112,-0.15875 -0.754592,0.19192 -0.675923,0.59126 0.0042,0.0215 0.0088,0.043 0.0127,0.0649 0.05997,0.30339 0.416278,0.38206 0.656167,0.2667 0.02222,-0.0109 0.0448,-0.0215 0.06703,-0.0324 0.371122,-0.17886 0.291041,-0.74895 -0.05997,-0.89042"
       style="fill:#cfa762;fill-opacity:1;fill-rule:nonzero;stroke:none;stroke-width:0.0352778"
       id="path364" />
    <path
       d="m 29.029005,138.03065 c -0.06209,-0.31468 -0.5334,-0.36054 -0.680155,-0.0889 -0.186973,0.34642 -0.191559,0.78422 -0.166512,1.17051 0.01729,0.27623 0.0889,0.81316 0.462139,0.82974 0.324556,0.0145 0.396522,-0.3997 0.401109,-0.64488 0.0067,-0.40746 0.06279,-0.86748 -0.01658,-1.26647"
       style="fill:#53c280;fill-opacity:1;fill-rule:nonzero;stroke:none;stroke-width:0.0352778"
       id="path366" />
    <path
       d="m 27.636238,143.78763 c -0.195086,0.36794 -1.005769,1.56633 -0.352425,1.84749 0.643467,0.27693 1.020939,-1.10419 1.181806,-1.49754 0.195086,-0.47766 -0.591608,-0.79939 -0.829381,-0.34995"
       style="fill:#53c280;fill-opacity:1;fill-rule:nonzero;stroke:none;stroke-width:0.0352778"
       id="path368" />
    <path
       d="m 26.947969,139.23362 c -0.132644,-0.38594 -0.709789,-0.32914 -0.721078,0.0974 -0.01164,0.4265 -0.04939,1.06891 0.355247,1.32326 0.117828,0.0737 0.315737,0.0579 0.409223,-0.0529 0.312561,-0.37077 0.09913,-0.95356 -0.04339,-1.36772"
       style="fill:#53c280;fill-opacity:1;fill-rule:nonzero;stroke:none;stroke-width:0.0352778"
       id="path370" />
    <path
       d="m 29.555702,133.19406 c -0.354189,-0.31856 -0.870302,0.18768 -0.525991,0.52635 0.200377,0.19755 0.373238,0.40851 0.51823,0.65017 0.13582,0.22754 0.219075,0.49494 0.457906,0.63076 0.178505,0.10196 0.409927,0.009 0.466019,-0.18979 0.160867,-0.56938 -0.531283,-1.27106 -0.916164,-1.61749"
       style="fill:#53c280;fill-opacity:1;fill-rule:nonzero;stroke:none;stroke-width:0.0352778"
       id="path372" />
    <path
       d="m 31.362983,139.64919 c -0.0321,-0.53199 -0.858309,-0.53834 -0.833261,0 0.02152,0.47166 -0.07232,1.09326 0.232833,1.47602 0.148872,0.18698 0.443089,0.10054 0.553156,-0.0713 0.233186,-0.36265 0.07232,-0.99025 0.04727,-1.40476"
       style="fill:#53c280;fill-opacity:1;fill-rule:nonzero;stroke:none;stroke-width:0.0352778"
       id="path374" />
    <path
       d="m 27.585086,135.34354 c -0.103011,-0.46426 -0.815623,-0.26776 -0.712259,0.1965 0.06279,0.28469 0.07937,0.61806 0.316442,0.81421 0.127,0.10477 0.356306,0.12029 0.440267,-0.0568 0.149225,-0.31397 0.02787,-0.62971 -0.04445,-0.95391"
       style="fill:#53c280;fill-opacity:1;fill-rule:nonzero;stroke:none;stroke-width:0.0352778"
       id="path376" />
    <path
       d="m 17.081128,143.78304 c -0.04445,-0.20673 -0.10795,-0.40816 -0.147814,-0.6163 -0.01729,-0.0903 -0.02822,-0.18133 -0.04586,-0.27129 -0.02293,-0.11677 -0.07514,-0.21343 -0.104423,-0.32702 -0.09631,-0.37324 -0.576791,-0.31221 -0.698147,0 -0.06315,0.16227 -0.122767,0.25858 -0.13088,0.44238 -0.0053,0.11642 0.0032,0.22789 0.01729,0.34396 0.03422,0.27869 0.106539,0.54645 0.24765,0.79163 0.274108,0.47766 0.971902,0.14852 0.862189,-0.36336"
       style="fill:#53c280;fill-opacity:1;fill-rule:nonzero;stroke:none;stroke-width:0.0352778"
       id="path378" />
    <path
       d="m 19.626419,142.18849 c -0.03104,-0.53658 -0.885472,-0.52317 -0.828675,0 0.04092,0.37711 0.03916,0.7747 0.206728,1.12042 0.129469,0.26776 0.531989,0.17815 0.607483,-0.0794 0.09807,-0.33408 0.03422,-0.69814 0.01446,-1.04104"
       style="fill:#53c280;fill-opacity:1;fill-rule:nonzero;stroke:none;stroke-width:0.0352778"
       id="path380" />
    <path
       d="m 21.002958,136.94974 c -0.02117,0.37817 -0.09278,0.83573 0.1016,1.17827 0.08326,0.14746 0.339019,0.20814 0.455789,0.0589 0.268111,-0.34255 0.265289,-0.8188 0.305858,-1.23719 0.05327,-0.54716 -0.831497,-0.5581 -0.863247,0"
       style="fill:#53c280;fill-opacity:1;fill-rule:nonzero;stroke:none;stroke-width:0.0352778"
       id="path382" />
    <path
       d="m 15.384972,170.77971 c -0.299861,-0.50094 -1.095375,-0.037 -0.783519,0.45826 0.23883,0.37994 0.469194,0.96767 0.950736,1.07633 0.146402,0.0328 0.30868,-0.0438 0.347486,-0.19756 0.123472,-0.48578 -0.2794,-0.94403 -0.514703,-1.33703"
       style="fill:#53c280;fill-opacity:1;fill-rule:nonzero;stroke:none;stroke-width:0.0352778"
       id="path384" />
    <path
       d="m 20.747194,172.7595 c -0.160161,-0.1778 -0.37218,-0.20602 -0.577497,-0.31221 -0.194733,-0.10124 -0.372181,-0.21308 -0.534458,-0.36054 -0.461787,-0.4198 -1.14935,0.26176 -0.687564,0.68757 0.367947,0.33937 1.08973,0.87277 1.620661,0.66322 0.286808,-0.11324 0.397228,-0.43533 0.178858,-0.67804"
       style="fill:#53c280;fill-opacity:1;fill-rule:nonzero;stroke:none;stroke-width:0.0352778"
       id="path386" />
    <path
       d="m 16.847941,166.81414 c -0.08008,-0.24871 -0.141816,-0.50024 -0.103363,-0.76341 0.03775,-0.26035 -0.06456,-0.51682 -0.337962,-0.59479 -0.230716,-0.066 -0.553155,0.0801 -0.595136,0.33761 -0.08008,0.49248 -0.04057,0.93204 0.15487,1.39242 0.06103,0.14358 0.265994,0.24835 0.416278,0.23847 0.141463,-0.009 0.23883,-0.0441 0.341136,-0.14111 0.119944,-0.11359 0.174625,-0.3108 0.124177,-0.46919"
       style="fill:#53c280;fill-opacity:1;fill-rule:nonzero;stroke:none;stroke-width:0.0352778"
       id="path388" />
    <path
       d="m 17.530214,162.34973 c -0.04657,-0.58455 -0.950031,-0.59901 -0.922514,0 0.01905,0.41734 -0.123825,1.61326 0.540455,1.60479 0.697089,-0.009 0.414514,-1.19556 0.382059,-1.60479"
       style="fill:#53c280;fill-opacity:1;fill-rule:nonzero;stroke:none;stroke-width:0.0352778"
       id="path390" />
    <path
       d="m 35.954033,157.33077 c -0.04304,-0.21943 -0.320675,-0.30551 -0.499181,-0.2032 -0.3683,0.21166 -0.50165,0.74259 -0.669219,1.1116 -0.226484,0.49918 0.512939,0.93592 0.741186,0.43321 0.184503,-0.40675 0.517172,-0.88441 0.427214,-1.34161"
       style="fill:#53c280;fill-opacity:1;fill-rule:nonzero;stroke:none;stroke-width:0.0352778"
       id="path392" />
    <path
       d="m 38.868683,156.22939 c -0.318911,-0.508 -1.080559,0.001 -1.375834,0.27129 -0.395816,0.3623 0.187325,0.93521 0.585611,0.58596 0.239889,-0.21025 1.089378,-0.37994 0.790223,-0.85725"
       style="fill:#53c280;fill-opacity:1;fill-rule:nonzero;stroke:none;stroke-width:0.0352778"
       id="path394" />
    <path
       d="m 36.480377,160.20837 c -0.02469,-0.14393 -0.223308,-0.25999 -0.359833,-0.20461 -0.355953,0.14464 -0.491067,0.47167 -0.666045,0.79375 -0.246591,0.45438 0.437798,0.85655 0.693914,0.4057 0.179917,-0.31715 0.398286,-0.61666 0.331964,-0.99484"
       style="fill:#53c280;fill-opacity:1;fill-rule:nonzero;stroke:none;stroke-width:0.0352778"
       id="path396" />
    <path
       d="m 22.828936,152.47125 c -0.31115,0.14676 -0.53587,0.4512 -0.758472,0.70485 -0.242006,0.27623 -0.484012,0.55245 -0.726017,0.82832 -0.300214,0.3422 0.211667,0.84561 0.498122,0.49813 0.246945,-0.29987 0.493889,-0.59973 0.741186,-0.89959 0.219781,-0.26705 0.480131,-0.53763 0.576439,-0.877 0.05786,-0.2025 -0.161219,-0.33514 -0.331258,-0.25471"
       style="fill:#53c280;fill-opacity:1;fill-rule:nonzero;stroke:none;stroke-width:0.0352778"
       id="path398" />
    <path
       d="m 19.853255,153.54511 c -0.155575,0.18838 -0.311503,0.37676 -0.467078,0.56515 -0.309386,0.37429 0.3175,0.77187 0.494595,0.3817 0.103717,-0.22824 0.207433,-0.45684 0.31115,-0.68509 0.09278,-0.20355 -0.169333,-0.46637 -0.338667,-0.26176"
       style="fill:#53c280;fill-opacity:1;fill-rule:nonzero;stroke:none;stroke-width:0.0352778"
       id="path400" />
  </g>
</svg>
