<?xml version="1.0" encoding="UTF-8" standalone="no"?>
<!-- Created with Inkscape (http://www.inkscape.org/) -->

<svg
   width="70.300804mm"
   height="97.538559mm"
   viewBox="0 0 70.300804 97.538559"
   version="1.1"
   id="svg3029"
   inkscape:version="1.2 (dc2aeda, 2022-05-15)"
   sodipodi:docname="zeus.svg"
   xmlns:inkscape="http://www.inkscape.org/namespaces/inkscape"
   xmlns:sodipodi="http://sodipodi.sourceforge.net/DTD/sodipodi-0.dtd"
   xmlns="http://www.w3.org/2000/svg"
   xmlns:svg="http://www.w3.org/2000/svg">
  <sodipodi:namedview
     id="namedview3031"
     pagecolor="#ffffff"
     bordercolor="#666666"
     borderopacity="1.0"
     inkscape:showpageshadow="2"
     inkscape:pageopacity="0.0"
     inkscape:pagecheckerboard="true"
     inkscape:deskcolor="#d1d1d1"
     inkscape:document-units="mm"
     showgrid="false"
     inkscape:zoom="0.914906"
     inkscape:cx="326.80953"
     inkscape:cy="335.00709"
     inkscape:window-width="1390"
     inkscape:window-height="1205"
     inkscape:window-x="2240"
     inkscape:window-y="25"
     inkscape:window-maximized="0"
     inkscape:current-layer="layer1" />
  <defs
     id="defs3026" />
  <g
     inkscape:label="Layer 1"
     inkscape:groupmode="layer"
     id="layer1"
     transform="translate(-18.639278,-59.966845)">
    <path
       d="m 51.536463,139.88383 c 0.02752,0.35631 -2.909711,16.38088 -2.216856,17.0935 0.692856,0.71225 8.839553,0.35595 8.894939,0 0.05539,-0.35631 -4.627386,-2.65713 -4.627386,-2.65713 l 1.080558,-15.61394 -3.131255,1.17757"
       style="fill:#fbc772;fill-opacity:1;fill-rule:nonzero;stroke:none;stroke-width:0.0352778"
       id="path16" />
    <path
       d="m 32.167199,143.17807 c 0,0 -4.364213,10.25172 -4.717344,10.72409 -0.353483,0.47272 -3.325283,1.10949 -3.075869,2.40383 0.249061,1.29434 1.911703,0.67804 1.911703,0.67804 0,0 2.198863,0.7807 2.731205,0.43145 0.531636,-0.34925 0.427919,-0.34925 0.531636,-0.34925 0.10407,0 1.745897,0.80115 2.099381,-0.10302 0.35313,-0.90381 -0.519995,-2.52694 -0.519995,-2.52694 l 5.050367,-11.2582 c 0,0 -2.431697,-1.19168 -4.011084,0"
       style="fill:#fbc772;fill-opacity:1;fill-rule:nonzero;stroke:none;stroke-width:0.0352778"
       id="path18" />
    <path
       d="m 40.415849,111.65244 c 0,0 -1.722966,2.00272 -3.219097,7.59107 -1.496483,5.588 -8.72878,21.94172 -8.146697,23.87282 0.581731,1.93111 4.1148,0.8629 7.3152,1.93111 3.2004,1.06821 4.489097,0.90417 8.687153,-1.4792 4.198055,-2.38301 9.227255,-2.87619 10.68211,-4.93077 1.454503,-2.05458 3.368323,-27.571 -0.394052,-28.1873 -2.741084,0.1644 -14.924617,1.20227 -14.924617,1.20227"
       style="fill:#d8b694;fill-opacity:1;fill-rule:nonzero;stroke:none;stroke-width:0.0352778"
       id="path20" />
    <path
       d="m 60.273357,75.772117 c 0,0 13.564305,14.71436 13.682133,14.48188 0.117828,-0.232128 0.372886,-2.562225 0.372886,-2.562225 0,0 7.057672,8.350955 7.280981,8.258527 0.223308,-0.09278 0.265289,-1.822097 0.265289,-1.822097 l 7.065433,7.430558 -7.236178,-12.320058 -0.525991,3.038475 -7.972073,-9.858374 -0.627591,4.026252 c 0,0 -9.569803,-12.442472 -10.186458,-12.821002 -0.617009,-0.378178 -2.118431,2.148064 -2.118431,2.148064"
       style="fill:#fabc22;fill-opacity:1;fill-rule:nonzero;stroke:none;stroke-width:0.0352778"
       id="path22" />
    <path
       d="m 52.090677,86.906136 c 0,0 5.541786,4.574469 10.141655,3.3147 4.59987,-1.260123 5.126567,-4.624211 5.126567,-4.624211 0,0 -1.077384,-1.176514 -0.59937,-1.597731 0.478014,-0.421216 1.184628,-0.164042 1.184628,-0.164042 0,0 0.820914,-2.434519 1.652058,-2.157236 0.831145,0.277284 0.810684,0.903817 0.883356,0.986014 0.07267,0.0822 0.6858,-0.184855 0.997303,0.246592 0.311855,0.431447 0,1.027289 0,1.027289 0,0 0.831497,0.205316 0.883355,0.677686 0.05221,0.472722 -0.976841,2.609144 -2.493786,2.393597 0,0 -3.089628,6.307314 -8.548511,6.471708 -5.458883,0.164395 -9.227255,-2.163939 -9.227255,-2.163939 v -4.410427"
       style="fill:#fbc772;fill-opacity:1;fill-rule:nonzero;stroke:none;stroke-width:0.0352778"
       id="path24" />
    <path
       d="m 36.926524,87.933425 c -0.06032,0.0441 -8.770055,1.890183 -11.617324,-0.965906 -2.84727,-2.855383 -2.286353,-7.991475 -2.286353,-7.991475 0,0 1.340555,0.575028 1.454855,-0.257175 0.1143,-0.832202 -0.945444,-0.934861 -0.945444,-0.934861 0,0 0.851958,-1.40723 0.3429,-2.074686 -0.509058,-0.667808 -1.392414,0.852664 -1.392414,0.852664 0,0 -0.155928,-1.540933 -0.831144,-1.356078 -0.67557,0.184856 -0.696384,1.304572 -0.696384,1.304572 0,0 -0.498827,-1.150408 -1.039283,-0.92463 -0.540103,0.22613 -0.186972,1.458736 -0.186972,1.458736 0,0 -0.623358,-0.945092 -0.976842,-0.297744 -0.35313,0.646994 0.135114,2.095499 1.288697,2.999316 0,0 -0.398286,10.090855 6.196542,11.926358 6.59518,1.83515 11.305822,0.246592 11.915422,1.095728 0.6096,0.849136 1.787525,12.069236 1.974497,13.622516 0.18662,1.55293 6.650214,-3.11538 8.665986,-7.685266 2.015772,-4.569883 -4.752269,-15.990358 -11.866739,-10.772069"
       style="fill:#fbc772;fill-opacity:1;fill-rule:nonzero;stroke:none;stroke-width:0.0352778"
       id="path26" />
    <path
       d="m 40.12516,111.06647 c 0,0 -1.411463,0.82198 5.405261,1.60267 6.816372,0.7807 10.744553,-1.41746 9.913056,-3.12279 -0.831145,-1.70532 -15.318317,1.52012 -15.318317,1.52012"
       style="fill:#b05f1f;fill-opacity:1;fill-rule:nonzero;stroke:none;stroke-width:0.0352778"
       id="path28" />
    <path
       d="m 47.088994,90.152044 c 0,0 -1.703917,12.450236 -8.811684,15.696146 -2.369255,1.52047 0.956028,2.99966 0.956028,2.99966 0,0 -1.745897,1.10949 -0.374297,1.97239 1.371953,0.86254 15.711664,2.0955 18.039291,-2.42429 1.122186,-1.93146 -1.247069,-2.46557 -1.247069,-2.46557 0,0 1.454855,-1.15041 0.498828,-2.99931 -0.956028,-1.84927 -2.363259,-15.208606 -3.176764,-16.459204 -0.813506,-1.250244 -5.884333,3.680178 -5.884333,3.680178"
       style="fill:#d8b694;fill-opacity:1;fill-rule:nonzero;stroke:none;stroke-width:0.0352778"
       id="path30" />
    <path
       d="m 49.36688,87.64203 c -0.07867,-0.578203 -0.926748,-0.621594 -0.945798,0 -0.123825,4.062236 -0.284691,7.667978 -1.913819,11.475155 -0.08361,0.195439 0.195792,0.37077 0.295981,0.171098 1.734961,-3.458281 3.092097,-7.749117 2.563636,-11.646253"
       style="fill:#a99178;fill-opacity:1;fill-rule:nonzero;stroke:none;stroke-width:0.0352778"
       id="path32" />
    <path
       d="m 50.416041,86.785133 c -0.105834,-0.315383 -0.565856,-0.186972 -0.501297,0.136525 0.786694,3.942997 1.170516,7.59213 0.705908,11.608505 -0.02293,0.200025 0.319969,0.246239 0.357364,0.04762 0.718255,-3.802239 0.676628,-8.088488 -0.561975,-11.792655"
       style="fill:#a99178;fill-opacity:1;fill-rule:nonzero;stroke:none;stroke-width:0.0352778"
       id="path34" />
    <path
       d="m 53.280243,93.268836 c -0.324908,-2.438048 -0.620183,-5.207353 -1.600905,-7.477831 -0.155928,-0.360539 -0.775053,-0.177094 -0.745419,0.199672 0.191558,2.45745 1.057627,4.969934 1.591027,7.379406 0.6223,2.810228 1.03505,5.640916 1.350434,8.500537 0.02681,0.24235 0.410986,0.24941 0.389466,0 -0.246944,-2.87479 -0.603603,-5.741462 -0.984603,-8.601784"
       style="fill:#a99178;fill-opacity:1;fill-rule:nonzero;stroke:none;stroke-width:0.0352778"
       id="path36" />
    <path
       d="m 54.968638,106.98801 c -2.022475,0.21484 -3.988858,0.85196 -6.006042,1.14371 -2.345266,0.33902 -4.738511,0.5849 -7.110236,0.61489 -0.339372,0.004 -0.328788,0.48471 0,0.51329 4.231217,0.36759 9.418814,0.39052 13.307836,-1.57304 0.321734,-0.16263 0.184856,-0.73871 -0.191558,-0.69885"
       style="fill:#a99178;fill-opacity:1;fill-rule:nonzero;stroke:none;stroke-width:0.0352778"
       id="path38" />
    <path
       d="m 49.833957,105.68802 c -3.161947,0.005 -6.304138,0.54046 -9.480902,0.46779 -0.306211,-0.007 -0.301272,0.44803 0,0.46743 3.133019,0.20214 6.490053,0.48048 9.572272,-0.26917 0.377472,-0.0917 0.294217,-0.6664 -0.09137,-0.66605"
       style="fill:#a99178;fill-opacity:1;fill-rule:nonzero;stroke:none;stroke-width:0.0352778"
       id="path40" />
    <path
       d="m 32.703422,76.297403 c 0,0 0.243064,3.253669 2.591505,2.883958 1.382184,0.215547 1.3335,1.643592 5.407025,1.670755 4.073525,0.02752 9.698214,-4.014258 9.559925,-4.554713 -0.374297,-0.490714 -0.914753,-5.0292 -0.969786,-6.52392 -0.05539,-1.494719 -3.716161,-4.042127 -7.705019,-3.38455 -3.988859,0.657225 -10.287,5.655381 -8.88365,9.90847"
       style="fill:#fbc772;fill-opacity:1;fill-rule:nonzero;stroke:none;stroke-width:0.0352778"
       id="path42" />
    <path
       d="m 35.212024,79.047658 c 0.01552,-0.02681 -0.592313,-0.770466 0.134762,-1.345494 0.727427,-0.575381 1.226608,0.462139 1.2573,0.462139 0.0314,0 0.987424,-0.657578 1.600552,-0.12312 0.613128,0.534106 0.467431,1.345495 0.467431,1.345495 0,0 0.363714,-0.801159 1.184628,-0.667809 0.820913,0.133703 1.096786,0.359834 1.096786,0.359834 0,0 -0.0056,-0.770467 0.555625,-1.027289 0.560916,-0.256822 1.319388,0.451908 1.319388,0.451908 0,0 0.353484,-0.945092 1.122539,-0.832203 0.768703,0.112889 1.215673,0.328789 1.215673,0.328789 l 1.215672,-0.390172 c 0,0 0.389466,-0.493183 1.025877,-0.400756 0.636764,0.09243 1.280937,0.534106 1.280937,0.534106 0,0 -0.218017,-0.606072 0.23883,-0.862894 0.457553,-0.25647 0.769056,-0.226131 0.769056,-0.226131 0,0 -0.07267,-1.643239 1.3716,-1.170869 1.444625,0.472722 0.602897,1.520472 0.602897,1.520472 0,0 1.666169,0.931333 1.111955,2.657122 1.524,1.83515 0.941917,2.794 0.290689,2.821517 1.524,1.643591 0.692856,2.971799 -0.263172,3.355622 0.762,2.15018 -0.9144,2.643364 -1.773414,2.287058 0.207786,2.451805 -1.496483,2.753078 -2.203097,1.767064 -0.678744,2.657122 -2.230261,3.218391 -3.255786,1.164166 -1.994958,2.91712 -4.613628,2.834923 -4.766028,-0.410986 -1.440744,2.013303 -2.715683,0.90417 -2.909358,-0.31503 -0.194028,-1.218847 0.221544,-1.848908 0.221544,-1.848908 0,0 -1.676399,1.232605 -2.188986,-0.342548 -0.512586,-1.575152 0.512587,-3.204986 0.512587,-3.204986 0,0 -1.787173,0.534106 -1.8288,-1.150408 -0.04163,-1.684514 1.03893,-2.931231 1.03893,-2.931231 0,0 -1.288344,-0.351013 -0.446617,-1.804458"
       style="fill:#c45f2e;fill-opacity:1;fill-rule:nonzero;stroke:none;stroke-width:0.0352778"
       id="path44" />
    <path
       d="m 43.742896,72.596764 c 0,0 -0.6858,2.701572 -0.166158,4.879269 0.519642,2.177697 3.096683,1.109486 2.992614,0.307975 -0.103717,-0.800805 -1.560689,-3.571169 -1.560689,-5.033433 0,-1.417461 -1.120069,-0.934861 -1.265767,-0.153811"
       style="fill:#f57f4a;fill-opacity:1;fill-rule:nonzero;stroke:none;stroke-width:0.0352778"
       id="path46" />
    <path
       d="m 40.241224,74.579375 c 0,0 -0.04163,2.701572 0.831145,2.557639 0.873125,-0.143934 0.4572,-2.896659 0.05221,-3.112559 -0.405342,-0.215547 -0.841728,-0.08184 -0.883356,0.55492"
       style="fill:#040606;fill-opacity:1;fill-rule:nonzero;stroke:none;stroke-width:0.0352778"
       id="path48" />
    <path
       d="m 41.621291,74.611478 c 0,0 -0.678039,-0.170039 -0.667808,0.304094 0.01058,0.474486 0.808566,0.252942 0.8763,0.103364 0.06773,-0.149578 -0.01623,-0.379942 -0.208492,-0.407458"
       style="fill:#ffffff;fill-opacity:1;fill-rule:nonzero;stroke:none;stroke-width:0.0352778"
       id="path50" />
    <path
       d="m 46.735863,73.870292 c 0,0 -0.04198,2.701572 0.831144,2.557991 0.872773,-0.14358 0.4572,-2.897011 0.05186,-3.112558 -0.404989,-0.215547 -0.841728,-0.0822 -0.883003,0.554567"
       style="fill:#040606;fill-opacity:1;fill-rule:nonzero;stroke:none;stroke-width:0.0352778"
       id="path52" />
    <path
       d="m 48.115577,73.902747 c 0,0 -0.678039,-0.170039 -0.667456,0.304447 0.01023,0.474134 0.808567,0.252236 0.8763,0.102659 0.06773,-0.149225 -0.01658,-0.379589 -0.208844,-0.407106"
       style="fill:#ffffff;fill-opacity:1;fill-rule:nonzero;stroke:none;stroke-width:0.0352778"
       id="path54" />
    <path
       d="m 41.12458,70.121322 c -0.09349,0.0314 -4.094339,1.975556 -3.616325,3.0988 0.478014,1.122892 4.790369,0.157339 5.154083,-0.797983 0.363714,-0.955322 -0.35313,-2.701572 -1.537758,-2.300817"
       style="fill:#c45f2e;fill-opacity:1;fill-rule:nonzero;stroke:none;stroke-width:0.0352778"
       id="path56" />
    <path
       d="m 45.540652,69.874378 c 0,0 -0.3429,2.126544 0.239183,2.465564 0.581731,0.339019 3.273072,0.626533 3.387372,-0.154164 0.1143,-0.780697 -3.314699,-2.896659 -3.626555,-2.3114"
       style="fill:#c45f2e;fill-opacity:1;fill-rule:nonzero;stroke:none;stroke-width:0.0352778"
       id="path58" />
    <path
       d="m 34.051738,75.397819 c 0.04127,-0.01058 0.456848,1.112661 1.343731,0.414161 0.88653,-0.6985 0.194028,-2.218972 0.194028,-2.218972 0,0 1.454502,0.04127 1.565627,-0.986014 0.110773,-1.027288 -0.180269,-1.378302 -0.180269,-1.378302 0,0 0.928511,0.351014 1.510242,-0.251531 0.58173,-0.602544 0.429683,-1.203678 0.429683,-1.203678 0,0 0.775758,0.601134 1.468261,0.190148 0.692856,-0.410987 0.651581,-1.150762 0.651581,-1.150762 0,0 0.664986,0.685095 1.454502,0.547864 0.78987,-0.136525 1.108428,-0.821619 1.108428,-0.821619 0,0 0.370064,0.685094 1.411111,0.602544 1.041047,-0.08184 1.415345,-0.424391 1.415345,-0.424391 0,0 0.237066,0.766939 0.984249,0.794455 0.747537,0.02716 0.84455,-0.274108 0.84455,-0.274108 0,0 -0.05539,1.438275 1.191331,1.452033 1.247069,0.01341 1.358194,-1.082322 0.859014,-1.616428 0.859014,-0.06844 1.233311,-2.095499 0.01411,-2.807758 0.4572,-1.698272 -0.595842,-3.095272 -1.8288,-2.753078 0.595489,-1.547636 -0.9144,-2.287058 -1.662642,-1.807986 -0.4572,-1.163813 -2.549525,-1.752952 -3.325283,-0.616302 0,0 -0.859014,-1.533878 -2.299758,-1.013531 -1.441097,0.5207 -1.482372,1.726142 -1.482372,1.726142 0,0 -2.300111,-1.904295 -3.519311,-1.232959 -1.2192,0.671337 -0.05539,2.369256 -0.05539,2.369256 0,0 -2.757312,-1.382889 -3.6576,0 -0.900642,1.383594 1.122186,2.397125 1.122186,2.397125 0,0 -3.269897,-0.903817 -3.269897,0.986014 0,1.890183 1.662641,1.958622 1.662641,1.958622 0,0 -1.703916,-0.136878 -2.022828,1.095728 -0.318558,1.232958 0.859014,1.602669 0.859014,1.602669 0,0 -1.591733,1.451681 -0.913694,2.561167 0.678039,1.109486 1.60655,0.794455 1.60655,0.794455 0,0 -0.540456,1.424164 0.166158,1.862667 0.706614,0.43815 1.007181,0.101953 1.007181,0.101953 0,0 0.0042,-0.772936 0.447675,-1.197681 0.443089,-0.424392 0.900641,0.298097 0.900641,0.298097"
       style="fill:#c45f2e;fill-opacity:1;fill-rule:nonzero;stroke:none;stroke-width:0.0352778"
       id="path60" />
    <path
       d="m 47.088994,79.907378 c 0,0 -0.734131,0.02716 -0.803628,1.397 -0.06915,1.369483 0.235655,3.053291 1.718028,1.814336 1.482725,-1.238956 0.180269,-3.499203 -0.9144,-3.211336"
       style="fill:#f57f4a;fill-opacity:1;fill-rule:nonzero;stroke:none;stroke-width:0.0352778"
       id="path62" />
    <path
       d="m 47.961766,80.711711 c 0,0 -0.553861,-0.790928 -1.080558,-0.287514 -0.497064,0.475192 -0.582084,3.061053 0.602544,2.650419 1.184628,-0.410986 0.789869,-2.034116 0.478014,-2.362905"
       style="fill:#ad2f3c;fill-opacity:1;fill-rule:nonzero;stroke:none;stroke-width:0.0352778"
       id="path64" />
    <path
       d="m 34.444027,76.725675 c 0,0 -0.422275,-1.03117 -0.980369,-0.794456 -0.558095,0.237773 0.04939,2.748492 1.011766,2.428875 0.605014,-0.201083 -0.0314,-1.634419 -0.0314,-1.634419"
       style="fill:#cfa762;fill-opacity:1;fill-rule:nonzero;stroke:none;stroke-width:0.0352778"
       id="path66" />
    <path
       d="m 29.755258,71.607222 c 0,0 -0.594431,-1.054453 -0.262114,-2.23273 0.332669,-1.177925 0.9144,0 0.9144,0 0,0 -0.446969,-1.147939 0.275519,-1.820334 0.722137,-0.672394 0.984603,0.726017 0.984603,0.726017 0,0 -0.151341,-1.836561 0.915106,-2.083153 1.0668,-0.246591 0.9144,0.876653 0.9144,0.876653 0,0 0.637469,-2.218972 1.773766,-1.890183 1.135945,0.328789 0.747889,1.958622 -1.164166,2.53365 1.799166,0.548216 0.679097,2.205214 -1.163814,1.739547 1.050572,0.808214 0.305153,2.136775 -1.579386,1.547636 1.759655,1.109486 -0.265642,2.287411 -1.608314,0.602897"
       style="fill:#fabc22;fill-opacity:1;fill-rule:nonzero;stroke:none;stroke-width:0.0352778"
       id="path68" />
    <path
       d="m 50.859835,66.814031 c 0,0 -2.440869,0.909814 -1.761772,-0.531284 -1.454856,0.25647 -1.985081,-0.631472 -1.20015,-1.132416 -2.235905,0.197555 -1.709561,-1.240367 -0.767292,-1.309159 0,0 -1.468613,-0.287514 -1.163813,-1.301044 0.3048,-1.013531 1.510241,0.109714 1.745544,0.726017 0,0 -0.138289,-1.068564 0.540455,-0.835731 0.678745,0.232833 0.664987,1.780469 0.664987,1.780469 0,0 -0.02752,-1.424163 0.720372,-1.01353 0.748241,0.411339 0.526697,2.136775 0.526697,2.136775 0,0 0.110772,-1.232606 0.595842,-0.718961 0.484716,0.513644 0.558094,1.775178 0.09913,2.198864"
       style="fill:#fabc22;fill-opacity:1;fill-rule:nonzero;stroke:none;stroke-width:0.0352778"
       id="path70" />
    <path
       d="m 40.88328,81.349886 c -0.09842,-0.09525 -0.253647,-0.09207 -0.352778,0 -0.1651,0.153811 -0.233892,0.401461 -0.367242,0.5842 -0.178505,0.244475 -0.42933,0.306564 -0.722136,0.269169 -0.394052,-0.05045 -0.472016,0.591256 -0.09313,0.681214 0.493183,0.11677 1.006122,0.01023 1.375128,-0.347839 0.288219,-0.280105 0.495653,-0.86113 0.160161,-1.186744"
       style="fill:#994c27;fill-opacity:1;fill-rule:nonzero;stroke:none;stroke-width:0.0352778"
       id="path72" />
    <path
       d="m 41.590247,85.315461 c -0.04233,-0.117828 -0.177448,-0.227895 -0.312914,-0.175684 -0.206023,0.07937 -0.331259,0.235656 -0.497417,0.372534 -0.185561,0.153105 -0.365831,0.239889 -0.602192,0.292805 -0.402166,0.09066 -0.310797,0.710495 0.09666,0.706261 0.551039,-0.0053 1.565628,-0.500238 1.315862,-1.195916"
       style="fill:#994c27;fill-opacity:1;fill-rule:nonzero;stroke:none;stroke-width:0.0352778"
       id="path74" />
    <path
       d="m 45.335335,87.318533 c -0.09631,-0.209197 -0.358422,-0.229306 -0.546805,-0.141817 -0.270228,0.125589 -0.4191,0.274109 -0.665339,-0.0078 -0.2794,-0.319616 -0.863247,0.113947 -0.599722,0.457553 0.424744,0.553861 1.236486,0.730956 1.749425,0.170744 0.130527,-0.142169 0.140052,-0.310091 0.06244,-0.478719"
       style="fill:#994c27;fill-opacity:1;fill-rule:nonzero;stroke:none;stroke-width:0.0352778"
       id="path76" />
    <path
       d="m 49.101238,86.331461 c -0.0381,-0.138995 -0.165806,-0.221897 -0.305506,-0.230011 -0.261761,-0.01517 -0.440619,0.239889 -0.633588,-0.0039 -0.302684,-0.381353 -0.986367,0.132645 -0.6858,0.522817 0.244827,0.3175 0.578202,0.519994 0.995891,0.460022 0.371122,-0.05292 0.739775,-0.344311 0.629003,-0.748947"
       style="fill:#994c27;fill-opacity:1;fill-rule:nonzero;stroke:none;stroke-width:0.0352778"
       id="path78" />
    <path
       d="m 51.328324,81.813083 c -0.132292,-0.155928 -0.3556,-0.07655 -0.456847,0.05821 -0.12065,0.160162 -0.122767,0.341842 -0.161572,0.532342 -0.04198,0.205317 -0.11042,0.38735 -0.215195,0.569736 -0.246239,0.428978 0.416631,0.811742 0.668514,0.386292 0.255764,-0.4318 0.534811,-1.111603 0.1651,-1.546578"
       style="fill:#994c27;fill-opacity:1;fill-rule:nonzero;stroke:none;stroke-width:0.0352778"
       id="path80" />
    <path
       d="m 44.651299,82.491122 c -0.311855,-0.154517 -0.536575,-0.02787 -0.839964,0.08572 -0.534811,0.199672 -0.297391,1.058333 0.23742,0.851606 0.33408,-0.129117 0.626886,-0.185562 0.767291,-0.536928 0.05468,-0.136525 -0.03457,-0.335845 -0.164747,-0.400403"
       style="fill:#994c27;fill-opacity:1;fill-rule:nonzero;stroke:none;stroke-width:0.0352778"
       id="path82" />
    <path
       d="m 50.256585,78.445467 c -0.397933,-0.271992 -0.88653,0.349249 -0.519641,0.665691 0.263172,0.227189 0.233538,0.606425 0.535516,0.791633 0.148167,0.09066 0.316089,0.04375 0.44062,-0.05644 0.506941,-0.407458 -0.07937,-1.142294 -0.456495,-1.40088"
       style="fill:#994c27;fill-opacity:1;fill-rule:nonzero;stroke:none;stroke-width:0.0352778"
       id="path84" />
    <path
       d="m 40.024619,64.771095 c -0.209197,-0.45085 -0.862189,-0.05821 -0.668161,0.386291 0.142169,0.32632 0.221897,0.70097 0.587022,0.831145 0.164394,0.05891 0.31115,-0.06773 0.367594,-0.206023 0.134761,-0.329141 -0.149577,-0.716491 -0.286455,-1.011413"
       style="fill:#994c27;fill-opacity:1;fill-rule:nonzero;stroke:none;stroke-width:0.0352778"
       id="path86" />
    <path
       d="m 43.151994,62.085397 c -0.306211,-0.227541 -0.68192,-0.276225 -1.049161,-0.192263 -0.599017,0.13723 -0.339725,1.007886 0.25153,0.901347 0.323497,-0.05821 0.322086,0.401461 0.488245,0.563033 0.268111,0.259997 0.650169,0.06491 0.744008,-0.258939 0.106186,-0.366889 -0.148872,-0.801158 -0.434622,-1.013178"
       style="fill:#994c27;fill-opacity:1;fill-rule:nonzero;stroke:none;stroke-width:0.0352778"
       id="path88" />
    <path
       d="m 44.839683,65.909508 c -0.203906,-0.555977 -1.051631,-0.342194 -0.906992,0.247298 0.07937,0.322791 -0.03246,0.665339 0.140405,0.963436 0.101953,0.175683 0.32632,0.219428 0.500945,0.129822 0.484717,-0.248003 0.423333,-0.911225 0.265642,-1.340556"
       style="fill:#994c27;fill-opacity:1;fill-rule:nonzero;stroke:none;stroke-width:0.0352778"
       id="path90" />
    <path
       d="m 37.360441,68.102022 c -0.267406,-0.421922 -0.883355,-0.05398 -0.668514,0.386292 0.108303,0.221544 -7.05e-4,0.475897 0.121356,0.689328 0.09102,0.158397 0.27305,0.231069 0.447675,0.179916 0.536575,-0.157339 0.303036,-0.934861 0.09948,-1.255536"
       style="fill:#994c27;fill-opacity:1;fill-rule:nonzero;stroke:none;stroke-width:0.0352778"
       id="path92" />
    <path
       d="m 36.833744,63.443592 c -0.488245,-0.268817 -0.924983,0.468489 -0.437797,0.74048 0.353836,0.197909 0.67698,0.594078 1.091494,0.623711 0.176036,0.01235 0.351014,-0.164747 0.340431,-0.33655 -0.03034,-0.496358 -0.5969,-0.808919 -0.994128,-1.027641"
       style="fill:#994c27;fill-opacity:1;fill-rule:nonzero;stroke:none;stroke-width:0.0352778"
       id="path94" />
    <path
       d="m 33.099591,71.383208 c -0.481542,-0.110066 -0.67945,0.591256 -0.204258,0.733073 0.312914,0.09349 0.415572,0.470605 0.735541,0.522816 0.139348,0.02258 0.250825,-0.01799 0.331612,-0.13335 0.36195,-0.517878 -0.442031,-1.02623 -0.862895,-1.122539"
       style="fill:#994c27;fill-opacity:1;fill-rule:nonzero;stroke:none;stroke-width:0.0352778"
       id="path96" />
    <path
       d="m 35.799047,70.044064 c -0.284339,-0.271286 -0.705909,0.14605 -0.433564,0.428625 0.228247,0.236714 0.409928,0.537986 0.771525,0.485775 0.06562,-0.0095 0.140405,-0.08431 0.150283,-0.148872 0.05539,-0.3556 -0.251178,-0.539398 -0.488244,-0.765528"
       style="fill:#994c27;fill-opacity:1;fill-rule:nonzero;stroke:none;stroke-width:0.0352778"
       id="path98" />
    <path
       d="m 47.872513,67.011939 c -0.239183,-0.373592 -0.936272,-0.137583 -0.759883,0.316442 0.119239,0.306564 0.05327,0.690033 0.296686,0.930275 0.10548,0.104422 0.310797,0.147108 0.440619,0.05609 0.445559,-0.312561 0.274461,-0.909461 0.02258,-1.302808"
       style="fill:#994c27;fill-opacity:1;fill-rule:nonzero;stroke:none;stroke-width:0.0352778"
       id="path100" />
    <path
       d="m 49.346771,119.15038 c -2.436988,3.86468 -4.416072,7.91986 -7.191375,11.58663 -1.402644,1.85349 -2.901244,3.64067 -4.493683,5.33788 -1.61678,1.72367 -3.503083,3.23744 -5.04825,5.01438 -0.203905,0.23425 0.05468,0.62583 0.349603,0.44768 2.020711,-1.22132 3.778603,-3.0794 5.407378,-4.7618 1.556103,-1.6069 3.021894,-3.29494 4.386791,-5.06377 2.840567,-3.68194 5.76192,-7.85953 7.149747,-12.32746 0.10407,-0.3355 -0.379588,-0.52 -0.560211,-0.23354"
       style="fill:#a99178;fill-opacity:1;fill-rule:nonzero;stroke:none;stroke-width:0.0352778"
       id="path102" />
    <path
       d="m 51.175924,122.16522 c -0.858661,2.41758 -1.417814,4.86974 -2.500136,7.21783 -1.004006,2.1784 -2.240492,4.27108 -3.660069,6.20924 -0.19685,0.26917 0.254705,0.61807 0.469194,0.35807 3.090333,-3.75038 6.012039,-8.75489 6.303081,-13.70295 0.02152,-0.36442 -0.501298,-0.39405 -0.61207,-0.0822"
       style="fill:#a99178;fill-opacity:1;fill-rule:nonzero;stroke:none;stroke-width:0.0352778"
       id="path104" />
    <path
       d="m 53.502141,128.4115 c -1.042106,3.09809 -1.459795,6.39304 -2.526242,9.50948 -0.15628,0.45684 0.564445,0.64558 0.72637,0.1979 1.086908,-2.99966 2.371724,-6.40679 2.386541,-9.62871 0.0018,-0.3422 -0.482247,-0.38912 -0.586669,-0.0787"
       style="fill:#a99178;fill-opacity:1;fill-rule:nonzero;stroke:none;stroke-width:0.0352778"
       id="path106" />
    <path
       d="m 41.764519,93.554233 -0.02681,-0.03951 c -0.256823,-0.374297 -0.761648,-0.374297 -1.01847,0 l -0.02716,0.03951 c -0.269522,0.393347 0.08961,0.923219 0.536223,0.923219 0.446616,0 0.806097,-0.529872 0.536222,-0.923219"
       style="fill:#f57f4a;fill-opacity:1;fill-rule:nonzero;stroke:none;stroke-width:0.0352778"
       id="path108" />
    <path
       d="m 42.753002,96.477349 c -0.351719,-0.09208 -0.687564,-0.02611 -1.043869,-0.01588 -0.410281,0.01164 -0.855486,0.0049 -1.249892,-0.106538 -0.281869,-0.07937 -0.381706,0.326319 -0.118886,0.426155 0.750005,0.284692 1.811514,0.633236 2.500841,0.02681 0.113595,-0.09984 0.05115,-0.293864 -0.08819,-0.330553"
       style="fill:#cfa762;fill-opacity:1;fill-rule:nonzero;stroke:none;stroke-width:0.0352778"
       id="path110" />
    <path
       d="m 42.56356,98.220072 c -0.259644,-0.1651 -0.608894,-0.08784 -0.904522,-0.09349 -0.311503,-0.006 -0.665691,-0.127 -0.964141,-0.02505 -0.173567,0.05927 -0.225425,0.254353 -0.10407,0.390878 0.236361,0.266347 0.66922,0.286808 1.007181,0.310444 0.326672,0.02293 0.783519,0.04304 1.012119,-0.227541 0.09631,-0.114653 0.08573,-0.270933 -0.04657,-0.355247"
       style="fill:#cfa762;fill-opacity:1;fill-rule:nonzero;stroke:none;stroke-width:0.0352778"
       id="path112" />
    <path
       d="m 57.21936,91.485191 c -0.309739,-0.08361 -0.643114,-0.05821 -0.957792,-0.129116 -0.367947,-0.0829 -0.675922,-0.223662 -0.951088,-0.483306 -0.226131,-0.213078 -0.5334,0.104069 -0.337962,0.334081 0.487892,0.575027 1.566687,1.205088 2.299406,0.677333 0.147108,-0.105833 0.143933,-0.346075 -0.05256,-0.398992"
       style="fill:#cfa762;fill-opacity:1;fill-rule:nonzero;stroke:none;stroke-width:0.0352778"
       id="path114" />
    <path
       d="m 32.292788,90.079019 c -0.385233,-0.09278 -0.754238,0.12065 -1.128536,0.204258 -0.52705,0.117828 -1.060097,0.13582 -1.588205,0.01799 -0.336903,-0.07514 -0.469547,0.403578 -0.14217,0.510117 0.563386,0.183797 1.153936,0.275166 1.745192,0.18168 0.457553,-0.07267 1.067858,-0.230364 1.233311,-0.705555 0.02963,-0.08502 -0.03387,-0.188031 -0.119592,-0.208492"
       style="fill:#cfa762;fill-opacity:1;fill-rule:nonzero;stroke:none;stroke-width:0.0352778"
       id="path116" />
    <path
       d="m 22.463341,77.315872 c -0.405694,-0.404283 -1.011061,-0.03281 -1.352902,0.38735 -0.334434,-0.05468 -0.731309,-0.05891 -0.933098,0.17392 -0.08467,0.09772 -0.06103,0.211313 0.0374,0.286455 0.137936,0.104775 0.222955,0.08608 0.392642,0.129117 0.178152,0.04515 0.329141,0.136525 0.477661,0.240241 0.166158,0.116064 0.372886,0.04339 0.513644,-0.06562 0.170392,-0.131939 0.313267,-0.274814 0.512233,-0.366889 0.228953,-0.106186 0.370064,-0.167922 0.449792,-0.419806 0.04022,-0.126647 -0.0046,-0.271991 -0.09737,-0.364772"
       style="fill:#cfa762;fill-opacity:1;fill-rule:nonzero;stroke:none;stroke-width:0.0352778"
       id="path118" />
  </g>
</svg>
